SplineFontDB: 3.2
FontName: MFEKSans-Regular
FullName: MFEK Sans Regular
FamilyName: MFEK Sans
Weight: Regular
Copyright: 
Version: 0.1
ItalicAngle: 0
UnderlinePosition: -200
UnderlineWidth: 100
Ascent: 1600
Descent: 400
InvalidEm: 0
LayerCount: 2
Layer: 0 0 "Back" 1
Layer: 1 0 "Fore" 0
XUID: [1021 31 -699969567 16487490]
FSType: 0
OS2Version: 0
OS2_WeightWidthSlopeOnly: 0
OS2_UseTypoMetrics: 1
CreationTime: 1460762150
ModificationTime: 1675840828
PfmFamily: 33
TTFWeight: 400
TTFWidth: 5
LineGap: 0
VLineGap: 0
OS2TypoAscent: 2500
OS2TypoAOffset: 0
OS2TypoDescent: -850
OS2TypoDOffset: 0
OS2TypoLinegap: 0
OS2WinAscent: 2500
OS2WinAOffset: 0
OS2WinDescent: 850
OS2WinDOffset: 0
HheadAscent: 2500
HheadAOffset: 0
HheadDescent: -850
HheadDOffset: 0
OS2CapHeight: 1500
OS2XHeight: 1040
OS2FamilyClass: 2053
OS2Vendor: 'it* '
OS2UnicodeRanges: 00000001.00000000.00000000.00000000
Lookup: 258 0 0 "kerning yeah boi" { "say cheese" [300,0,4] } ['kern' ('DFLT' <'dflt' > 'grek' <'dflt' > 'latn' <'dflt' > ) ]
MarkAttachClasses: 1
DEI: 91125
KernClass2: 30 23 "say cheese"
 73 A Agrave Aacute Acircumflex Atilde Adieresis Aring Amacron Abreve Aogonek
 96 D O Ograve Oacute Ocircumflex Otilde Odieresis Oslash Dcaron Dcroat Omacron Obreve Ohungarumlaut
 81 E AE Egrave Eacute Ecircumflex Edieresis Emacron Ebreve Edotaccent Eogonek Ecaron
 1 F
 39 G Gcircumflex Gbreve Gdotaccent uni0122
 104 J U Ugrave Uacute Ucircumflex Udieresis IJ Jcircumflex Utilde Umacron Ubreve Uring Uhungarumlaut Uogonek
 11 K X uni0136
 23 L Lacute uni013B Lslash
 1 P
 1 Q
 23 R Racute uni0156 Rcaron
 36 S Sacute Scircumflex Scedilla Scaron
 21 T uni0162 Tcaron Tbar
 1 V
 53 W Wcircumflex Wgrave Wacute Wdieresis uni1E86 uni1E88
 30 Y Ycircumflex Ydieresis Ygrave
 26 Z Zacute Zdotaccent Zcaron
 73 a agrave aacute acircumflex atilde adieresis aring amacron abreve aogonek

StartChar: ampersand
Encoding: 38 38 0
Width: 583
VWidth: 1920
Flags: HMW
LayerCount: 2
Back
SplineSet
753 10 m 6
 268 734 l 6
 143.896484375 919.145507812 50 1030 50 1163 c 4
 50 1303.00195312 148 1435 355 1435 c 4
 542 1435 660 1353 670 1183 c 5
 670 1015 575.04296875 877.8203125 347 776 c 4
 93.3544921875 662.748046875 -54 592 -54 448 c 4
 -54 389.00390625 -40.01171875 341.438476562 -5.5 286 c 6
 40 212.909179688 l 6
 82.4921875 144.650390625 151.1953125 105 236.639648438 105 c 4
 428.239257812 105 614.073242188 336.231445312 722.131835938 640 c 4
 724.067382812 645.44140625 728.022460938 648 735 648 c 6
 855 648 l 6
 862.030273438 648 864.134765625 645.349609375 861.387695312 637 c 4
 726.465820312 226.83984375 508.814453125 -35 241.208984375 -35 c 4
 105.288085938 -35 -26.6318359375 21.1064453125 -91 118.501953125 c 6
 -144 198.696289062 l 6
 -197.024414062 278.927734375 -224 351.583984375 -224 448 c 4
 -224 657 -8 767 237 862 c 4
 397.7265625 924.322265625 535 1032 535 1163 c 4
 535 1243 472 1300 375 1300 c 4
 278 1300 220 1242.02636719 220 1153 c 4
 220 1034 290.549804688 972.534179688 357 876 c 6
 953 10 l 6
 957.669921875 3.2138671875 957 0 950 0 c 6
 770 0 l 6
 763 0 757.627929688 3.1064453125 753 10 c 6
EndSplineSet
Fore
SplineSet
457 5 m 2
 189 1036 l 2
 163 1125 148 1175 148 1241 c 0
 148 1331 208 1417 332 1417 c 0
 456 1417 520 1336 520 1231 c 0
 520 1094 416 1002 268 937 c 0
 140 881 120 827 120 705 c 0
 120 666 130 599 150 533 c 2
 221 266 l 2
 253 146 264 72 317 72 c 0
 403 72 496 390 506 644 c 0
 506 647 509 648 512 648 c 2
 562 648 l 2
 566 648 568 646 568 642 c 0
 558 347 439 -18 295 -18 c 0
 197 -18 165 75 120 249 c 2
 58 489 l 2
 31 577 17 646 17 704 c 0
 17 858 111 936 234 995 c 0
 371 1061 432 1115 432 1221 c 0
 432 1301 405 1349 332 1349 c 0
 274 1349 246 1305 246 1240 c 0
 246 1180 255 1138 264 1107 c 2
 557 5 l 2
 559 2 559 0 555 0 c 2
 465 0 l 2
 461 0 459 2 457 5 c 2
EndSplineSet
EndChar

StartChar: period
Encoding: 46 46 1
Width: 275
VWidth: 1920
Flags: HMW
LayerCount: 2
Fore
SplineSet
180 0 m 6
 95 0 l 6
 88 0 85 3 85 10 c 6
 85 200 l 6
 85 207 88 210 95 210 c 6
 180 210 l 6
 187 210 190 207 190 200 c 6
 190 10 l 6
 190 3 187 0 180 0 c 6
EndSplineSet
EndChar

StartChar: zero
Encoding: 48 48 2
Width: 425
VWidth: 1920
Flags: HMW
LayerCount: 2
Fore
SplineSet
50 244 m 258
 50 1155 l 262
 50 1318 71 1417 212 1417 c 260
 353 1417 375 1318 375 1155 c 262
 375 244 l 258
 375 81 353 -18 212 -18 c 256
 71 -18 50 81 50 244 c 258
145 254 m 258
 145 130 145 52 212 52 c 256
 279 52 280 130 280 254 c 258
 280 1145 l 262
 280 1269 279 1347 212 1347 c 260
 145 1347 145 1269 145 1145 c 262
 145 254 l 258
EndSplineSet
EndChar

StartChar: one
Encoding: 49 49 3
Width: 300
VWidth: 1920
Flags: HMW
LayerCount: 2
Back
SplineSet
58 1374.24902344 m 4
 109.940429688 1376.59082031 139.987304688 1397.43554688 150.745117188 1440 c 4
 152.579101562 1447.2578125 156.3984375 1450 163 1450 c 6
 227 1450 l 6
 234 1450 237 1447 237 1440 c 6
 237 10 l 6
 237 3 234 0 227 0 c 6
 57 0 l 6
 50 0 47 3 47 10 c 6
 47 1364 l 6
 47 1370.734375 49.9912109375 1373.88769531 58 1374.24902344 c 4
EndSplineSet
Fore
SplineSet
108 1374 m 0
 134 1375 149 1389 154 1420 c 0
 154.656546086 1424.07058573 157 1425 160 1425 c 2
 192 1425 l 2
 196 1425 198 1424 198 1420 c 2
 198 5 l 2
 198 1 196 0 192 0 c 2
 108 0 l 2
 104 0 102 1 102 5 c 2
 102 1369 l 2
 102 1372 104 1374 108 1374 c 0
EndSplineSet
EndChar

StartChar: two
Encoding: 50 50 4
Width: 395
VWidth: 1920
Flags: HMW
LayerCount: 2
Back
SplineSet
80 60 m 262
 80 604.034179688 435 735.631835938 435 1033 c 262
 435 1078 l 262
 435 1188 422 1285 355 1285 c 260
 295 1285 285 1174.57601869 285 1002 c 262
 285 912 l 6
 285 905 282 902 275 902 c 6
 115 902 l 6
 108 902 105 905 105 912 c 6
 105 1002 l 262
 105 1275.74114594 132 1435 359 1435 c 260
 556 1435 615 1303 615 1073 c 262
 615 1028 l 262
 615 632.094726562 300 501 300 180 c 262
 300 170 l 261
 640 170 l 6
 647 170 650 167 650 160 c 6
 650 10 l 6
 650 3 647 0 640 0 c 6
 90 0 l 6
 83 0 80 3 80 10 c 6
 80 60 l 262
EndSplineSet
Fore
SplineSet
40 130 m 262
 40 482 258 668 258 967 c 262
 258 1138 l 262
 258 1273 254 1341 200 1341 c 260
 150 1341 142 1270 142 1140 c 262
 142 817 l 6
 142 813 142 812 138 812 c 6
 58 812 l 6
 54 812 52 813 52 817 c 6
 52 1140 l 262
 52 1321 76 1417 200 1417 c 260
 328 1417 348 1340 348 1135 c 262
 348 1005 l 262
 348 647 138 470 138 160 c 262
 138 85 l 261
 360 85 l 6
 364 85 365 84 365 80 c 6
 365 5 l 6
 365 1 364 0 360 0 c 6
 45 0 l 6
 41 0 40 1 40 5 c 6
 40 130 l 262
EndSplineSet
EndChar

StartChar: three
Encoding: 51 51 5
Width: 448
VWidth: 1920
Flags: HMW
LayerCount: 2
Back
SplineSet
90 407 m 6
 260 407 l 6
 267 407 270 404 270 397 c 6
 270 327 l 6
 270 207.036515383 301 115 440 115 c 4
 587 115 625 222 625 352 c 6
 625 447 l 6
 625 577 576.918945312 660 430 660 c 6
 350 660 l 6
 343 660 340 663 340 670 c 6
 340 800 l 6
 340 807 343 810 350 810 c 6
 410 810 l 6
 546.885742188 810 570 903 570 1023 c 6
 570 1088 l 6
 570 1198 551 1285 434 1285 c 4
 304 1285 295 1184.8148849 295 1052 c 6
 295 962 l 6
 295 955 292 952 285 952 c 6
 125 952 l 6
 118 952 115 955 115 962 c 6
 115 1052 l 6
 115 1286 192 1435 439 1435 c 4
 686 1435 765 1313 765 1083 c 6
 765 1058 l 6
 765 808 667 720 410 720 c 5
 430 770 l 5
 687 770 815 672 815 422 c 6
 815 347 l 6
 815 107 717 -35 430 -35 c 4
 188 -35 80 99 80 327 c 6
 80 397 l 6
 80 404 83 407 90 407 c 6
EndSplineSet
Fore
SplineSet
45 407 m 2
 130 407 l 2
 134 407 135 405 135 401 c 2
 135 164 l 2
 135 104 150 58 220 58 c 0
 294 58 312 111 312 176 c 2
 312 564 l 2
 312 629 288 670 215 670 c 2
 175 670 l 2
 171 670 170 671 170 675 c 2
 170 740 l 2
 170 744 171 745 175 745 c 2
 205 745 l 2
 273 745 285 792 285 852 c 2
 285 1243 l 2
 285 1298 275 1341 217 1341 c 0
 152 1341 148 1291 148 1225 c 2
 148 957 l 2
 148 953 146 952 142 952 c 2
 62 952 l 2
 58 952 58 953 58 957 c 2
 58 1225 l 2
 58 1342 96 1417 220 1417 c 0
 344 1417 382 1356 382 1241 c 2
 382 869 l 2
 382 744 333 700 205 700 c 1
 215 725 l 1
 343 725 408 676 408 551 c 2
 408 174 l 2
 408 54 359 -18 215 -18 c 0
 94 -18 40 50 40 164 c 2
 40 401 l 2
 40 405 41 407 45 407 c 2
EndSplineSet
EndChar

StartChar: four
Encoding: 52 52 6
Width: 445
VWidth: 1920
Flags: HMW
LayerCount: 2
Back
SplineSet
860 470 m 6
 860 340 l 6
 860 333 857 330 850 330 c 6
 670 330 l 261
 670 10 l 6
 670 3 667 0 660 0 c 6
 490 0 l 6
 483 0 480 3 480 10 c 6
 480 330 l 261
 60 330 l 6
 53 330 50 333 50 340 c 6
 50 490 l 6
 50 497 52.8139697216 502.573172087 57 510 c 6
 553 1390 l 6
 555.89191075 1395.1308094 562.5078125 1400 570 1400 c 6
 660 1400 l 6
 667 1400 670 1397 670 1390 c 6
 670 480 l 261
 850 480 l 6
 857 480 860 477 860 470 c 6
490 480 m 261
 490 1000.83300781 l 261
 205 480 l 261
 490 480 l 261
EndSplineSet
Fore
SplineSet
430 445 m 2
 430 380 l 2
 430 376 429 375 425 375 c 2
 335 375 l 257
 335 5 l 2
 335 1 334 0 330 0 c 2
 245 0 l 2
 241 0 240 1 240 5 c 2
 240 375 l 257
 30 375 l 2
 26 375 25 376 25 380 c 2
 25 450 l 2
 25 454 26.9377593361 461.01659751 28 465 c 2
 276 1395 l 2
 277 1398 281 1400 285 1400 c 2
 330 1400 l 2
 334 1400 335 1399 335 1395 c 2
 335 450 l 257
 425 450 l 2
 429 450 430 449 430 445 c 2
245 450 m 257
 245 1060 l 257
 92 450 l 257
 245 450 l 257
EndSplineSet
EndChar

StartChar: five
Encoding: 53 53 7
Width: 400
VWidth: 1920
Flags: HMW
LayerCount: 2
Back
SplineSet
120 368 m 6
 270 368 l 6
 276.907396135 368 280.134673921 365.023536005 280.643589146 359.00001182 c 4
 293.910084797 201.977676061 237.780273438 105 385 105 c 4
 534 105 510 205 510 398 c 6
 510 523 l 6
 510 723 549 805 415 805 c 4
 328.91015625 805 384.405028825 764.098695051 326 663.57421875 c 4
 321.069906079 655.088731807 316.759862432 653 310 653 c 6
 140 653 l 6
 133 653 129.782208459 654.877665595 131 663 c 6
 240 1390 l 6
 241.026367188 1396.84570312 244 1400 251 1400 c 6
 631 1400 l 6
 638 1400 641 1397 641 1390 c 6
 641 1325 l 6
 641 1255 611 1250 441 1250 c 6
 386 1250 l 5
 292.328125 745.357421875 l 5
 269.328125 745.357421875 l 5
 323.97265625 868.810546875 299.609375 955 460 955 c 4
 660 955 700 790 700 493 c 6
 700 428 l 6
 700 131 655 -35 385 -35 c 4
 151.010742188 -35 126.269481101 101.001357694 110.536478604 357.999933597 c 4
 110.10707744 365.014201068 112.917282461 368 120 368 c 6
EndSplineSet
Fore
SplineSet
60 364 m 2
 135 364 l 2
 138 364 140 363 140 360 c 0
 140 121 148 52 192 52 c 0
 236 52 255 163 255 319 c 2
 255 612 l 2
 255 832 252 862 220 862 c 0
 195 862 179 819 150 659 c 0
 149.202330518 654.599064928 145 653 142 653 c 2
 70 653 l 2
 66 653 65 655 66 659 c 2
 100 1395 l 6
 101 1398 102 1400 106 1400 c 6
 356 1400 l 2
 360 1400 360 1399 360 1395 c 2
 360 1362 l 2
 360 1327 345 1325 260 1325 c 2
 173 1325 l 5
 141 690 l 1
 133 690 l 1
 140 802 170 938 250 938 c 0
 320 938 350 854 350 596 c 2
 350 294 l 2
 350 76 307 -17 202 -17 c 0
 95 -17 59 51 55 359 c 0
 54.9480563283 362.999662718 56 364 60 364 c 2
EndSplineSet
EndChar

StartChar: six
Encoding: 54 54 8
Width: 472
VWidth: 1920
Flags: HMW
LayerCount: 2
Back
SplineSet
470 740 m 260
 370 740 310 675 310 492 c 262
 310 422 l 261
 250 522 l 261
 250 786 323 890 520 890 c 260
 757 890 819 731 819 457 c 262
 819 407 l 262
 819 129 751 -35 479 -35 c 260
 142 -35 125 167 125 527 c 262
 125 843 l 262
 125 1223 153 1435 450 1435 c 260
 727 1435 764 1265.83496094 764 1082 c 262
 764 1052 l 6
 764 1045 761 1042 754 1042 c 6
 604 1042 l 6
 597 1042 594 1045 594 1052 c 6
 594 1082 l 262
 594 1164.91113281 590 1285 460 1285 c 260
 313 1285 310 1138 310 838 c 262
 310 422 l 262
 310 232 322 115 469 115 c 260
 628 115 629 237 629 417 c 262
 629 457 l 262
 629 640 610 740 470 740 c 260
EndSplineSet
Fore
SplineSet
235 719 m 260
 185 719 155 687 155 595 c 262
 155 560 l 261
 125 610 l 261
 125 742 162 794 260 794 c 260
 378 794 410 714 410 577 c 262
 410 204 l 262
 410 65 376 -18 240 -18 c 260
 72 -18 62 84 62 264 c 262
 62 1121 l 262
 62 1321 87 1417 225 1417 c 260
 363 1417 382 1322 382 1190 c 262
 382 955 l 6
 382 951 381 950 377 950 c 6
 302 950 l 6
 298 950 297 951 297 955 c 6
 297 1190 l 262
 297 1271 295 1341 230 1341 c 260
 166 1341 155 1278 155 1118 c 262
 155 211 l 262
 155 116 160 58 234 58 c 260
 314 58 314 118 314 208 c 262
 314 577 l 262
 314 669 305 719 235 719 c 260
EndSplineSet
EndChar

StartChar: seven
Encoding: 55 55 9
Width: 353
VWidth: 1920
Flags: HMW
LayerCount: 2
Back
SplineSet
1007.56835938 1390 m 6
 435.568359375 10 l 6
 432.505859375 2.611328125 429.065429688 0 421.568359375 0 c 6
 231.568359375 0 l 6
 224.568359375 0 222.50390625 3.220703125 225.568359375 10 c 6
 781.568359375 1240 l 261
 81.568359375 1240 l 6
 74.568359375 1240 71.568359375 1243 71.568359375 1250 c 6
 71.568359375 1390 l 6
 71.568359375 1397 74.568359375 1400 81.568359375 1400 c 6
 1001.56835938 1400 l 6
 1008.94042969 1400 1010.78417969 1396.23046875 1007.56835938 1390 c 6
EndSplineSet
Fore
SplineSet
353 1395 m 2
 167 5 l 2
 165 1 163 0 159 0 c 2
 84 0 l 2
 80 0 78 2 80 5 c 2
 268 1320 l 261
 39 1320 l 2
 35 1320 35 1321 35 1325 c 2
 35 1395 l 2
 35 1399 35 1400 39 1400 c 2
 349 1400 l 2
 353 1400 355 1398 353 1395 c 2
EndSplineSet
EndChar

StartChar: eight
Encoding: 56 56 10
Width: 446
VWidth: 1920
Flags: HMW
LayerCount: 2
Back
SplineSet
443 110 m 260
 572.859375 110 579 196.100585938 579 342 c 262
 579 427 l 262
 579 574.159179688 573.689453125 659.927734375 443 659.927734375 c 260
 312.310546875 659.927734375 307 574.159179688 307 427 c 262
 307 342 l 262
 307 196.100585938 313.140625 110 443 110 c 260
443 810 m 260
 513.428710938 810 529 887.231445312 529 1023 c 262
 529 1088 l 262
 529 1214.95996094 511.329101562 1290 443 1290 c 260
 374.670898438 1290 357 1214.95996094 357 1088 c 262
 357 1023 l 262
 357 887.231445312 372.571289062 810 443 810 c 260
474 760 m 261
 754.075195312 760 769 623.61328125 769 392 c 262
 769 347 l 262
 769 99.75 751.090820312 -35 443 -35 c 260
 134.909179688 -35 117 99.75 117 347 c 262
 117 392 l 262
 117 623.61328125 131.924804688 760 412 760 c 261
 414 720.282226562 l 261
 187.81640625 725.765625 167 837.047851562 167 1058 c 262
 167 1083 l 262
 167 1304.25878906 175.2265625 1435 443 1435 c 260
 710.7734375 1435 719 1304.25878906 719 1083 c 262
 719 1058 l 262
 719 837.047851562 698.18359375 725.765625 472 720.282226562 c 261
 474 760 l 261
EndSplineSet
Fore
SplineSet
222 55 m 260
 287 55 290 98 290 171 c 262
 290 554 l 262
 290 628 287 670 222 670 c 260
 157 670 154 628 154 554 c 262
 154 171 l 262
 154 98 157 55 222 55 c 260
222 745 m 260
 257 745 281 784 281 852 c 262
 281 1243 l 262
 281 1306 256 1344 222 1344 c 260
 188 1344 165 1306 165 1243 c 262
 165 852 l 262
 165 784 187 745 222 745 c 260
238 720 m 261
 378 720 386 652 386 536 c 262
 386 174 l 262
 386 50 376 -18 222 -18 c 260
 68 -18 60 50 60 174 c 262
 60 536 l 262
 60 652 67 720 207 720 c 261
 208 700 l 261
 95 703 69 759 69 869 c 262
 69 1241 l 262
 69 1352 88 1417 222 1417 c 260
 356 1417 375 1352 375 1241 c 262
 375 869 l 262
 375 759 350 703 237 700 c 261
 238 720 l 261
EndSplineSet
EndChar

StartChar: nine
Encoding: 57 57 11
Width: 452
VWidth: 1920
Flags: HMW
LayerCount: 2
Fore
SplineSet
227 680 m 256
 267 680 297 712 297 804 c 258
 297 839 l 257
 327 789 l 257
 327 657 290 605 202 605 c 256
 84 605 62 685 62 822 c 258
 62 1195 l 258
 62 1334 86 1417 222 1417 c 256
 390 1417 390 1315 390 1135 c 258
 390 278 l 258
 390 78 365 -18 227 -18 c 256
 89 -18 70 77 70 209 c 258
 70 444 l 2
 70 448 71 449 75 449 c 2
 150 449 l 2
 154 449 155 448 155 444 c 2
 155 209 l 258
 155 128 157 58 222 58 c 256
 286 58 297 121 297 281 c 258
 297 1188 l 258
 297 1283 292 1341 228 1341 c 256
 158 1341 158 1281 158 1191 c 258
 158 822 l 258
 158 730 167 680 227 680 c 256
EndSplineSet
EndChar

StartChar: A
Encoding: 65 65 12
Width: 440
VWidth: 960
Flags: HMW
AnchorPoint: "ogonek" 365 0 basechar 0
AnchorPoint: "bottom" 212 0 basechar 0
AnchorPoint: "top" 212 1400 basechar 0
LayerCount: 2
Fore
SplineSet
105 495 m 261
 320 495 l 261
 320 420 l 261
 105 420 l 261
 105 495 l 261
207 1273 m 261
 107 5 l 262
 106 2 104 0 100 0 c 262
 25 0 l 262
 21 0 21 2 22 5 c 262
 151 1395 l 262
 152 1398 154 1400 158 1400 c 262
 269 1400 l 262
 273 1400 274 1398 275 1395 c 262
 418 5 l 262
 419 2 419 0 415 0 c 262
 325 0 l 262
 321 0 319 1 318 5 c 262
 207 1273 l 261
EndSplineSet
EndChar

StartChar: B
Encoding: 66 66 13
Width: 470
VWidth: 960
Flags: HMW
AnchorPoint: "top" 242 1400 basechar 0
AnchorPoint: "bottom" 242 0 basechar 0
LayerCount: 2
Back
SplineSet
280 770 m 261
 305 770 l 262
 328 770 338 794 338 869 c 262
 338 1126 l 262
 338 1201 333 1225 305 1225 c 262
 280 1225 l 261
 280 770 l 261
335 725 m 261
 463 725 592 656 592 461 c 262
 592 294 l 262
 592 84 503 -1.93494194265e-14 345 0 c 262
 40 0 l 262
 36 0 35 1 35 5 c 262
 35 1395 l 262
 35 1399 36 1400 40 1400 c 262
 335 1400 l 262
 493 1400 568 1307 568 1112 c 262
 568 959 l 262
 568 764 453 700 325 700 c 261
 335 725 l 261
310 645 m 262
 280 645 l 261
 280 175 l 261
 310 175 l 262
 338 175 342 203 342 278 c 262
 342 541 l 262
 342 616 338 645 310 645 c 262
EndSplineSet
Fore
SplineSet
180 745 m 257
 235 745 l 258
 283 745 307 802 307 942 c 258
 307 1134 l 258
 307 1274 283 1325 235 1325 c 258
 180 1325 l 257
 180 745 l 257
250 725 m 257
 338 725 428 676 428 481 c 258
 428 244 l 258
 428 44 363 0 250 0 c 258
 90 0 l 258
 86 0 85 1 85 5 c 258
 85 1395 l 258
 85 1399 86 1400 90 1400 c 258
 240 1400 l 258
 353 1400 407 1347 407 1162 c 258
 407 939 l 258
 407 754 328 700 240 700 c 257
 250 725 l 257
240 670 m 258
 180 670 l 257
 180 75 l 257
 240 75 l 258
 313 75 328 126 328 271 c 258
 328 468 l 258
 328 623 314 670 240 670 c 258
EndSplineSet
EndChar

StartChar: C
Encoding: 67 67 14
Width: 492
VWidth: 960
Flags: HMW
AnchorPoint: "top" 252 1400 basechar 0
AnchorPoint: "bottom" 232 0 basechar 0
LayerCount: 2
Back
SplineSet
550 603 m 260
 549.4453125 526.143554688 549.606329967 366.677378693 547.736328125 294 c 4
 542.69921875 98.2333984375 454.616210938 -18 272 -18 c 260
 68 -18 25 109 25 349 c 262
 25 1042 l 262
 25 1272 68 1418 282 1418 c 260
 465.993164062 1418 533.122070312 1292.73339844 533.677734375 1074 c 4
 533.809570312 1022.16601562 534.536132812 926.009765625 535 866 c 260
 535.03125 862 534 862 530 862 c 262
 356 862 l 262
 352 862 350.015625 862 350 866 c 260
 349 1129 352 1218 312 1218 c 260
 277 1218 275 1161 275 1046 c 262
 275 314 l 262
 275 214 279 182 312 182 c 260
 349 182 355 262 355 603 c 260
 355 607 356 608 360 608 c 262
 545 608 l 262
 549 608 550.029296875 607 550 603 c 260
EndSplineSet
Fore
SplineSet
435 603 m 260
 435 521 433.67371582 438.013201293 433 337 c 4
 431.385913235 94.9928118139 379 -18 233 -18 c 260
 65 -18 50 129 50 359 c 262
 50 1042 l 262
 50 1292 95 1418 238 1418 c 260
 383 1418 426.55078125 1293.01367188 429 1049 c 4
 429.58203125 990.986328125 430 924 430 866 c 260
 430 862 429 862 425 862 c 262
 350 862 l 262
 346 862 345.010742188 862 345 866 c 260
 344 1229 325 1338 247 1338 c 260
 169 1338 150 1241 150 1046 c 262
 150 354 l 262
 150 179 157 62 237 62 c 260
 318 62 349 127 350 603 c 260
 350.008403343 606.999991173 351 608 355 608 c 262
 430 608 l 262
 434 608 435 607 435 603 c 260
EndSplineSet
EndChar

StartChar: D
Encoding: 68 68 15
Width: 490
VWidth: 960
Flags: HMW
AnchorPoint: "top" 227 1400 basechar 0
AnchorPoint: "bottom" 212 0 basechar 0
LayerCount: 2
Fore
SplineSet
222 0 m 262
 90 0 l 262
 86 0 85 1 85 5 c 262
 85 1395 l 262
 85 1399 86 1400 90 1400 c 262
 222 1400 l 262
 394 1400 440 1275 440 1022 c 262
 440 369 l 262
 440 116 414 -2.35132185436e-14 222 0 c 262
222 75 m 262
 314 75 340 155 340 364 c 262
 340 1026 l 262
 340 1235 314 1325 222 1325 c 262
 180 1325 l 261
 180 75 l 261
 222 75 l 262
EndSplineSet
EndChar

StartChar: E
Encoding: 69 69 16
Width: 440
VWidth: 960
Flags: HMW
AnchorPoint: "ogonek" 350 0 basechar 0
AnchorPoint: "top" 242 1400 basechar 0
AnchorPoint: "bottom" 242 0 basechar 0
LayerCount: 2
Back
SplineSet
280 770 m 261
 365 770 l 262
 369 770 370 769 370 765 c 262
 370 650 l 262
 370 646 369 645 365 645 c 262
 280 645 l 261
 280 175 l 261
 435 175 l 262
 439 175 440 174 440 170 c 262
 440 5 l 262
 440 1 439 0 435 0 c 262
 40 0 l 262
 36 0 35 1 35 5 c 262
 35 1395 l 262
 35 1399 36 1400 40 1400 c 262
 425 1400 l 262
 429 1400 430 1399 430 1395 c 262
 430 1230 l 262
 430 1226 429 1225 425 1225 c 262
 280 1225 l 261
 280 770 l 261
EndSplineSet
Fore
SplineSet
180 745 m 257
 300 745 l 258
 304 745 305 744 305 740 c 258
 305 675 l 258
 305 671 304 670 300 670 c 258
 180 670 l 257
 180 75 l 257
 385 75 l 258
 389 75 390 74 390 70 c 258
 390 5 l 258
 390 1 389 0 385 0 c 258
 90 0 l 258
 86 0 85 1 85 5 c 258
 85 1395 l 258
 85 1399 86 1400 90 1400 c 258
 375 1400 l 258
 379 1400 380 1399 380 1395 c 258
 380 1330 l 258
 380 1326 379 1325 375 1325 c 258
 180 1325 l 257
 180 745 l 257
EndSplineSet
EndChar

StartChar: F
Encoding: 70 70 17
Width: 390
VWidth: 960
Flags: HMW
AnchorPoint: "top" 222 1400 basechar 0
AnchorPoint: "bottom" 222 0 basechar 0
LayerCount: 2
Fore
SplineSet
180 745 m 257
 305 745 l 258
 309 745 310 744 310 740 c 258
 310 675 l 258
 310 671 309 670 305 670 c 258
 180 670 l 257
 180 5 l 258
 180 1 179 0 175 0 c 258
 90 0 l 258
 86 0 85 1 85 5 c 258
 85 1395 l 262
 85 1399 86 1400 90 1400 c 262
 350 1400 l 262
 354 1400 355 1399 355 1395 c 262
 355 1330 l 262
 355 1326 354 1325 350 1325 c 262
 180 1325 l 261
 180 745 l 257
EndSplineSet
EndChar

StartChar: G
Encoding: 71 71 18
Width: 492
VWidth: 960
Flags: HMW
AnchorPoint: "top" 247 1400 basechar 0
AnchorPoint: "bottom" 248 0 basechar 0
LayerCount: 2
Back
SplineSet
310 582 m 6
 310 695 l 6
 310 699 311 700 315 700 c 6
 565 700 l 6
 569 700 570 699 570 695 c 6
 570 5 l 6
 570 1 569 0 565 0 c 6
 450 0 l 6
 446 0 445 1 444 5 c 6
 405 280 l 5
 460 630 l 5
 450 245 446 -18 232 -18 c 4
 64 -18 25 119 25 409 c 6
 25 992 l 6
 25 1282 68 1418 282 1418 c 4
 468.267578125 1418 530.130859375 1296.29394531 531.26171875 1094 c 4
 531.543945312 1043.47949219 534.032226562 927.952148438 535 867 c 4
 535.063476562 863.000976562 534 863 530 863 c 6
 335 863 l 6
 331 863 330.048828125 863 330 867 c 4
 326 1195 333 1228 300 1228 c 4
 277 1228 275 1181 275 996 c 6
 275 404 l 6
 275 224 278 172 316 172 c 4
 349 172 355 231 363 628 c 5
 424 578 l 5
 315 578 l 6
 312 578 310 578 310 582 c 6
EndSplineSet
Fore
SplineSet
275 618 m 2
 275 680 l 2
 275 684 276 685 280 685 c 2
 430 685 l 2
 434 685 435 684 435 680 c 2
 435 5 l 2
 435 1 434 0 430 0 c 2
 385 0 l 2
 381 0 380 1 379 5 c 2
 355 220 l 1
 375 640 l 1
 365 165 376 -18 218 -18 c 0
 64 -18 50 89 50 379 c 2
 50 1022 l 2
 50 1272 74 1418 238 1418 c 4
 386 1418 417.190256577 1310.00898988 418 1124 c 0
 418.365728349 1039.98726352 418 951 420 867 c 0
 420.095211112 863.001133305 419 863 415 863 c 2
 345 863 l 2
 341 863 340.040607044 863.000206122 340 867 c 0
 336 1261 330 1348 242 1348 c 4
 154 1348 150 1221 150 1026 c 2
 150 374 l 2
 150 139 164 52 238 52 c 0
 311 52 341 176 353 638 c 1
 359 612 l 1
 280 612 l 2
 276 612 275 614 275 618 c 2
EndSplineSet
EndChar

StartChar: H
Encoding: 72 72 19
Width: 490
VWidth: 960
Flags: HMW
AnchorPoint: "top" 227 1400 basechar 0
AnchorPoint: "bottom" 228 0 basechar 0
LayerCount: 2
Fore
SplineSet
325 1400 m 6
 410 1400 l 6
 414 1400 415 1399 415 1395 c 6
 415 5 l 2
 415 1 414 0 410 0 c 2
 325 0 l 2
 321 0 320 1 320 5 c 2
 320 670 l 257
 170 670 l 257
 170 5 l 2
 170 1 169 0 165 0 c 2
 80 0 l 2
 76 0 75 1 75 5 c 2
 75 1395 l 22
 75 1399 76 1400 80 1400 c 14
 165 1400 l 22
 169 1400 170 1399 170 1395 c 14
 170 745 l 257
 320 745 l 257
 320 1395 l 6
 320 1399 321 1400 325 1400 c 6
EndSplineSet
EndChar

StartChar: I
Encoding: 73 73 20
Width: 275
VWidth: 960
Flags: HMW
AnchorPoint: "ogonek" 140 0 basechar 0
AnchorPoint: "top" 140 1400 basechar 0
AnchorPoint: "bottom" 140 0 basechar 0
LayerCount: 2
Fore
SplineSet
95 1400 m 10
 180 1400 l 18
 184 1400 185 1399 185 1395 c 10
 185 5 l 18
 185 1 184 0 180 0 c 10
 95 0 l 18
 91 0 90 1 90 5 c 10
 90 1395 l 18
 90 1399 91 1400 95 1400 c 10
EndSplineSet
EndChar

StartChar: J
Encoding: 74 74 21
Width: 392
VWidth: 960
Flags: HMW
AnchorPoint: "top" 254 1400 basechar 0
AnchorPoint: "bottom" 155 0 basechar 0
LayerCount: 2
Fore
SplineSet
206 1400 m 2
 296 1400 l 2
 300 1400 302 1399 302 1395 c 2
 302 269 l 258
 302 56 272 -18 154 -18 c 256
 51 -18 26 57 26 239 c 258
 26 657 l 2
 26 661 28 663 32 663 c 2
 106 663 l 2
 110 663 112 661 112 657 c 2
 112 244 l 258
 112 88 123 62 155 62 c 260
 192 62 202 84 202 254 c 258
 202 1395 l 2
 202 1399 202 1400 206 1400 c 2
EndSplineSet
EndChar

StartChar: K
Encoding: 75 75 22
Width: 440
VWidth: 960
Flags: HMW
AnchorPoint: "top" 212 1400 basechar 0
AnchorPoint: "bottom" 212 0 basechar 0
LayerCount: 2
Back
SplineSet
-120 1400 m 14
 115 1400 l 22
 119 1400 120 1399 120 1395 c 14
 120 5 l 22
 120 1 119 0 115 0 c 14
 -120 0 l 22
 -124 0 -125 1 -125 5 c 14
 -125 1395 l 22
 -125 1399 -124 1400 -120 1400 c 14
  Spiro
    -120 1400 [
    115 1400 ]
    118.072 1399.59 o
    119.593 1398.07 o
    120 1395 [
    120 5 ]
    119.593 1.92815 o
    118.072 0.406519 o
    115 0 [
    -120 0 ]
    -123.072 0.406519 o
    -124.594 1.92815 o
    -125 5 [
    -125 1395 ]
    -124.594 1398.07 o
    -123.072 1399.59 o
    0 0 z
  EndSpiro
120 785 m 5
 295 890 l 5
 506 5 l 6
 507.376953125 0 507.376953125 0 505 0 c 6
 235 0 l 6
 230.0390625 0 226.34765625 2.861328125 226 5 c 6
 120 785 l 5
280 1395 m 6
 281.2421875 1398.92285156 285.25 1400 290 1400 c 6
 492 1400 l 6
 494.995117188 1400 496.650390625 1399.13769531 495 1395 c 6
 246.41796875 720 l 5
 186.41796875 770 l 5
 110 450 l 5
 -5 505 l 5
 280 1395 l 6
EndSplineSet
Fore
SplineSet
80 1400 m 10
 165 1400 l 18
 169 1400 170 1399 170 1395 c 10
 170 5 l 18
 170 1 169 0 165 0 c 10
 80 0 l 18
 76 0 75 1 75 5 c 10
 75 1395 l 18
 75 1399 76 1400 80 1400 c 10
187 740 m 257
 255 815 l 257
 426 5 l 258
 429 1 429 0 425 0 c 2
 330 0 l 2
 326 0 324 1 321 5 c 258
 187 740 l 257
340 1395 m 262
 343 1397 345 1400 350 1400 c 6
 417 1400 l 2
 423 1400 424 1399 420 1395 c 258
 222 651 l 1
 210 679 l 1
 153 465 l 257
 120 520 l 257
 340 1395 l 262
EndSplineSet
EndChar

StartChar: L
Encoding: 76 76 23
Width: 333
VWidth: 960
Flags: HMW
AnchorPoint: "top" 132 1400 basechar 0
AnchorPoint: "bottom" 212 0 basechar 0
LayerCount: 2
Fore
SplineSet
80 1400 m 6
 165 1400 l 6
 169 1400 170 1399 170 1395 c 6
 170 75 l 281
 295 75 l 2
 299 75 300 74 300 70 c 2
 300 5 l 2
 300 1 299 0 295 0 c 2
 80 0 l 2
 76 0 75 1 75 5 c 2
 75 1395 l 6
 75 1399 76 1400 80 1400 c 6
EndSplineSet
EndChar

StartChar: M
Encoding: 77 77 24
Width: 600
VWidth: 960
Flags: HMW
AnchorPoint: "top" 302 1400 basechar 0
AnchorPoint: "bottom" 302 0 basechar 0
LayerCount: 2
Fore
SplineSet
150 1140 m 257
 150 5 l 2
 150 1 149 0 145 0 c 2
 80 0 l 2
 76 0 75 1 75 5 c 2
 75 1395 l 2
 75 1399 76 1400 80 1400 c 2
 194 1400 l 6
 198 1400 200 1399 201 1395 c 6
 304 360 l 261
 408 1395 l 6
 409 1399 411 1400 415 1400 c 6
 520 1400 l 2
 524 1400 525 1399 525 1395 c 2
 525 5 l 2
 525 1 524 0 520 0 c 2
 445 0 l 2
 441 0 440 1 440 5 c 2
 440 1154 l 257
 322 5 l 2
 321 1 319 0 315 0 c 2
 285 0 l 2
 281 0 279 1 278 5 c 2
 150 1140 l 257
EndSplineSet
EndChar

StartChar: N
Encoding: 78 78 25
Width: 490
VWidth: 960
Flags: HMW
AnchorPoint: "top" 247 1400 basechar 0
AnchorPoint: "bottom" 242 0 basechar 0
LayerCount: 2
Fore
SplineSet
335 1400 m 6
 410 1400 l 6
 414 1400 415 1399 415 1395 c 6
 415 5 l 6
 415 1 414 0 410 0 c 6
 365 0 l 6
 361 0 359 1 356 5 c 6
 160 1115 l 261
 160 5 l 6
 160 1 159 0 155 0 c 6
 80 0 l 6
 76 0 75 1 75 5 c 6
 75 1395 l 6
 75 1399 76 1400 80 1400 c 6
 175 1400 l 6
 179 1400 181 1399 184 1395 c 6
 330 534 l 261
 330 1395 l 6
 330 1399 331 1400 335 1400 c 6
EndSplineSet
EndChar

StartChar: O
Encoding: 79 79 26
Width: 485
VWidth: 960
Flags: HMW
AnchorPoint: "top" 242 1400 basechar 0
AnchorPoint: "bottom" 242 0 basechar 0
LayerCount: 2
Fore
SplineSet
50 309 m 258
 50 1092 l 258
 50 1329.00230924 102.415817869 1418 241.958537584 1418 c 256
 381.962382546 1418 435 1328.41314358 435 1092 c 258
 435 309 l 258
 435 72.2401925011 381.738968952 -18 241.958928508 -18 c 256
 102.637758794 -18 50 71.6486829452 50 309 c 258
150 304 m 258
 150 105.730283197 176.917404977 52 242.035972258 52 c 256
 307.500296384 52 335 106.515325926 335 304 c 258
 335 1096 l 258
 335 1293.48467407 307.500296384 1348 242.035972258 1348 c 256
 176.917404977 1348 150 1294.2697168 150 1096 c 258
 150 304 l 258
EndSplineSet
EndChar

StartChar: P
Encoding: 80 80 27
Width: 440
VWidth: 960
Flags: HMW
AnchorPoint: "top" 212 1400 basechar 0
AnchorPoint: "bottom" 138 0 basechar 0
LayerCount: 2
Fore
SplineSet
180 1325 m 261
 180 695 l 261
 205 695 l 262
 265 695 288 739 288 859 c 262
 288 1161 l 262
 288 1281 265 1325 205 1325 c 262
 180 1325 l 261
195 1400 m 262
 318 1400 388 1351 388 1146 c 262
 388 874 l 262
 388 669 314 620 190 620 c 262
 180 620 l 261
 180 5 l 6
 180 1 179 0 175 0 c 6
 90 0 l 6
 86 0 85 1 85 5 c 6
 85 1395 l 6
 85 1399 86 1400 90 1400 c 6
 195 1400 l 262
EndSplineSet
EndChar

StartChar: Q
Encoding: 81 81 28
Width: 600
VWidth: 960
Flags: HMW
AnchorPoint: "top" 272 1400 basechar 0
AnchorPoint: "bottom" 272 0 basechar 0
LayerCount: 2
Fore
SplineSet
562 65 m 6
 562 5 l 2
 562 1 563 0 557 -2 c 0
 462 -38 395 46 395 179 c 257
 450 294 l 257
 450 119 420 -18 262 -18 c 256
 94 -18 70 119 70 294 c 258
 70 1106 l 258
 70 1281 98 1418 272 1418 c 256
 446 1418 475 1281 475 1106 c 258
 475 174 l 262
 475 102 500 62 556 70 c 4
 561.939696962 70.8485281374 562 68 562 65 c 6
375 279 m 258
 375 1122 l 258
 375 1257 360 1348 272 1348 c 256
 184 1348 170 1257 170 1122 c 258
 170 279 l 258
 170 144 184 52 272 52 c 256
 360 52 375 144 375 279 c 258
EndSplineSet
EndChar

StartChar: R
Encoding: 82 82 29
Width: 490
VWidth: 960
Flags: HMW
AnchorPoint: "top" 237 1400 basechar 0
AnchorPoint: "bottom" 238 0 basechar 0
LayerCount: 2
Back
SplineSet
280 1225 m 261
 280 720 l 261
 300 720 l 262
 334 720 338 751 338 796 c 262
 338 1148 l 262
 338 1188 334 1225 300 1225 c 262
 280 1225 l 261
310 1400 m 262
 543 1400 588 1296 588 1141 c 262
 588 879 l 262
 588 709 474 640 310 640 c 261
 310 670 l 261
 488 670 592 656 592 466 c 262
 592 164 l 262
 592 107 598 64 621 30 c 4
 625 24 625 23 625 20 c 6
 625 5 l 6
 625 1 624 0 620 0 c 6
 382 0 l 6
 378 0 374.8671875 1.904296875 372 6 c 4
 344 46 338 90 338 164 c 262
 338 536 l 262
 338 576 323 595 295 595 c 262
 280 595 l 261
 280 5 l 6
 280 1 279 0 275 0 c 6
 40 0 l 6
 36 0 35 1 35 5 c 6
 35 1395 l 6
 35 1399 36 1400 40 1400 c 6
 310 1400 l 262
EndSplineSet
Fore
SplineSet
180 1325 m 261
 180 745 l 261
 220 745 l 262
 284 745 308 789 308 909 c 262
 308 1161 l 262
 308 1281 284 1325 220 1325 c 262
 180 1325 l 261
220 1400 m 262
 343 1400 408 1331 408 1151 c 262
 408 929 l 262
 408 749 338 690 220 690 c 261
 220 720 l 261
 338 720 402 681 402 561 c 262
 402 234 l 262
 402 77 418 64 441 30 c 4
 445 24 445 23 445 20 c 6
 445 5 l 6
 445 1 444 0 440 0 c 6
 350 0 l 6
 346 0 345 0 342 4 c 4
 314 54 308 90 308 234 c 262
 308 576 l 262
 308 636 294 670 220 670 c 262
 180 670 l 261
 180 5 l 6
 180 1 179 0 175 0 c 6
 90 0 l 6
 86 0 85 1 85 5 c 6
 85 1395 l 6
 85 1399 86 1400 90 1400 c 6
 220 1400 l 262
EndSplineSet
EndChar

StartChar: S
Encoding: 83 83 30
Width: 440
VWidth: 960
Flags: HMW
AnchorPoint: "top" 202 1400 basechar 0
AnchorPoint: "bottom" 212 0 basechar 0
LayerCount: 2
Back
SplineSet
55 524 m 6
 130 524 l 6
 131 524 135 524 135 520 c 4
 135 434 136 339 136 258 c 4
 136 86.9950496263 166 58 215 58 c 260
 259 58 308 104 308 330 c 260
 308 498 254.868164062 607.751953125 203 683 c 260
 133.606445312 783.673828125 70 892 70 1126 c 260
 70 1366 129 1418 227 1418 c 260
 319 1418 375 1368 375 1150 c 6
 375 906 l 6
 375 902 373 902 370 902 c 6
 295 902 l 6
 292 902 290 903 290 906 c 4
 290 988 290 1062 290 1146 c 4
 290 1324 266 1348 228 1348 c 260
 190 1348 160 1311 160 1126 c 260
 160 940 220.083007812 820.859375 265 760 c 260
 333.899414062 666.647460938 400 553 400 334 c 260
 400 61 329 -18 215 -18 c 260
 105 -18 50 45 50 234 c 6
 50 520 l 6
 50 524 54 524 55 524 c 6
EndSplineSet
Fore
SplineSet
55 524 m 2
 130 524 l 2
 131 524 135 524 135 520 c 0
 135 434 136 339 136 258 c 0
 136 86.9950496263 166 58 215 58 c 256
 259 58 308 104 308 290 c 256
 308 434.865234375 238.404296875 575.020507812 186.146484375 691.580078125 c 4
 121.83984375 835.015625 70 970.876953125 70 1166 c 256
 70 1366 129 1418 227 1418 c 256
 319 1418 375 1368 375 1150 c 2
 375 906 l 2
 375 902 373 902 370 902 c 2
 295 902 l 2
 292 902 290 903 290 906 c 0
 290 988 290 1062 290 1146 c 0
 290 1324 266 1348 228 1348 c 256
 190 1348 160 1311 160 1166 c 256
 160 1005.78027344 203.602539062 879.724609375 267.500976562 742.595703125 c 4
 323.887695312 621.583984375 400 471.6171875 400 294 c 256
 400 61 329 -18 215 -18 c 256
 105 -18 50 45 50 234 c 2
 50 520 l 2
 50 524 54 524 55 524 c 2
EndSplineSet
EndChar

StartChar: T
Encoding: 84 84 31
Width: 385
VWidth: 960
Flags: HMW
AnchorPoint: "top" 192 1400 basechar 0
AnchorPoint: "bottom" 162 0 basechar 0
LayerCount: 2
Fore
SplineSet
25 1400 m 2
 360 1400 l 2
 364 1400 365 1399 365 1395 c 2
 365 1330 l 2
 365 1326 364 1325 360 1325 c 2
 240 1325 l 257
 240 5 l 2
 240 1 239 0 235 0 c 2
 150 0 l 2
 146 0 145 1 145 5 c 2
 145 1325 l 257
 25 1325 l 2
 21 1325 20 1326 20 1330 c 2
 20 1395 l 2
 20 1399 21 1400 25 1400 c 2
EndSplineSet
EndChar

StartChar: U
Encoding: 85 85 32
Width: 494
VWidth: 960
Flags: HMW
AnchorPoint: "ogonek" 300 0 basechar 0
AnchorPoint: "top" 252 1400 basechar 0
AnchorPoint: "bottom" 252 0 basechar 0
LayerCount: 2
Fore
SplineSet
327 214 m 258
 327 1395 l 2
 327 1399 328 1400 332 1400 c 2
 407 1400 l 2
 411 1400 412 1399 412 1395 c 2
 412 239 l 258
 412 79 401 -18 257 -18 c 256
 133 -18 82 48 82 244 c 258
 82 1395 l 2
 82 1399 83 1400 87 1400 c 2
 177 1400 l 2
 181 1400 182 1399 182 1395 c 2
 182 224 l 258
 182 94 204 52 258 52 c 256
 316 52 327 104 327 214 c 258
EndSplineSet
EndChar

StartChar: V
Encoding: 86 86 33
Width: 440
VWidth: 960
Flags: HMW
AnchorPoint: "top" 227 1400 basechar 0
AnchorPoint: "bottom" 228 0 basechar 0
LayerCount: 2
Fore
SplineSet
228 127 m 257
 328 1395 l 258
 329 1398 331 1400 335 1400 c 258
 410 1400 l 258
 414 1400 414 1398 413 1395 c 258
 284 5 l 258
 283 2 281 0 277 0 c 258
 166 0 l 258
 162 0 161 2 160 5 c 258
 17 1395 l 258
 16 1398 16 1400 20 1400 c 258
 110 1400 l 258
 114 1400 116 1399 117 1395 c 258
 228 127 l 257
EndSplineSet
EndChar

StartChar: W
Encoding: 87 87 34
Width: 700
VWidth: 960
Flags: HMW
AnchorPoint: "top" 362 1400 basechar 0
AnchorPoint: "bottom" 362 0 basechar 0
LayerCount: 2
Fore
SplineSet
225 135 m 257
 324 1395 l 2
 325 1398 326 1400 330 1400 c 2
 410 1400 l 6
 414 1400 415 1398 416 1395 c 6
 508 127 l 257
 608 1395 l 2
 609 1398 611 1400 615 1400 c 2
 685 1400 l 2
 689 1400 689 1398 688 1395 c 2
 564 5 l 2
 563 1 562 0 558 0 c 2
 438 0 l 2
 435 0 432 1 431 5 c 2
 357 1075 l 257
 274 5 l 2
 273 1 272 0 268 0 c 2
 150 0 l 2
 146 0 145 1 144 5 c 2
 24 1395 l 2
 23 1398 24 1400 28 1400 c 2
 115 1400 l 2
 119 1400 121 1398 122 1395 c 2
 225 135 l 257
EndSplineSet
EndChar

StartChar: X
Encoding: 88 88 35
Width: 440
VWidth: 960
Flags: HMW
AnchorPoint: "top" 217 1400 basechar 0
AnchorPoint: "bottom" 218 0 basechar 0
LayerCount: 2
Fore
SplineSet
308 1400 m 2
 395 1400 l 2
 399 1400 399 1399 396 1395 c 2
 271 713 l 257
 412 5 l 2
 415 1 414 0 410 0 c 2
 310 0 l 2
 306 0 304 1 302 5 c 2
 220 626 l 261
 126 5 l 2
 123 1 122 0 118 0 c 2
 30 0 l 2
 26 0 25 1 28 5 c 2
 174 695 l 261
 44 1395 l 2
 41 1399 41 1400 45 1400 c 2
 145 1400 l 2
 149 1400 152 1399 154 1395 c 2
 225 781 l 257
 299 1395 l 2
 302 1399 304 1400 308 1400 c 2
EndSplineSet
EndChar

StartChar: Y
Encoding: 89 89 36
Width: 440
VWidth: 960
Flags: HMW
AnchorPoint: "top" 222 1400 basechar 0
AnchorPoint: "bottom" 222 0 basechar 0
LayerCount: 2
Fore
SplineSet
338 1400 m 6
 415 1400 l 6
 419 1400 419 1399 417 1395 c 6
 268 625 l 257
 268 5 l 2
 268 1 266 0 262 0 c 2
 178 0 l 2
 174 0 172 1 172 5 c 2
 172 625 l 257
 23 1395 l 6
 21 1399 21 1400 25 1400 c 6
 118 1400 l 6
 122 1400 124 1399 126 1395 c 6
 228 705 l 257
 330 1395 l 6
 332 1399 334 1400 338 1400 c 6
EndSplineSet
EndChar

StartChar: Z
Encoding: 90 90 37
Width: 385
VWidth: 960
Flags: HMW
AnchorPoint: "top" 207 1400 basechar 0
AnchorPoint: "bottom" 208 0 basechar 0
LayerCount: 2
Fore
SplineSet
-12 5 m 2
 258 1325 l 257
 50 1325 l 2
 46 1325 45 1326 45 1330 c 2
 45 1395 l 2
 45 1399 46 1400 50 1400 c 2
 365 1400 l 2
 369 1400 369 1399 366 1395 c 2
 97 75 l 257
 345 75 l 2
 349 75 350 74 350 70 c 2
 350 5 l 2
 350 1 349 0 345 0 c 2
 -10 0 l 2
 -14 0 -15 1 -12 5 c 2
EndSplineSet
EndChar

StartChar: a
Encoding: 97 97 38
Width: 354
VWidth: 960
Flags: HMW
AnchorPoint: "ogonek" 300 0 basechar 0
AnchorPoint: "top" 187 1050 basechar 0
AnchorPoint: "bottom" 183 0 basechar 0
LayerCount: 2
Back
SplineSet
-14.919921875 270 m 4
 -14.919921875 176.396484375 7.26171875 95 85.080078125 95 c 260
 169.080078125 95 203.080078125 222 203.080078125 398 c 261
 263.080078125 328 l 261
 263.080078125 125 212.080078125 -35 31.080078125 -35 c 260
 -118.18359375 -35 -204.919921875 45.109375 -204.919921875 260 c 4
 -204.919921875 431.0078125 -138.416015625 539.873046875 84.080078125 615 c 260
 166.139648438 642.708007812 203.080078125 665 203.080078125 748 c 261
 243.080078125 648 l 261
 243.080078125 585 170.71875 544.529296875 111.080078125 500 c 260
 26.501953125 436.849609375 -14.919921875 380.081054688 -14.919921875 270 c 4
203.080078125 208 m 262
 203.080078125 788 l 262
 203.080078125 888 199.080078125 955 124.080078125 955 c 260
 25.333984375 955 38.4033203125 858.200195312 33.2158203125 722 c 4
 32.9873046875 715.998046875 29.943359375 713 23.080078125 713 c 6
 -126.919921875 713 l 6
 -133.986328125 713 -136.163085938 715.930664062 -136.06640625 722 c 4
 -132.390625 954.799804688 -92.5380859375 1085 133.080078125 1085 c 260
 343.080078125 1085 383.080078125 971 383.080078125 733 c 262
 383.080078125 208 l 262
 383.080078125 113.612304688 404.552734375 48.6728515625 440.498046875 7 c 4
 444.759765625 2.05859375 443.690429688 0 437.080078125 0 c 6
 273.080078125 0 l 6
 265.763671875 0 260.826171875 2.0537109375 257.416992188 6 c 4
 220.477539062 48.76171875 203.080078125 112.8359375 203.080078125 208 c 262
EndSplineSet
Fore
SplineSet
115 236 m 4
 115 99 135 68 165 68 c 260
 197 68 224 161 224 269 c 261
 244 224 l 261
 244 92 213 -18 133 -18 c 260
 61 -18 20 43 20 240 c 4
 20 456 74 520 155 608 c 260
 184.340820312 639.876953125 224 702 224 744 c 261
 244 674 l 261
 244 642 198.525390625 571.02734375 178 540 c 260
 135 475 115 411 115 236 c 4
224 104 m 262
 224 869 l 262
 224 949 223 1003 185 1003 c 260
 146 1003 132 926 129 718 c 4
 128.95703125 715 127 713 124 713 c 6
 49 713 l 6
 45 713 43.9765625 715 44 718 c 4
 46 974 85 1067 198 1067 c 260
 293 1067 314 990 314 841 c 262
 314 104 l 262
 314 57 325 25 343 4 c 4
 345 2 344 0 341 0 c 6
 259 0 l 6
 255 0 253 1 251 3 c 4
 233 24 224 56 224 104 c 262
EndSplineSet
EndChar

StartChar: b
Encoding: 98 98 39
Width: 420
VWidth: 960
Flags: HMW
LayerCount: 2
Fore
SplineSet
60 1450 m 6
 145 1450 l 6
 149 1450 150 1449 150 1445 c 6
 150 88 l 261
 83 -12 l 6
 80 -16 79 -18 75 -18 c 6
 60 -18 l 6
 56 -18 55 -16 55 -12 c 6
 55 1445 l 6
 55 1449 56 1450 60 1450 c 6
125 851 m 261
 125 996 163 1067 247 1067 c 260
 335 1067 375 997 375 827 c 262
 375 224 l 262
 375 64 325 -18 237 -18 c 260
 149 -18 110 53 110 178 c 261
 150 188 l 261
 150 83 168 52 212 52 c 260
 260 52 280 103 280 208 c 262
 280 841 l 262
 280 946 260 997 212 997 c 260
 158 997 150 956 150 851 c 261
 125 851 l 261
EndSplineSet
EndChar

StartChar: c
Encoding: 99 99 40
Width: 358
VWidth: 960
Flags: HMW
AnchorPoint: "bottom" 198 0 basechar 0
AnchorPoint: "top" 195 1050 basechar 0
LayerCount: 2
Back
SplineSet
383 380 m 4
 380 336 373.71875 295.522460938 372 256 c 4
 364 72 311 -35 108 -35 c 260
 -172 -35 -207 151 -207 448 c 262
 -207 603 l 262
 -207 900 -177 1085 103 1085 c 260
 309 1085 359 988 365 800 c 4
 366.29296875 759.499023438 371 718 373 671 c 4
 373 666 370 663 363 663 c 6
 223 663 l 6
 216 663 213 666 213 670 c 4
 210 718 202.750976562 757.491210938 199 795 c 4
 189 895 184 945 98 945 c 260
 -6 945 -17 833 -17 633 c 262
 -17 418 l 262
 -17 225 4 105 113 105 c 260
 197 105 208 161 215 255 c 4
 217.96484375 294.814453125 220 334 223 381 c 4
 223 385 226 388 233 388 c 6
 373 388 l 6
 380 388 383 385 383 380 c 4
EndSplineSet
Fore
SplineSet
333 384 m 0
 333 312 331.6328125 267.98828125 330 198 c 0
 326.684570312 55.9228515625 290 -18 188 -18 c 256
 78 -18 40 46 40 224 c 258
 40 827 l 258
 40 985 71 1067 191 1067 c 256
 294 1067 325.65625 994.038085938 327 855 c 0
 327.676757812 784.99609375 329 741 329 667 c 0
 329 665 329 663 325 663 c 2
 265 663 l 2
 261 663 259 664 259 666 c 0
 259 740 256.002929688 783.978515625 255 853 c 0
 253.543945312 953.228515625 236 997 193 997 c 256
 148 997 136 951 136 841 c 258
 136 209 l 258
 136 103 153 62 199 62 c 260
 241 62 259.326171875 100.834960938 262 198 c 0
 263.92578125 267.981445312 264 310 266 384 c 0
 266.053710938 385.999023438 266 388 270 388 c 2
 327 388 l 2
 331 388 333 386 333 384 c 0
EndSplineSet
EndChar

StartChar: d
Encoding: 100 100 41
Width: 420
VWidth: 960
Flags: HMW
LayerCount: 2
Fore
SplineSet
295 198 m 261
 295 53 255 -18 177 -18 c 256
 93 -18 45 54 45 224 c 258
 45 827 l 258
 45 997 93 1067 177 1067 c 256
 255 1067 295 996 295 851 c 257
 269 851 l 257
 269 956 265 997 207 997 c 256
 153 997 139 946 139 841 c 258
 139 208 l 258
 139 103 153 52 207 52 c 256
 265 52 269 93 269 198 c 261
 295 198 l 261
365 1445 m 2
 365 5 l 2
 365 1 363 0 359 0 c 2
 282 0 l 2
 278 0 277 1 277 5 c 2
 277 110 l 257
 269 126 l 257
 269 1445 l 2
 269 1449 271 1450 275 1450 c 2
 359 1450 l 2
 363 1450 365 1449 365 1445 c 2
EndSplineSet
EndChar

StartChar: e
Encoding: 101 101 42
Width: 384
VWidth: 960
Flags: HMW
AnchorPoint: "ogonek" 222 30 basechar 0
AnchorPoint: "bottom" 194 0 basechar 0
AnchorPoint: "top" 195 1050 basechar 0
LayerCount: 2
Back
SplineSet
537 414 m 4
 537 337.607421875 535.721679688 299.772460938 534.424804688 239 c 4
 530.571289062 58.42578125 426.794921875 -18 275 -18 c 260
 91 -18 7 69 7 274 c 262
 7 777 l 262
 7 977 87 1067 275 1067 c 260
 459 1067 533.336914062 979.307617188 537 767 c 260
 538.985351562 651.927734375 541 607 541 485 c 4
 541 483 541 481 537 481 c 6
 145 481 l 261
 145 565 l 261
 299 565 l 261
 297 906 299 927 275 927 c 260
 257 927 253 901 253 841 c 262
 253 209 l 262
 253 134 258 122 274 122 c 260
 293 122 301 185 302 414 c 4
 302.008789062 416 304 418 307 418 c 6
 533 418 l 6
 537 418 537 417.162109375 537 414 c 4
EndSplineSet
Fore
SplineSet
344 410 m 4
 342 334 338.28515625 269.133789062 336 206 c 4
 329.6953125 31.798828125 278 -18 188 -18 c 260
 54 -18 40 69 40 224 c 262
 40 827 l 262
 40 977 69 1067 197 1067 c 260
 321 1067 342.206054688 970.015625 345 862 c 260
 348.516601562 726.041992188 349 638 349 496 c 4
 349 494 348 492 344 492 c 6
 102 492 l 261
 102 552 l 261
 257 552 l 261
 255 936 255 1003 193 1003 c 260
 144 1003 135 946 135 841 c 262
 135 209 l 262
 135 99 144 48 192 48 c 260
 245 48 253 108 259 412 c 4
 259.0390625 414 261 415 265 415 c 6
 340 415 l 6
 344 415 344.079101562 412.999023438 344 410 c 4
EndSplineSet
EndChar

StartChar: f
Encoding: 102 102 43
Width: 265
VWidth: 960
Flags: HMW
LayerCount: 2
Fore
SplineSet
220 980 m 2
 55 980 l 2
 51 980 50 981 50 985 c 2
 50 1045 l 2
 50 1049 51 1050 55 1050 c 2
 220 1050 l 2
 224 1050 225 1049 225 1045 c 2
 225 985 l 2
 225 981 224 980 220 980 c 2
85 1337 m 262
 85 1441 100 1478 219 1464 c 4
 224 1463 225 1462 225 1458 c 6
 225 1403 l 6
 225 1400 223 1397 217 1399 c 4
 184 1407 178 1390 178 1327 c 262
 178 5 l 6
 178 1 176 0 172 0 c 6
 90 0 l 6
 86 0 85 1 85 5 c 6
 85 1337 l 262
EndSplineSet
EndChar

StartChar: g
Encoding: 103 103 44
Width: 350
VWidth: 960
Flags: HMW
AnchorPoint: "top" 134.982 1075 basechar 0
LayerCount: 2
Back
SplineSet
453.017578125 1255 m 4
 446.017578125 1119 353.017578125 1030 183.017578125 1030 c 261
 169.017578125 1045 l 261
 199.017578125 1045 227.017578125 1071 243.017578125 1256 c 4
 243.276367188 1258.98925781 245.017578125 1260 249.017578125 1260 c 6
 449.017578125 1260 l 6
 453.017578125 1260 453.223632812 1258.99511719 453.017578125 1255 c 4
237.017578125 170 m 262
 377.017578125 170 449.017578125 100 449.017578125 -88 c 260
 449.017578125 -286 358.017578125 -360 173.017578125 -360 c 262
 95.017578125 -360 l 262
 -49.982421875 -360 -126.982421875 -296 -126.982421875 -168 c 260
 -126.982421875 -70 -39.982421875 15 105.017578125 15 c 261
 170.017578125 15 l 261
 130.017578125 5 103.017578125 -44 103.017578125 -132 c 260
 103.017578125 -226 120.017578125 -260 160.017578125 -260 c 262
 167.017578125 -260 l 262
 197.017578125 -260 219.017578125 -206 219.017578125 -118 c 260
 219.017578125 -34 203.017578125 0 163.017578125 0 c 262
 50.017578125 0 l 262
 -49.982421875 0 -115.982421875 68 -115.982421875 162 c 260
 -115.982421875 266 -18.982421875 333 101.017578125 333 c 261
 91.017578125 283 l 261
 61.017578125 283 39.017578125 262 39.017578125 228 c 260
 39.017578125 182 80.017578125 170 145.017578125 170 c 262
 237.017578125 170 l 262
203.017578125 494 m 262
 203.017578125 811 l 262
 203.017578125 912 200.017578125 943 179.017578125 943 c 260
 160.017578125 943 153.017578125 913 153.017578125 811 c 262
 153.017578125 494 l 262
 153.017578125 396 160.017578125 363 179.017578125 363 c 260
 200.017578125 363 203.017578125 392 203.017578125 494 c 262
423.017578125 574 m 262
 423.017578125 399 363.017578125 237 179.017578125 237 c 260
 -4.982421875 237 -66.982421875 399 -66.982421875 574 c 262
 -66.982421875 781 l 262
 -66.982421875 956 -4.982421875 1067 179.017578125 1067 c 260
 363.017578125 1067 423.017578125 956 423.017578125 781 c 262
 423.017578125 574 l 262
EndSplineSet
Fore
SplineSet
359.982421875 1255 m 0
 352.982421875 1049 245.982421875 1015 200.982421875 1015 c 257
 184.982421875 1035 l 257
 234.982421875 1035 264.982421875 1076 264.982421875 1256 c 0
 264.982421875 1259 267.982421875 1260 270.982421875 1260 c 2
 354.982421875 1260 l 2
 358.982421875 1260 360.118270269 1258.99782417 359.982421875 1255 c 0
234.982421875 70 m 258
 314.982421875 70 354.982421875 30 354.982421875 -118 c 256
 354.982421875 -312 278.982421875 -360 198.982421875 -360 c 258
 161.982421875 -360 l 258
 71.982421875 -360 4.982421875 -306 4.982421875 -148 c 256
 4.982421875 -10 71.982421875 45 151.982421875 45 c 257
 166.982421875 25 l 257
 121.982421875 25 84.982421875 -30 84.982421875 -118 c 256
 84.982421875 -236 116.982421875 -285 181.982421875 -285 c 258
 184.982421875 -285 l 258
 244.982421875 -285 274.982421875 -246 274.982421875 -118 c 256
 274.982421875 -20 259.982421875 0 219.982421875 0 c 258
 196.982421875 0 l 258
 121.982421875 0 65.982421875 40 65.982421875 128 c 260
 65.982421875 202 112.982421875 278 207.982421875 278 c 257
 197.982421875 252 l 257
 167.982421875 252 145.982421875 210 145.982421875 152 c 256
 145.982421875 91 171.982421875 70 216.982421875 70 c 258
 234.982421875 70 l 258
214.982421875 439 m 258
 214.982421875 867 l 258
 214.982421875 941 213.982421875 1003 177.982421875 1003 c 256
 133.982421875 1003 130.982421875 937 130.982421875 867 c 258
 130.982421875 439 l 258
 130.982421875 369 133.982421875 303 177.982421875 303 c 256
 213.982421875 303 214.982421875 365 214.982421875 439 c 258
304.982421875 454 m 258
 304.982421875 334 280.982421875 237 172.982421875 237 c 256
 64.982421875 237 40.982421875 334 40.982421875 454 c 258
 40.982421875 851 l 258
 40.982421875 971 64.982421875 1067 172.982421875 1067 c 256
 280.982421875 1067 304.982421875 971 304.982421875 851 c 258
 304.982421875 454 l 258
EndSplineSet
EndChar

StartChar: h
Encoding: 104 104 45
Width: 405
VWidth: 960
Flags: HMW
AnchorPoint: "bottom" 205 0 basechar 0
AnchorPoint: "top" 301 1050 basechar 0
LayerCount: 2
Fore
SplineSet
71 1450 m 2
 155 1450 l 2
 159 1450 161 1449 161 1445 c 2
 161 5 l 2
 161 1 158 0 155 0 c 2
 71 0 l 2
 67 0 65 1 65 5 c 2
 65 1445 l 2
 65 1449 67 1450 71 1450 c 2
145 877 m 257
 145 987 159 1067 243 1067 c 256
 317 1067 345 1007 345 907 c 258
 345 5 l 2
 345 1 345 0 341 0 c 2
 255 0 l 2
 251 0 251 1 251 5 c 2
 251 907 l 258
 251 967 242 1003 208 1003 c 256
 170 1003 161 942 161 837 c 257
 145 877 l 257
EndSplineSet
EndChar

StartChar: i
Encoding: 105 105 46
Width: 225
VWidth: 960
Flags: HMW
AnchorPoint: "bottom" 113 0 basechar 0
AnchorPoint: "ogonek" 113 0 basechar 0
LayerCount: 2
Back
SplineSet
226 1480 m 6
 226 1165 l 6
 226 1161 225 1160 221 1160 c 6
 76 1160 l 6
 72 1160 71 1161 71 1165 c 6
 71 1480 l 6
 71 1484 72 1485 76 1485 c 6
 221 1485 l 6
 225 1485 226 1484 226 1480 c 6
271 1045 m 6
 271 5 l 6
 271 1 270 0 266 0 c 6
 31 0 l 6
 27 0 26 1 26 5 c 6
 26 1045 l 6
 26 1049 27 1050 31 1050 c 6
 266 1050 l 6
 270 1050 271 1049 271 1045 c 6
EndSplineSet
Fore
SplineSet
150 1430 m 2
 150 1215 l 2
 150 1211 149 1210 145 1210 c 2
 80 1210 l 2
 76 1210 75 1211 75 1215 c 2
 75 1430 l 2
 75 1434 76 1435 80 1435 c 2
 145 1435 l 2
 149 1435 150 1434 150 1430 c 2
160 1045 m 6
 160 5 l 6
 160 1 159 0 155 0 c 6
 70 0 l 6
 66 0 65 1 65 5 c 6
 65 1045 l 6
 65 1049 66 1050 70 1050 c 6
 155 1050 l 6
 159 1050 160 1049 160 1045 c 6
  Spiro
    160 1045 [
    160 5 ]
    159.593 1.92815 o
    158.072 0.406519 o
    155 0 [
    70 0 ]
    66.9281 0.406519 o
    65.4065 1.92815 o
    65 5 [
    65 1045 ]
    65.4065 1048.07 o
    66.9281 1049.59 o
    70 1050 [
    155 1050 ]
    158.072 1049.59 o
    159.593 1048.07 o
    0 0 z
  EndSpiro
EndSplineSet
EndChar

StartChar: j
Encoding: 106 106 47
Width: 225
VWidth: 960
Flags: HMW
LayerCount: 2
Back
SplineSet
150 1430 m 6
 150 1215 l 6
 150 1211 149 1210 145 1210 c 6
 80 1210 l 6
 76 1210 75 1211 75 1215 c 6
 75 1430 l 6
 75 1434 76 1435 80 1435 c 6
 145 1435 l 6
 149 1435 150 1434 150 1430 c 6
EndSplineSet
Fore
SplineSet
150 1430 m 2
 150 1215 l 2
 150 1211 149 1210 145 1210 c 2
 80 1210 l 2
 76 1210 75 1211 75 1215 c 2
 75 1430 l 2
 75 1434 76 1435 80 1435 c 2
 145 1435 l 2
 149 1435 150 1434 150 1430 c 2
160 -49 m 262
 160 -153 159 -200 5 -176 c 4
 1.0478515625 -175.383789062 0 -174 0 -170 c 6
 0 -115 l 6
 0 -112 1.052734375 -110.354492188 5 -111 c 4
 60 -120 65 -103 65 -39 c 262
 65 1045 l 6
 65 1049 66 1050 70 1050 c 6
 155 1050 l 6
 159 1050 160 1049 160 1045 c 6
 160 -49 l 262
EndSplineSet
EndChar

StartChar: k
Encoding: 107 107 48
Width: 391
VWidth: 960
Flags: HMW
LayerCount: 2
Fore
SplineSet
70 1450 m 6
 155 1450 l 6
 159 1450 160 1449 160 1445 c 6
 160 5 l 6
 160 1 158 0 155 0 c 6
 70 0 l 6
 66 0 65 1 65 5 c 6
 65 1445 l 6
 65 1449 66 1450 70 1450 c 6
  Spiro
    70.0018 1450 [
    155.002 1450 ]
    158.074 1449.59 o
    159.595 1448.07 o
    160.002 1445 [
    160.002 5 ]
    159.373 1.92815 o
    157.629 0.406519 o
    155.002 0 [
    70.0018 0 ]
    66.9299 0.406519 o
    65.4083 1.92815 o
    65.0018 5 [
    65.0018 1445 ]
    65.4083 1448.07 o
    66.9299 1449.59 o
    0 0 z
  EndSpiro
125 416 m 261
 281 1045 l 6
 281.922851562 1049.01757812 285 1050 289 1050 c 6
 370 1050 l 6
 374 1050 377 1050 375 1045 c 6
 150 366 l 261
 125 416 l 261
204 596 m 5
 250 732 l 29
 392 5 l 30
 393.408203125 0.505859375 393.408203125 0.505859375 390 0 c 30
 300 0 l 30
 295.291015625 0.12109375 292.528320312 1.1328125 292 5 c 30
 204 596 l 5
EndSplineSet
EndChar

StartChar: l
Encoding: 108 108 49
Width: 225
VWidth: 960
Flags: HMW
LayerCount: 2
Fore
SplineSet
70 1450 m 6
 155 1450 l 6
 159 1450 160 1449 160 1445 c 6
 160 5 l 2
 160 1 158 0 155 0 c 2
 70 0 l 2
 66 0 65 1 65 5 c 2
 65 1445 l 6
 65 1449 66 1450 70 1450 c 6
EndSplineSet
EndChar

StartChar: m
Encoding: 109 109 50
Width: 530
VWidth: 960
Flags: HMW
LayerCount: 2
Fore
SplineSet
290 877 m 257
 290 987 308 1067 392 1067 c 256
 466 1067 480 1007 480 907 c 258
 480 5 l 2
 480 1 479 0 475 0 c 2
 390 0 l 2
 386 0 385 1 385 5 c 2
 385 907 l 258
 385 967 376 1003 352 1003 c 256
 328 1003 315 942 315 837 c 257
 290 877 l 257
60 1050 m 2
 140 1050 l 2
 144 1050 145 1049 145 1045 c 2
 145 951 l 257
 150 937 l 257
 150 5 l 2
 150 1 149 0 145 0 c 2
 60 0 l 2
 56 0 55 1 55 5 c 2
 55 1045 l 2
 55 1049 56 1050 60 1050 c 2
135 877 m 257
 135 987 149 1067 227 1067 c 256
 315 1067 315 1007 315 907 c 258
 315 5 l 2
 315 1 314 0 310 0 c 2
 225 0 l 2
 221 0 220 1 220 5 c 2
 220 907 l 258
 220 967 211 1003 187 1003 c 256
 163 1003 150 942 150 837 c 257
 135 877 l 257
EndSplineSet
EndChar

StartChar: n
Encoding: 110 110 51
Width: 385
VWidth: 960
Flags: HMW
AnchorPoint: "bottom" 195 0 basechar 0
AnchorPoint: "top" 195 1050 basechar 0
LayerCount: 2
Fore
SplineSet
61 1050 m 6
 141 1050 l 6
 145 1050 145 1049 145 1045 c 6
 145 943 l 261
 151 930 l 261
 151 5 l 6
 151 1 149 0 145 0 c 6
 61 0 l 6
 57 0 55 1 55 5 c 6
 55 1045 l 6
 55 1049 57 1050 61 1050 c 6
135 877 m 261
 135 987 149 1067 233 1067 c 260
 307 1067 335 1007 335 907 c 262
 335 5 l 6
 335 1 335 0 331 0 c 6
 245 0 l 6
 241 0 241 1 241 5 c 6
 241 907 l 262
 241 967 232 1003 198 1003 c 260
 160 1003 151 942 151 837 c 261
 135 877 l 261
EndSplineSet
EndChar

StartChar: o
Encoding: 111 111 52
Width: 395
VWidth: 960
Flags: HMW
AnchorPoint: "top" 197 1050 basechar 0
AnchorPoint: "bottom" 197 0 basechar 0
LayerCount: 2
Fore
SplineSet
40 224 m 262
 40 827 l 262
 40 972 69 1067 197 1067 c 260
 325 1067 355 972 355 827 c 262
 355 224 l 262
 355 79 325 -18 197 -18 c 260
 69 -18 40 79 40 224 c 262
137 209 m 262
 137 114 143 48 197 48 c 260
 251 48 257 114 257 209 c 262
 257 841 l 262
 257 936 251 1003 197 1003 c 260
 143 1003 137 936 137 841 c 262
 137 209 l 262
EndSplineSet
EndChar

StartChar: p
Encoding: 112 112 53
Width: 420
VWidth: 960
Flags: HMW
LayerCount: 2
Fore
SplineSet
125 852 m 261
 125 997 165 1068 243 1068 c 260
 327 1068 375 996 375 826 c 262
 375 223 l 262
 375 53 327 -17 243 -17 c 260
 165 -17 125 54 125 199 c 261
 151 199 l 261
 151 94 155 53 213 53 c 260
 267 53 281 104 281 209 c 262
 281 842 l 262
 281 947 267 998 213 998 c 260
 155 998 151 957 151 852 c 261
 125 852 l 261
55 -355 m 6
 55 1045 l 6
 55 1049 57 1050 61 1050 c 6
 138 1050 l 6
 142 1050 143 1049 143 1045 c 6
 143 940 l 261
 151 924 l 261
 151 -355 l 6
 151 -359 149 -360 145 -360 c 6
 61 -360 l 6
 57 -360 55 -359 55 -355 c 6
EndSplineSet
EndChar

StartChar: q
Encoding: 113 113 54
Width: 420
VWidth: 960
Flags: HMW
LayerCount: 2
Fore
SplineSet
360 -360 m 6
 275 -360 l 6
 271 -360 270 -359 270 -355 c 6
 270 952 l 257
 337 1052 l 2
 340 1056 341 1058 345 1058 c 2
 360 1058 l 2
 364 1058 365 1056 365 1052 c 2
 365 -355 l 6
 365 -359 364 -360 360 -360 c 6
295 189 m 257
 295 44 257 -27 173 -27 c 256
 85 -27 45 43 45 213 c 258
 45 816 l 258
 45 976 95 1058 183 1058 c 256
 271 1058 310 987 310 862 c 257
 270 852 l 257
 270 957 252 988 208 988 c 256
 160 988 140 937 140 832 c 258
 140 199 l 258
 140 94 160 43 208 43 c 256
 262 43 270 84 270 189 c 257
 295 189 l 257
EndSplineSet
EndChar

StartChar: r
Encoding: 114 114 55
Width: 283
VWidth: 960
Flags: HMW
AnchorPoint: "top" 193 1050 basechar 0
AnchorPoint: "bottom" 117 0 basechar 0
LayerCount: 2
Fore
SplineSet
70 1050 m 10
 147 1050 l 2
 151 1050 153 1049 153 1045 c 2
 153 752 l 257
 160 747 l 257
 160 5 l 2
 160 1 159 0 155 0 c 2
 70 0 l 2
 66 0 65 1 65 5 c 2
 65 1045 l 2
 65 1049 66 1050 70 1050 c 10
140 727 m 261
 140 905 150 1069 255 1063 c 0
 261 1063 263 1061 263 1057 c 2
 263 967 l 6
 263 964 261 962 254 962 c 4
 181 959 160 859 160 697 c 261
 140 727 l 261
EndSplineSet
EndChar

StartChar: s
Encoding: 115 115 56
Width: 349
VWidth: 960
Flags: HMW
AnchorPoint: "top" 170 1050 basechar 0
AnchorPoint: "bottom" 184 0 basechar 0
LayerCount: 2
Back
SplineSet
34 399 m 6
 100 399 l 6
 104 399 106 398 106 394 c 4
 106 340 105.94921875 301.075195312 107 224 c 4
 108.776367188 93.7236328125 123 57 169 57 c 260
 207 57 229 115 229 214 c 260
 229 272 225.820190982 297.564830935 200 356 c 6
 105 571 l 6
 73.3414464614 642.648305377 44 736 44 848 c 260
 44 1029 102 1067 180 1067 c 260
 262 1067 302.569335938 1001.07421875 304 847 c 4
 304.520507812 790.977539062 306 742 306 666 c 4
 306 662 306 661 302 661 c 6
 237 661 l 6
 233 661 231 663 231 667 c 4
 231 731 229.291015625 768.974609375 229 827 c 4
 228.37890625 951.014648438 219 995 179 995 c 260
 150 995 129 963 129 843 c 260
 129 774 148.105104263 687.814194966 172 636 c 6
 267 430 l 6
 287.80347481 384.889307254 315 320 315 228 c 260
 315 72 277 -18 180 -18 c 260
 88 -18 37.5068359375 36.3828125 33 199 c 4
 30.552734375 287.315429688 30 347 30 395 c 4
 30 399 30 399 34 399 c 6
EndSplineSet
Fore
SplineSet
34 399 m 2
 100 399 l 2
 104 399 106 398 106 394 c 0
 106 340 105.94921875 301.075195312 107 224 c 0
 108.776367188 93.7236328125 123 57 169 57 c 256
 207 57 229 115 229 214 c 256
 229 418.885667787 44 559.801186127 44 848 c 256
 44 1029 102 1067 180 1067 c 256
 262 1067 302.569335938 1001.07421875 304 847 c 0
 304.520507812 790.977539062 306 742 306 666 c 0
 306 662 306 661 302 661 c 2
 237 661 l 2
 233 661 231 663 231 667 c 0
 231 731 229.291015625 768.974609375 229 827 c 0
 228.37890625 951.014648438 219 995 179 995 c 256
 150 995 129 963 129 843 c 256
 129 595.173986415 315 454.55452445 315 228 c 260
 315 72 277 -18 180 -18 c 256
 88 -18 37.5068359375 36.3828125 33 199 c 0
 30.552734375 287.315429688 30 347 30 395 c 0
 30 399 30 399 34 399 c 2
EndSplineSet
EndChar

StartChar: t
Encoding: 116 116 57
Width: 277
VWidth: 960
Flags: HMW
AnchorPoint: "bottom" 157 0 basechar 0
LayerCount: 2
Fore
SplineSet
230 980 m 2
 55 980 l 2
 51 980 50 981 50 985 c 2
 50 1045 l 2
 50 1049 51 1050 55 1050 c 2
 230 1050 l 2
 234 1050 235 1049 235 1045 c 2
 235 985 l 2
 235 981 234 980 230 980 c 2
237 60 m 2
 237 5 l 2
 237 1 237 0 233 -1 c 0
 114 -20 90 22 90 126 c 258
 90 1235 l 2
 90 1239 91 1240 95 1240 c 2
 177 1240 l 2
 181 1240 183 1239 183 1235 c 2
 183 136 l 258
 183 72 193 55 233 64 c 0
 236 65 237 63 237 60 c 2
EndSplineSet
EndChar

StartChar: u
Encoding: 117 117 58
Width: 385
VWidth: 960
Flags: HMW
AnchorPoint: "ogonek" 284 0 basechar 0
AnchorPoint: "bottom" 191 0 basechar 0
AnchorPoint: "top" 191 1050 basechar 0
LayerCount: 2
Fore
SplineSet
325 0 m 6
 245 0 l 6
 241 0 240 1 240 5 c 6
 240 106 l 261
 235 120 l 261
 235 1045 l 6
 235 1049 236 1050 240 1050 c 6
 325 1050 l 6
 329 1050 330 1049 330 1045 c 6
 330 5 l 6
 330 1 329 0 325 0 c 6
250 174 m 261
 250 64 231 -18 147 -18 c 260
 73 -18 50 44 50 144 c 262
 50 1045 l 6
 50 1049 51 1050 55 1050 c 6
 140 1050 l 6
 144 1050 145 1049 145 1045 c 6
 145 144 l 262
 145 84 153 48 187 48 c 260
 225 48 235 109 235 214 c 261
 250 174 l 261
EndSplineSet
EndChar

StartChar: v
Encoding: 118 118 59
Width: 362
VWidth: 960
Flags: HMW
LayerCount: 2
Fore
SplineSet
189.555664062 229 m 257
 263.555664062 1045 l 6
 264.555664062 1049 266.555664062 1050 270.555664062 1050 c 6
 340.555664062 1050 l 2
 344.555664062 1050 345.555664062 1049 343.555664062 1045 c 2
 227.555664062 5 l 2
 225.555664062 1 224.555664062 0 220.555664062 0 c 2
 133.555664062 0 l 2
 129.555664062 0 128.555664062 1 126.555664062 5 c 2
 15.5556640625 1045 l 2
 14.5556640625 1049 14.5556640625 1050 18.5556640625 1050 c 2
 103.555664062 1050 l 2
 107.555664062 1050 109.555664062 1049 110.555664062 1045 c 2
 189.555664062 229 l 257
EndSplineSet
EndChar

StartChar: w
Encoding: 119 119 60
Width: 571
VWidth: 960
Flags: HMW
LayerCount: 2
Fore
SplineSet
410.639648438 234 m 257
 485.639648438 1045 l 2
 486.639648438 1049 488.639648438 1050 491.639648438 1050 c 2
 551.639648438 1050 l 2
 555.639648438 1050 556.639648438 1048 555.639648438 1045 c 2
 447.639648438 5 l 2
 446.639648438 2 445.639648438 0 441.639648438 0 c 2
 359.639648438 0 l 6
 356.639648438 0 353.639648438 1 352.639648438 5 c 6
 284.639648438 794 l 257
 217.639648438 5 l 2
 216.639648438 1 215.639648438 0 211.639648438 0 c 2
 133.639648438 0 l 2
 130.639648438 0 128.639648438 1 127.639648438 5 c 2
 20.6396484375 1045 l 2
 19.6396484375 1049 19.6396484375 1050 23.6396484375 1050 c 2
 109.639648438 1050 l 2
 112.639648438 1050 114.639648438 1049 115.639648438 1045 c 2
 179.639648438 234 l 257
 245.639648438 1045 l 2
 246.639648438 1049 247.639648438 1050 251.639648438 1050 c 2
 329.639648438 1050 l 2
 332.639648438 1050 334.639648438 1049 335.639648438 1045 c 2
 410.639648438 234 l 257
EndSplineSet
EndChar

StartChar: x
Encoding: 120 120 61
Width: 304
VWidth: 960
Flags: HMW
LayerCount: 2
Fore
SplineSet
93.255859375 0 m 2
 3.255859375 0 l 2
 -0.744140625 0 -0.744140625 1 2.255859375 5 c 2
 108.255859375 538 l 261
 9.255859375 1045 l 2
 6.255859375 1049 6.255859375 1050 10.255859375 1050 c 2
 110.255859375 1050 l 2
 114.255859375 1050 116.255859375 1049 118.255859375 1045 c 2
 160.255859375 608 l 261
 195.255859375 1045 l 2
 197.255859375 1049 199.255859375 1050 203.255859375 1050 c 2
 293.255859375 1050 l 2
 297.255859375 1050 297.255859375 1049 294.255859375 1045 c 2
 198.255859375 547 l 261
 302.255859375 5 l 2
 305.255859375 1 304.255859375 0 300.255859375 0 c 2
 206.255859375 0 l 2
 202.255859375 0 200.255859375 1 198.255859375 5 c 2
 147.255859375 472 l 261
 101.255859375 5 l 2
 99.255859375 1 97.255859375 0 93.255859375 0 c 2
EndSplineSet
EndChar

StartChar: y
Encoding: 121 121 62
Width: 372
VWidth: 960
Flags: HMW
AnchorPoint: "top" 203 1050 basechar 0
LayerCount: 2
Fore
SplineSet
205 274 m 261
 280 1045 l 2
 281 1048 282 1050 286 1050 c 2
 350 1050 l 2
 354 1050 354 1048 353 1045 c 2
 224 -56 l 258
 208.084960938 -191.830078125 111 -199 13 -181 c 0
 7 -180 5 -179 5 -175 c 2
 5 -115 l 2
 5 -112 7 -111 11 -112 c 0
 85 -134 154 -132 171 -40 c 257
 45 1045 l 2
 44 1048 43 1050 47 1050 c 2
 133 1050 l 2
 137 1050 138 1048 139 1045 c 2
 205 274 l 261
EndSplineSet
EndChar

StartChar: z
Encoding: 122 122 63
Width: 332
VWidth: 960
Flags: HMW
AnchorPoint: "top" 184.256 1050 basechar 0
LayerCount: 2
Fore
SplineSet
12.255859375 5 m 2
 212.255859375 975 l 5
 48.255859375 975 l 2
 44.255859375 975 43.255859375 976 43.255859375 980 c 2
 43.255859375 1045 l 2
 43.255859375 1049 44.255859375 1050 48.255859375 1050 c 2
 318.255859375 1050 l 2
 322.255859375 1050 323.255859375 1049 320.255859375 1045 c 2
 120.255859375 75 l 1
 308.255859375 75 l 2
 312.255859375 75 313.255859375 74 313.255859375 70 c 2
 313.255859375 5 l 2
 313.255859375 2 312.255859375 0 308.255859375 0 c 2
 13.255859375 0 l 2
 9.255859375 0 9.255859375 1 12.255859375 5 c 2
EndSplineSet
EndChar

StartChar: comma
Encoding: 44 44 65
Width: 325
VWidth: 1920
Flags: HMW
LayerCount: 2
Back
SplineSet
180 0 m 6
 95 0 l 6
 88 0 85 3 85 10 c 6
 85 200 l 6
 85 207 88 210 95 210 c 6
 180 210 l 6
 187 210 190 207 190 200 c 6
 190 10 l 6
 190 3 187 0 180 0 c 6
EndSplineSet
Fore
SplineSet
78 -210 m 6
 73 -210 l 6
 66 -210 62.53515625 -207.703125 65 -200 c 6
 124 0 l 261
 95 0 l 6
 86.4794921875 0 85 1.404296875 85 10 c 6
 85 200 l 6
 85 207 88 210 95 210 c 6
 180 210 l 6
 187 210 190 207 190 200 c 6
 190 17 l 6
 190 10 189.573736111 7.76899154527 186 0 c 6
 94 -200 l 6
 89.9471985649 -208.810437902 86 -210 78 -210 c 6
EndSplineSet
EndChar

StartChar: exclam
Encoding: 33 33 67
Width: 275
VWidth: 1920
Flags: HMW
LayerCount: 2
Fore
SplineSet
180 0 m 2
 95 0 l 2
 88 0 85 3 85 10 c 2
 85 200 l 2
 85 207 88 210 95 210 c 2
 180 210 l 2
 187 210 190 207 190 200 c 2
 190 10 l 2
 190 3 187 0 180 0 c 2
85 950 m 6
 85 1440 l 6
 85 1447 88 1450 95 1450 c 6
 180 1450 l 6
 187 1450 190 1447 190 1440 c 6
 190 950 l 6
 190 943 189.817382812 936.903320312 189 930 c 6
 161 440 l 6
 160.182617188 433.096679688 157 430 150 430 c 6
 125 430 l 6
 118 430 114.817382812 433.096679688 114 440 c 6
 86 930 l 6
 85.1826171875 936.903320312 85 943 85 950 c 6
EndSplineSet
EndChar

StartChar: quotesingle
Encoding: 39 39 70
Width: 275
VWidth: 1920
Flags: HMW
LayerCount: 2
Fore
SplineSet
145 930 m 2
 130 930 l 2
 123 930 119.159179688 933.197265625 118 940 c 2
 102 1210 l 2
 100.840820312 1216.80273438 100 1223 100 1230 c 2
 100 1410 l 2
 100 1417 103 1420 110 1420 c 2
 165 1420 l 2
 172 1420 175 1417 175 1410 c 2
 175 1230 l 2
 175 1223 174.159179688 1216.80273438 173 1210 c 2
 157 940 l 2
 155.840820312 933.197265625 152 930 145 930 c 2
EndSplineSet
EndChar

StartChar: question
Encoding: 63 63 71
Width: 396
VWidth: 1920
Flags: HMW
LayerCount: 2
Back
SplineSet
283 0 m 6
 93 0 l 6
 86 0 83 3 83 10 c 6
 83 200 l 6
 83 207 86 210 93 210 c 6
 283 210 l 6
 290 210 293 207 293 200 c 6
 293 10 l 6
 293 3 290 0 283 0 c 6
228 400 m 6
 138 400 l 6
 130.912109375 400 127.546875 402.940429688 126.740234375 409 c 4
 83.8857421875 730.931640625 313 748.14453125 313 1023 c 262
 313 1068 l 262
 313 1188 304 1285 207 1285 c 260
 107 1285 103 1184.77148438 103 1052 c 262
 103 962 l 6
 103 955 100 952 93 952 c 6
 -67 952 l 6
 -74 952 -77 955 -77 962 c 6
 -77 1052 l 262
 -77 1276 -30 1435 217 1435 c 260
 434 1435 513 1293 513 1073 c 262
 513 1048 l 262
 513 734.727539062 297.930664062 713.434570312 239.556640625 408 c 4
 238.5703125 402.8359375 234.930664062 400 228 400 c 6
EndSplineSet
Fore
SplineSet
238 0 m 6
 153 0 l 6
 146 0 143 3 143 10 c 6
 143 200 l 6
 143 207 146 210 153 210 c 6
 238 210 l 6
 245 210 248 207 248 200 c 6
 248 10 l 6
 248 3 245 0 238 0 c 6
203 400 m 2
 158 400 l 2
 154 400 152 401 152 404 c 0
 131 565 246 595 246 982 c 258
 246 1233 l 258
 246 1293 240 1391 192 1391 c 256
 142 1391 140 1291 140 1225 c 258
 140 957 l 2
 140 953 140 952 136 952 c 2
 56 952 l 2
 52 952 50 953 50 957 c 2
 50 1225 l 258
 50 1337 74 1467 198 1467 c 256
 306 1467 346 1345 346 1235 c 258
 346 994 l 258
 346 687 238 607 209 404 c 0
 208.576171875 401.030273438 206 400 203 400 c 2
EndSplineSet
EndChar

StartChar: parenleft
Encoding: 40 40 72
Width: 295
VWidth: 2048
Flags: HMW
LayerCount: 2
Back
SplineSet
70 838 m 262
 70 1243 209.35546875 1561.42578125 489.315429688 1618 c 4
 497.134765625 1619.58007812 500 1617.13964844 500 1610 c 6
 500 1540 l 6
 500 1533.21679688 497.642578125 1529.04882812 490.721679688 1526 c 4
 352.015625 1464.88964844 245 1259 245 858 c 262
 245 392 l 262
 245 -9 352.015664501 -214.890073866 490.721846214 -276.000001511 c 4
 497.642555457 -279.049065626 500 -283.216373582 500 -290 c 6
 500 -360 l 6
 500 -367.140018812 497.13437981 -369.57999665 489.315695958 -368.000002259 c 4
 209.355800504 -311.425894256 70 7 70 412 c 262
 70 838 l 262
EndSplineSet
Fore
SplineSet
35 1219 m 262
 35 1421 105 1581 245 1609 c 4
 249 1610 250 1609 250 1605 c 6
 250 1570 l 6
 250 1567 248 1565 245 1563 c 4
 176 1532 122 1429 122 1229 c 262
 122 16 l 262
 122 -184 176 -287 245 -318 c 4
 248 -320 250 -322 250 -325 c 6
 250 -360 l 6
 250 -364 249 -365 245 -364 c 4
 105 -336 35 -176 35 26 c 262
 35 1219 l 262
EndSplineSet
EndChar

StartChar: parenright
Encoding: 41 41 73
Width: 294
VWidth: 2048
Flags: HMW
LayerCount: 2
Fore
SplineSet
259 26 m 258
 259 -176 190 -336 50 -364 c 0
 46 -365 45 -364 45 -360 c 2
 45 -325 l 2
 45 -322 46 -320 49 -318 c 0
 118 -287 172 -184 172 16 c 258
 172 1229 l 258
 172 1429 118 1532 49 1563 c 0
 46 1565 45 1567 45 1570 c 2
 45 1605 l 2
 45 1609 46 1610 50 1609 c 0
 190 1581 259 1421 259 1219 c 258
 259 26 l 258
EndSplineSet
EndChar

StartChar: asterisk
Encoding: 42 42 74
Width: 500
VWidth: 2048
Flags: HMW
LayerCount: 2
Back
SplineSet
272.870117188 1020 m 261
 202.870117188 1020 l 261
 153.870117188 1370 l 6
 152.833007812 1376.66699219 152.817382812 1383.33300781 153.870117188 1390 c 6
 161.870117188 1440 l 6
 162.961914062 1446.82519531 165.870117188 1450 172.870117188 1450 c 6
 302.870117188 1450 l 6
 309.870117188 1450 312.778320312 1446.82519531 313.870117188 1440 c 6
 321.870117188 1390 l 6
 322.907226562 1383.33300781 322.922851562 1376.66699219 321.870117188 1370 c 6
 272.870117188 1020 l 261
EndSplineSet
Fore
SplineSet
255.495117188 1193 m 257
 244.495117188 1226 l 257
 403.495117188 1304 l 2
 406.495117188 1306 409.495117188 1307 413.495117188 1307 c 2
 437.495117188 1311 l 2
 441.495117188 1311 443.495117188 1311 444.495117188 1307 c 2
 464.495117188 1246 l 2
 465.495117188 1242 464.495117188 1240 461.495117188 1238 c 2
 439.495117188 1227 l 2
 436.495117188 1225 433.495117188 1224 429.495117188 1224 c 2
 255.495117188 1193 l 257
235.495117188 1200 m 257
 263.495117188 1220 l 257
 386.495117188 1094 l 2
 388.495117188 1092 390.495117188 1088 392.495117188 1085 c 2
 403.495117188 1062 l 2
 405.495117188 1059 405.495117188 1058 402.495117188 1056 c 2
 349.495117188 1017 l 2
 346.495117188 1015 344.495117188 1016 342.495117188 1018 c 2
 324.495117188 1036 l 2
 322.495117188 1038 320.495117188 1041 318.495117188 1044 c 2
 235.495117188 1200 l 257
235.495117188 1220 m 257
 264.495117188 1200 l 257
 181.495117188 1044 l 2
 179.495117188 1041 177.495117188 1038 175.495117188 1036 c 2
 157.495117188 1018 l 2
 155.495117188 1016 152.495117188 1015 149.495117188 1017 c 2
 97.4951171875 1056 l 2
 94.4951171875 1058 93.4951171875 1059 95.4951171875 1062 c 2
 107.495117188 1085 l 2
 109.495117188 1088 111.495117188 1092 113.495117188 1094 c 2
 235.495117188 1220 l 257
255.495117188 1226 m 257
 244.495117188 1193 l 257
 70.4951171875 1224 l 2
 66.4951171875 1224 64.4951171875 1225 61.4951171875 1227 c 2
 38.4951171875 1238 l 2
 35.4951171875 1240 34.4951171875 1242 35.4951171875 1246 c 2
 55.4951171875 1307 l 2
 56.4951171875 1311 57.4951171875 1311 61.4951171875 1311 c 2
 87.4951171875 1307 l 2
 91.4951171875 1307 93.4951171875 1306 96.4951171875 1304 c 2
 255.495117188 1226 l 257
267.495117188 1210 m 257
 232.495117188 1210 l 257
 207.495117188 1385 l 2
 207.495117188 1389 207.495117188 1391 207.495117188 1395 c 2
 211.495117188 1420 l 2
 211.495117188 1424 213.495117188 1425 217.495117188 1425 c 2
 282.495117188 1425 l 2
 286.495117188 1425 287.495117188 1424 287.495117188 1420 c 2
 291.495117188 1395 l 2
 291.495117188 1391 291.495117188 1389 291.495117188 1385 c 2
 267.495117188 1210 l 257
EndSplineSet
EndChar

StartChar: at
Encoding: 64 64 75
Width: 770
VWidth: 1920
Flags: HMW
LayerCount: 2
Back
SplineSet
975 472 m 261
 975 182 878 40 721 40 c 260
 574 40 465 157 465 497 c 262
 465 528 l 262
 465 848 564 985 711 985 c 260
 878 985 985 843 985 553 c 261
 885 533 l 261
 885 743 858 845 761 845 c 260
 674 845 655 763 655 553 c 262
 655 472 l 262
 655 262 674 180 761 180 c 260
 858 180 885 282 885 492 c 261
 975 472 l 261
1132 -254.827148438 m 4
 1064.32128906 -314.50390625 944.916015625 -360 785 -360 c 260
 258 -360 100 13 100 493 c 262
 100 583 l 262
 100 1093 298 1435 785 1435 c 260
 1322 1435 1400 1024 1400 633 c 262
 1400 543 l 262
 1400 183 1317 40 1120 40 c 260
 963 40 885 185 885 405 c 262
 885 775 l 261
 1018 975 l 6
 1021.83984375 980.16015625 1028 985 1035 985 c 6
 1065 985 l 6
 1072 985 1075 982 1075 975 c 6
 1075 445 l 262
 1075 251.000976562 1083 180 1130 180 c 260
 1197 180 1220 303 1220 543 c 262
 1220 633 l 262
 1220 973 1162 1295 785 1295 c 260
 428 1295 290 1013 290 593 c 262
 290 483 l 262
 290 103 378 -220 785 -220 c 260
 897.123046875 -220 1008.64746094 -181.40234375 1081 -124.412109375 c 4
 1088.40429688 -118.580078125 1091.24121094 -119.775390625 1094 -127 c 6
 1136 -237 l 6
 1138.95410156 -244.737304688 1138.71386719 -248.907226562 1132 -254.827148438 c 4
EndSplineSet
Fore
SplineSet
488 199 m 257
 488 54 438 -17 360 -17 c 256
 286 -17 232 41 232 211 c 258
 232 838 l 258
 232 998 282 1067 356 1067 c 256
 440 1067 492 996 492 851 c 257
 442 841 l 257
 442 946 428 997 380 997 c 256
 336 997 328 956 328 851 c 258
 328 199 l 258
 328 94 336 53 380 53 c 256
 428 53 442 104 442 209 c 257
 488 199 l 257
566 -324 m 0
 532 -354 472 -377 392 -377 c 256
 128 -377 50 -191 50 49 c 258
 50 990 l 258
 50 1245 148 1417 392 1417 c 256
 660 1417 720 1232 720 1016 c 262
 720 235 l 258
 720 55 682 -17 574 -17 c 256
 486 -17 442 55 442 165 c 258
 442 961 l 257
 509 1061 l 2
 511 1064 514 1067 518 1067 c 2
 532 1067 l 2
 536 1067 538 1065 538 1061 c 2
 538 185 l 258
 538 88 545 53 579 53 c 256
 613 53 630 115 630 235 c 258
 630 1016 l 262
 630 1206 580 1347 392 1347 c 256
 214 1347 145 1206 145 996 c 258
 145 45 l 258
 145 -145 188 -307 392 -307 c 256
 448 -307 504 -287 540 -259 c 0
 544 -256 546 -257 547 -261 c 2
 568 -315 l 2
 569 -319 569 -321 566 -324 c 0
EndSplineSet
EndChar

StartChar: dollar
Encoding: 36 36 76
Width: 440
VWidth: 1920
Flags: HMW
LayerCount: 2
Fore
SplineSet
55 524 m 2
 130 524 l 2
 131 524 134.984733047 523.999941729 135 520 c 6
 136 258 l 6
 136.652680884 86.9976083359 166 58 215 58 c 256
 259 58 308 104 308 330 c 256
 308 498 254.868164062 607.751953125 203 683 c 256
 133.606445312 783.673828125 70 892 70 1126 c 256
 70 1366 129 1418 227 1418 c 256
 319 1418 375 1368 375 1150 c 2
 375 906 l 2
 375 902 373 902 370 902 c 2
 295 902 l 2
 292 902 290 903 290 906 c 2
 290 1146 l 2
 290 1324 266 1348 228 1348 c 256
 190 1348 160 1311 160 1126 c 256
 160 940 220.083007812 820.859375 265 760 c 256
 333.899414062 666.647460938 400 553 400 334 c 256
 400 61 329 -18 215 -18 c 256
 105 -18 50 45 50 234 c 2
 50 520 l 2
 50 524 54 524 55 524 c 2
210 1590 m 2
 240 1590 l 2
 243.5 1590 245 1588.5 245 1585 c 2
 245 -185 l 2
 245 -188.5 243.5 -190 240 -190 c 2
 210 -190 l 2
 206.5 -190 205 -188.5 205 -185 c 2
 205 1585 l 2
 205 1588.5 206.5 1590 210 1590 c 2
EndSplineSet
EndChar

StartChar: numbersign
Encoding: 35 35 77
Width: 540
VWidth: 1920
Flags: HMW
LayerCount: 2
Back
SplineSet
80 540 m 6
 1140 540 l 6
 1147 540 1150 537 1150 530 c 6
 1150 440 l 6
 1150 433 1148 430 1140 430 c 6
 80 430 l 6
 73 430 70 433 70 440 c 6
 70 530 l 6
 70 537 73 540 80 540 c 6
160 1050 m 6
 1220 1050 l 6
 1227 1050 1230 1047 1230 1040 c 6
 1230 950 l 6
 1230 943 1227 940 1220 940 c 6
 160 940 l 6
 153 940 150 943 150 950 c 6
 150 1040 l 6
 150 1047 153 1050 160 1050 c 6
950 1400 m 6
 1080 1400 l 6
 1090 1400 1090 1397 1088 1390 c 6
 762 10 l 6
 760 3 760 0 750 0 c 6
 620 0 l 6
 610 0 610 3 612 10 c 6
 938 1390 l 6
 940 1397 940 1400 950 1400 c 6
530 1400 m 6
 660 1400 l 6
 667 1400 670 1397 668 1390 c 6
 342 10 l 6
 340 3 337 0 330 0 c 6
 200 0 l 6
 193 0 190 3 192 10 c 6
 518 1390 l 6
 520 1397 523 1400 530 1400 c 6
EndSplineSet
Fore
SplineSet
40 510 m 2
 460 510 l 2
 463.5 510 465 508.5 465 505 c 2
 465 460 l 2
 465 456.5 464 455 460 455 c 2
 40 455 l 2
 36.5 455 35 456.5 35 460 c 2
 35 505 l 2
 35 508.5 36.5 510 40 510 c 2
80 1025 m 2
 500 1025 l 2
 503.5 1025 505 1023.5 505 1020 c 2
 505 975 l 2
 505 971.5 503.5 970 500 970 c 2
 80 970 l 2
 76.5 970 75 971.5 75 975 c 2
 75 1020 l 2
 75 1023.5 76.5 1025 80 1025 c 2
395 1400 m 2
 460 1400 l 2
 465 1400 465 1398.5 464 1395 c 2
 301 5 l 2
 300 1.5 300 0 295 0 c 2
 230 0 l 2
 225 0 225 1.5 226 5 c 2
 389 1395 l 2
 390 1398.5 390 1400 395 1400 c 2
235 1400 m 2
 300 1400 l 2
 303.5 1400 305 1398.5 304 1395 c 2
 141 5 l 2
 140 1.5 138.5 0 135 0 c 2
 70 0 l 2
 66.5 0 65 1.5 66 5 c 2
 229 1395 l 2
 230 1398.5 231.5 1400 235 1400 c 2
EndSplineSet
EndChar

StartChar: slash
Encoding: 47 47 78
Width: 430
VWidth: 2048
Flags: HMW
LayerCount: 2
Back
SplineSet
896 1390 m 6
 279 -90 l 6
 275.448242188 -98.51953125 272 -100 265 -100 c 6
 125 -100 l 6
 118 -100 115.448242188 -98.51953125 119 -90 c 6
 736 1390 l 6
 739.551757812 1398.51953125 744 1400 750 1400 c 6
 890 1400 l 6
 897 1400 899.551757812 1398.51953125 896 1390 c 6
EndSplineSet
Fore
SplineSet
412 1395 m 2
 103 -95 l 2
 101 -99 100 -100 96 -100 c 2
 28 -100 l 2
 24 -100 22.1634406225 -99.0338947331 23 -95 c 2
 332 1395 l 2
 332.836559378 1399.03389473 336 1400 339 1400 c 2
 407 1400 l 2
 411 1400 412.836559378 1399.03389473 412 1395 c 2
EndSplineSet
EndChar

StartChar: percent
Encoding: 37 37 79
Width: 727
VWidth: 2048
Flags: HMW
LayerCount: 2
Fore
SplineSet
50 972 m 262
 50 1229 l 262
 50 1354 94 1418 192 1418 c 260
 290 1418 340 1354 340 1229 c 262
 340 972 l 262
 340 847 290 782 192 782 c 260
 94 782 50 847 50 972 c 262
137 962 m 262
 137 877 148 848 192 848 c 260
 236 848 252 877 252 962 c 262
 252 1239 l 262
 252 1324 236 1352 192 1352 c 260
 148 1352 137 1324 137 1239 c 262
 137 962 l 262
387 172 m 262
 387 429 l 262
 387 554 432 618 530 618 c 260
 628 618 677 554 677 429 c 262
 677 172 l 262
 677 47 628 -18 530 -18 c 260
 432 -18 387 47 387 172 c 262
474 162 m 262
 474 77 486 48 530 48 c 260
 574 48 590 77 590 162 c 262
 590 439 l 262
 590 524 574 552 530 552 c 260
 486 552 474 524 474 439 c 262
 474 162 l 262
664 1395 m 6
 142 5 l 6
 140 1 138 0 134 0 c 6
 64 0 l 6
 60 0 60 1 62 5 c 6
 584 1395 l 6
 586 1399 588 1400 592 1400 c 6
 662 1400 l 6
 666 1400 666 1399 664 1395 c 6
EndSplineSet
EndChar

StartChar: hyphen
Encoding: 45 45 80
Width: 336
VWidth: 1920
Flags: HMW
LayerCount: 2
Fore
SplineSet
45 579 m 14
 45 646 l 22
 45 650 47 651 51 651 c 14
 285 651 l 22
 289 651 291 650 291 646 c 14
 291 579 l 22
 291 575 289 574 285 574 c 14
 51 574 l 22
 47 574 45 575 45 579 c 14
EndSplineSet
EndChar

StartChar: underscore
Encoding: 95 95 81
Width: 450
VWidth: 1920
Flags: HMW
LayerCount: 2
Fore
SplineSet
0 -72 m 10
 0 -5 l 18
 0 -1 1 0 5 0 c 10
 445 0 l 18
 449 0 450 -1 450 -5 c 10
 450 -72 l 18
 450 -76 449 -78 445 -78 c 10
 5 -78 l 18
 1 -78 0 -76 0 -72 c 10
EndSplineSet
EndChar

StartChar: plus
Encoding: 43 43 82
Width: 566
VWidth: 1920
Flags: HMW
LayerCount: 2
Fore
SplineSet
45 652 m 10
 45 720 l 18
 45 724 47 725 51 725 c 10
 515 725 l 18
 519 725 521 724 521 720 c 10
 521 652 l 18
 521 648 519 648 515 648 c 10
 51 648 l 18
 47 648 45 648 45 652 c 10
251 935 m 10
 315 935 l 18
 319 935 321 934 321 930 c 10
 321 430 l 18
 321 426 319 425 315 425 c 10
 251 425 l 18
 247 425 245 426 245 430 c 10
 245 930 l 18
 245 934 247 935 251 935 c 10
EndSplineSet
EndChar

StartChar: equal
Encoding: 61 61 83
Width: 530
VWidth: 1920
Flags: HMW
LayerCount: 2
Fore
SplineSet
45 371 m 14
 45 439 l 22
 45 443 46 444 50 444 c 14
 480 444 l 22
 484 444 485 443 485 439 c 14
 485 371 l 22
 485 367 484 366 480 366 c 14
 50 366 l 22
 46 366 45 367 45 371 c 14
45 556 m 14
 45 624 l 22
 45 628 46 629 50 629 c 14
 480 629 l 22
 484 629 485 628 485 624 c 14
 485 556 l 22
 485 552 484 551 480 551 c 14
 50 551 l 22
 46 551 45 552 45 556 c 14
EndSplineSet
EndChar

StartChar: less
Encoding: 60 60 84
Width: 489
VWidth: 1920
Flags: HMW
LayerCount: 2
Fore
SplineSet
435 343 m 2
 49 572 l 2
 45 574 45 576 45 580 c 2
 45 620 l 2
 45 624 45 626 49 628 c 2
 435 857 l 2
 439 859 439 859 439 855 c 2
 439 775 l 2
 439 771 439 769 435 767 c 2
 139 600 l 257
 435 433 l 2
 439 431 439 429 439 425 c 2
 439 345 l 2
 439 341 439 341 435 343 c 2
EndSplineSet
EndChar

StartChar: greater
Encoding: 62 62 85
Width: 489
VWidth: 1920
Flags: HMW
LayerCount: 2
Fore
SplineSet
54 857 m 2
 440 628 l 2
 444 626 444 624 444 620 c 2
 444 580 l 2
 444 576 444 574 440 572 c 2
 54 343 l 2
 50 341 50 341 50 345 c 2
 50 425 l 2
 50 429 50 431 54 433 c 2
 350 600 l 257
 54 767 l 2
 50 769 50 771 50 775 c 2
 50 855 l 2
 50 859 50 859 54 857 c 2
EndSplineSet
EndChar

StartChar: backslash
Encoding: 92 92 86
Width: 429
VWidth: 2048
Flags: HMW
LayerCount: 2
Fore
SplineSet
407 -95 m 2
 408 -99 406 -100 402 -100 c 2
 334 -100 l 2
 330 -100 329 -99 327 -95 c 2
 18 1395 l 2
 17 1399 19 1400 23 1400 c 2
 91 1400 l 2
 94 1400 97 1399 98 1395 c 2
 407 -95 l 2
EndSplineSet
EndChar

StartChar: bracketleft
Encoding: 91 91 87
Width: 275
VWidth: 1920
Flags: HMW
LayerCount: 2
Fore
SplineSet
130 1525 m 257
 130 -285 l 261
 245 -285 l 6
 249 -285 250 -286 250 -290 c 6
 250 -355 l 6
 250 -359 249 -360 245 -360 c 6
 40 -360 l 6
 36 -360 35 -359 35 -355 c 6
 35 1595 l 2
 35 1599 36 1600 40 1600 c 2
 245 1600 l 2
 249 1600 250 1599 250 1595 c 2
 250 1530 l 2
 250 1526 249 1525 245 1525 c 2
 130 1525 l 257
EndSplineSet
EndChar

StartChar: braceleft
Encoding: 123 123 88
Width: 288
VWidth: 2048
Flags: HMW
LayerCount: 2
Fore
SplineSet
78 1439 m 262
 78 1553 98 1599 232 1600 c 4
 236 1600 238 1599 238 1595 c 6
 238 1560 l 6
 238 1556 236 1555 232 1555 c 4
 182 1553 165 1526 165 1439 c 262
 165 788 l 262
 165 696 151 644 73 620 c 261
 151 596 165 544 165 452 c 262
 165 -199 l 262
 165 -285 183 -312 231 -315 c 4
 236 -315 238 -316 238 -320 c 6
 238 -355 l 6
 238 -359 236 -360 232 -360 c 4
 99 -358 78 -313 78 -199 c 262
 78 452 l 262
 78 538 59 570 11 586 c 4
 7 588 5 589 5 593 c 6
 5 647 l 6
 5 651 6 653 10 654 c 4
 60 670 78 701 78 788 c 262
 78 1439 l 262
EndSplineSet
EndChar

StartChar: bracketright
Encoding: 93 93 89
Width: 275
VWidth: 1920
Flags: HMW
LayerCount: 2
Back
SplineSet
290 -210 m 261
 290 1450 l 261
 60 1450 l 6
 53 1450 50 1453 50 1460 c 6
 50 1590 l 6
 50 1597 53 1600 60 1600 c 6
 470 1600 l 6
 477 1600 480 1597 480 1590 c 6
 480 -350 l 6
 480 -357 477 -360 470 -360 c 6
 60 -360 l 6
 53 -360 50 -357 50 -350 c 6
 50 -220 l 6
 50 -213 53 -210 60 -210 c 6
 290 -210 l 261
EndSplineSet
Fore
SplineSet
145 -285 m 257
 145 1525 l 257
 30 1525 l 2
 26 1525 25 1526 25 1530 c 2
 25 1595 l 2
 25 1599 26 1600 30 1600 c 2
 235 1600 l 2
 239 1600 240 1599 240 1595 c 2
 240 -355 l 2
 240 -359 239 -360 235 -360 c 2
 30 -360 l 2
 26 -360 25 -359 25 -355 c 2
 25 -290 l 2
 25 -286 26 -285 30 -285 c 2
 145 -285 l 257
EndSplineSet
EndChar

StartChar: braceright
Encoding: 125 125 90
Width: 288
VWidth: 2048
Flags: HMW
LayerCount: 2
Fore
SplineSet
210 -199 m 258
 210 -313 190 -359 56 -360 c 0
 52 -360 50 -359 50 -355 c 2
 50 -320 l 2
 50 -316 52 -315 56 -315 c 0
 106 -313 123 -286 123 -199 c 258
 123 452 l 258
 123 544 137 596 215 620 c 257
 137 644 123 696 123 788 c 258
 123 1439 l 258
 123 1525 105 1552 57 1555 c 0
 52 1555 50 1556 50 1560 c 2
 50 1595 l 2
 50 1599 52 1600 56 1600 c 0
 189 1598 210 1553 210 1439 c 258
 210 788 l 258
 210 702 229 670 277 654 c 0
 281 652 283 651 283 647 c 2
 283 593 l 2
 283 589 282 587 278 586 c 0
 228 570 210 539 210 452 c 258
 210 -199 l 258
EndSplineSet
EndChar

StartChar: bar
Encoding: 124 124 91
Width: 320
VWidth: 1920
Flags: HMW
LayerCount: 2
Fore
SplineSet
138 1600 m 10
 183 1600 l 22
 190 1600 193 1597 193 1590 c 14
 193 -350 l 22
 193 -357 190 -360 183 -360 c 14
 138 -360 l 18
 131 -360 128 -357 128 -350 c 10
 128 1590 l 18
 128 1597 131 1600 138 1600 c 10
EndSplineSet
EndChar

StartChar: asciitilde
Encoding: 126 126 92
Width: 664
VWidth: 2048
Flags: HMW
LayerCount: 2
Fore
SplineSet
210 632 m 256
 164 632 132 597 130 526 c 0
 130 523 127 522 124 522 c 2
 54 522 l 2
 50 522 50 523 50 526 c 0
 52 630 125 707 210 707 c 256
 330 707 378 579 454 579 c 256
 500 579 533 613 535 684 c 0
 535 688 537 689 540 689 c 2
 609 689 l 2
 613 689 614 688 614 684 c 0
 612 580 539 504 454 504 c 256
 334 504 286 632 210 632 c 256
EndSplineSet
EndChar

StartChar: asciicircum
Encoding: 94 94 93
Width: 386
VWidth: 1920
Flags: HMW
LayerCount: 2
Fore
SplineSet
192 1291 m 261
 86 740 l 6
 84 734 79 730 72 730 c 6
 32 730 l 6
 25 730 23 734 26 740 c 6
 168 1390 l 6
 172 1399 175 1400 182 1400 c 6
 202 1400 l 6
 209 1400 212 1399 216 1390 c 6
 358 740 l 6
 361 734 364 730 352 730 c 6
 312 730 l 6
 302 730 300 734 298 740 c 6
 192 1291 l 261
EndSplineSet
EndChar

StartChar: figuredash
Encoding: 8210 8210 108
Width: 575
VWidth: 2048
Flags: HMW
LayerCount: 2
Fore
SplineSet
20 578.75 m 10
 20 646.25 l 18
 20 649.75 21.5 651.25 25 651.25 c 10
 550 651.25 l 18
 553.5 651.25 555 649.75 555 646.25 c 10
 555 578.75 l 18
 555 575.25 553.5 573.75 550 573.75 c 10
 25 573.75 l 18
 21.5 573.75 20 575.25 20 578.75 c 10
EndSplineSet
EndChar

StartChar: endash
Encoding: 8211 8211 109
Width: 550
VWidth: 2048
Flags: HMW
LayerCount: 2
Fore
SplineSet
20 578.75 m 10
 20 646.25 l 18
 20 649.75 21.5 651.25 25 651.25 c 10
 525 651.25 l 18
 528.5 651.25 530 649.75 530 646.25 c 10
 530 578.75 l 18
 530 575.25 528.5 573.75 525 573.75 c 10
 25 573.75 l 18
 21.5 573.75 20 575.25 20 578.75 c 10
EndSplineSet
EndChar

StartChar: emdash
Encoding: 8212 8212 110
Width: 1100
VWidth: 2048
Flags: HMW
LayerCount: 2
Fore
SplineSet
20 578.75 m 10
 20 646.25 l 18
 20 649.75 21.5 651.25 25 651.25 c 10
 1075 651.25 l 18
 1078.5 651.25 1080 649.75 1080 646.25 c 10
 1080 578.75 l 18
 1080 575.25 1078.5 573.75 1075 573.75 c 10
 25 573.75 l 18
 21.5 573.75 20 575.25 20 578.75 c 10
EndSplineSet
EndChar

StartChar: uni2015
Encoding: 8213 8213 111
Width: 1180
VWidth: 2048
Flags: HMW
LayerCount: 2
Fore
SplineSet
20 578.75 m 10
 20 646.25 l 18
 20 649.75 21.5 651.25 25 651.25 c 10
 1155 651.25 l 18
 1158.5 651.25 1160 649.75 1160 646.25 c 10
 1160 578.75 l 18
 1160 575.25 1158.5 573.75 1155 573.75 c 10
 25 573.75 l 18
 21.5 573.75 20 575.25 20 578.75 c 10
EndSplineSet
EndChar

StartChar: quoteleft
Encoding: 8216 8216 114
Width: 290
VWidth: 1920
Flags: HMW
LayerCount: 2
Fore
SplineSet
212 1460 m 6
 217 1460 l 6
 224 1460 227.46484375 1457.703125 225 1450 c 6
 166 1250 l 261
 195 1250 l 6
 203.520507812 1250 205 1248.59570312 205 1240 c 6
 205 1050 l 6
 205 1043 202 1040 195 1040 c 6
 110 1040 l 6
 103 1040 100 1043 100 1050 c 6
 100 1233 l 6
 100 1240 100.42578125 1242.23144531 104 1250 c 6
 196 1450 l 6
 200.052734375 1458.81054688 204 1460 212 1460 c 6
EndSplineSet
EndChar

StartChar: quotereversed
Encoding: 8219 8219 117
Width: 290
VWidth: 1920
Flags: HMW
LayerCount: 2
Fore
SplineSet
212 1000 m 2
 204 1000 200.052734375 1001.18945312 196 1010 c 2
 104 1210 l 2
 100.42578125 1217.76855469 100 1220 100 1227 c 2
 100 1410 l 2
 100 1417 103 1420 110 1420 c 2
 195 1420 l 2
 202 1420 205 1417 205 1410 c 2
 205 1220 l 2
 205 1211.40429688 203.520507812 1210 195 1210 c 2
 166 1210 l 257
 225 1010 l 2
 227.46484375 1002.296875 224 1000 217 1000 c 2
 212 1000 l 2
EndSplineSet
EndChar

StartChar: bullet
Encoding: 8226 8226 120
Width: 345
VWidth: 2048
Flags: HMW
LayerCount: 2
Fore
SplineSet
75.5 732 m 258
 75.5 759 l 258
 75.5 819 121.5 848 169.5 848 c 256
 217.5 848 269.5 819 269.5 759 c 258
 269.5 732 l 258
 269.5 672 217.5 642 169.5 642 c 256
 121.5 642 75.5 672 75.5 732 c 258
EndSplineSet
EndChar

StartChar: dagger
Encoding: 8224 8224 124
Width: 445
VWidth: 1920
Flags: HMW
LayerCount: 2
Fore
SplineSet
35 977 m 14
 35 1045 l 22
 35 1049 36 1050 40 1050 c 14
 405 1050 l 22
 409 1050 410 1049 410 1045 c 14
 410 977 l 22
 410 973 409 973 405 973 c 14
 40 973 l 22
 36 973 35 973 35 977 c 14
180 1400 m 14
 265 1400 l 22
 269 1400 270 1399 270 1395 c 14
 270 5 l 22
 270 1 269 0 265 0 c 14
 180 0 l 22
 176 0 175 1 175 5 c 14
 175 1395 l 22
 175 1399 176 1400 180 1400 c 14
EndSplineSet
EndChar

StartChar: daggerdbl
Encoding: 8225 8225 125
Width: 445
VWidth: 1920
Flags: HMW
LayerCount: 2
Fore
SplineSet
35 4 m 10
 35 72 l 18
 35 76 36 77 40 77 c 10
 405 77 l 18
 409 77 410 76 410 72 c 10
 410 4 l 18
 410 0 409 0 405 0 c 10
 40 0 l 18
 36 0 35 0 35 4 c 10
35 977 m 10
 35 1045 l 18
 35 1049 36 1050 40 1050 c 10
 405 1050 l 18
 409 1050 410 1049 410 1045 c 10
 410 977 l 18
 410 973 409 973 405 973 c 10
 40 973 l 18
 36 973 35 973 35 977 c 10
180 1400 m 10
 265 1400 l 18
 269 1400 270 1399 270 1395 c 10
 270 -355 l 22
 270 -359 269 -360 265 -360 c 14
 180 -360 l 22
 176 -360 175 -359 175 -355 c 14
 175 1395 l 18
 175 1399 176 1400 180 1400 c 10
EndSplineSet
EndChar

StartChar: perthousand
Encoding: 8240 8240 126
Width: 1097
VWidth: 2048
Flags: HMW
LayerCount: 2
Fore
SplineSet
757 172 m 262
 757 429 l 262
 757 554 802 618 900 618 c 260
 998 618 1047 554 1047 429 c 262
 1047 172 l 262
 1047 47 998 -18 900 -18 c 260
 802 -18 757 47 757 172 c 262
844 162 m 262
 844 77 856 48 900 48 c 260
 944 48 960 77 960 162 c 262
 960 439 l 262
 960 524 944 552 900 552 c 260
 856 552 844 524 844 439 c 262
 844 162 l 262
50 972 m 262
 50 1229 l 262
 50 1354 94 1418 192 1418 c 260
 290 1418 340 1354 340 1229 c 262
 340 972 l 262
 340 847 290 782 192 782 c 260
 94 782 50 847 50 972 c 262
137 962 m 262
 137 877 148 848 192 848 c 260
 236 848 252 877 252 962 c 262
 252 1239 l 262
 252 1324 236 1352 192 1352 c 260
 148 1352 137 1324 137 1239 c 262
 137 962 l 262
387 172 m 262
 387 429 l 262
 387 554 432 618 530 618 c 260
 628 618 677 554 677 429 c 262
 677 172 l 262
 677 47 628 -18 530 -18 c 260
 432 -18 387 47 387 172 c 262
474 162 m 262
 474 77 486 48 530 48 c 260
 574 48 590 77 590 162 c 262
 590 439 l 262
 590 524 574 552 530 552 c 260
 486 552 474 524 474 439 c 262
 474 162 l 262
664 1395 m 6
 142 5 l 6
 140 1 138 0 134 0 c 6
 64 0 l 6
 60 0 60 1 62 5 c 6
 584 1395 l 6
 586 1399 588 1400 592 1400 c 6
 662 1400 l 6
 666 1400 666 1399 664 1395 c 6
EndSplineSet
EndChar

StartChar: uni2031
Encoding: 8241 8241 127
Width: 1467
VWidth: 2048
Flags: HMW
LayerCount: 2
Fore
SplineSet
1127 172 m 262
 1127 429 l 262
 1127 554 1172 618 1270 618 c 260
 1368 618 1417 554 1417 429 c 262
 1417 172 l 262
 1417 47 1368 -18 1270 -18 c 260
 1172 -18 1127 47 1127 172 c 262
1214 162 m 262
 1214 77 1226 48 1270 48 c 260
 1314 48 1330 77 1330 162 c 262
 1330 439 l 262
 1330 524 1314 552 1270 552 c 260
 1226 552 1214 524 1214 439 c 262
 1214 162 l 262
757 172 m 258
 757 429 l 258
 757 554 802 618 900 618 c 256
 998 618 1047 554 1047 429 c 258
 1047 172 l 258
 1047 47 998 -18 900 -18 c 256
 802 -18 757 47 757 172 c 258
844 162 m 258
 844 77 856 48 900 48 c 256
 944 48 960 77 960 162 c 258
 960 439 l 258
 960 524 944 552 900 552 c 256
 856 552 844 524 844 439 c 258
 844 162 l 258
50 972 m 258
 50 1229 l 258
 50 1354 94 1418 192 1418 c 256
 290 1418 340 1354 340 1229 c 258
 340 972 l 258
 340 847 290 782 192 782 c 256
 94 782 50 847 50 972 c 258
137 962 m 258
 137 877 148 848 192 848 c 256
 236 848 252 877 252 962 c 258
 252 1239 l 258
 252 1324 236 1352 192 1352 c 256
 148 1352 137 1324 137 1239 c 258
 137 962 l 258
387 172 m 258
 387 429 l 258
 387 554 432 618 530 618 c 256
 628 618 677 554 677 429 c 258
 677 172 l 258
 677 47 628 -18 530 -18 c 256
 432 -18 387 47 387 172 c 258
474 162 m 258
 474 77 486 48 530 48 c 256
 574 48 590 77 590 162 c 258
 590 439 l 258
 590 524 574 552 530 552 c 256
 486 552 474 524 474 439 c 258
 474 162 l 258
664 1395 m 2
 142 5 l 2
 140 1 138 0 134 0 c 2
 64 0 l 2
 60 0 60 1 62 5 c 2
 584 1395 l 2
 586 1399 588 1400 592 1400 c 2
 662 1400 l 2
 666 1400 666 1399 664 1395 c 2
EndSplineSet
EndChar

StartChar: fraction
Encoding: 8260 8260 128
Width: 500
VWidth: 1920
Flags: HMW
LayerCount: 2
Fore
SplineSet
395 1292 m 10
 447 1262 l 18
 451 1260 451 1264 449 1258 c 10
 112 162 l 18
 110 156 109 156 105 158 c 10
 53 178 l 18
 49 180 49 186 51 192 c 10
 388 1288 l 18
 390 1294 391 1294 395 1292 c 10
EndSplineSet
EndChar

StartChar: uni2074
Encoding: 8308 8308 129
Width: 269
VWidth: 1920
Flags: HMW
LayerCount: 2
Fore
SplineSet
249 912 m 2
 249 834 l 2
 249 830 247 828 245 828 c 2
 211 828 l 257
 211 636 l 2
 211 632 211 630 209 630 c 2
 137 630 l 2
 135 630 135 632 135 636 c 2
 135 828 l 257
 19 828 l 2
 17 828 15 830 15 834 c 2
 15 924 l 2
 15 928 15 932 17 936 c 2
 141 1464 l 6
 142 1467 145 1470 147 1470 c 6
 209 1470 l 2
 211 1470 211 1468 211 1464 c 2
 211 918 l 257
 245 918 l 2
 247 918 249 916 249 912 c 2
137 918 m 257
 137 1226 l 257
 67 918 l 257
 137 918 l 257
EndSplineSet
EndChar

StartChar: uni2073
Encoding: 8307 8307 130
Width: 305
VWidth: 1920
Flags: HMW
LayerCount: 2
Fore
SplineSet
33 874 m 2
 104 874 l 2
 106 874 107 872 107 868 c 2
 107 826 l 2
 107 774 116 689 148 689 c 0
 183 689 198 783 198 841 c 2
 198 898 l 2
 198 966 188 1031 145 1031 c 2
 121 1031 l 2
 119 1031 118 1033 118 1037 c 2
 118 1105 l 2
 118 1109 119 1111 121 1111 c 2
 139 1111 l 2
 179 1111 182 1182 182 1244 c 2
 182 1283 l 2
 182 1329 177 1411 147 1411 c 0
 122 1411 114 1331 114 1261 c 2
 114 1207 l 2
 114 1203 113 1201 111 1201 c 2
 43 1201 l 2
 41 1201 40 1203 40 1207 c 2
 40 1261 l 2
 40 1401 70 1491 149 1491 c 0
 228 1491 260 1418 260 1280 c 2
 260 1265 l 2
 260 1115 216 1062 139 1062 c 1
 145 1092 l 1
 222 1092 275 1033 275 883 c 2
 275 838 l 2
 275 694 234 609 145 609 c 0
 69 609 30 689 30 826 c 2
 30 868 l 2
 30 872 31 874 33 874 c 2
EndSplineSet
EndChar

StartChar: uni2072
Encoding: 8306 8306 131
Width: 251
VWidth: 1920
Flags: HMW
LayerCount: 2
Fore
SplineSet
15 693 m 258
 15 1019 161.5 1089 161.5 1257 c 258
 161.5 1284 l 258
 161.5 1340 157.5 1398 130.5 1398 c 256
 99.5 1398 96.5 1322 96.5 1238 c 258
 96.5 1184 l 2
 96.5 1180 95.5 1178 93.5 1178 c 2
 25.5 1178 l 2
 23.5 1178 22.5 1180 22.5 1184 c 2
 22.5 1238 l 258
 22.5 1402 55.5 1498 133.5 1498 c 256
 207.5 1498 235.5 1419 235.5 1281 c 258
 235.5 1254 l 258
 235.5 1016 101 998 101 745 c 262
 101 739 l 261
 233 739 l 6
 235 739 236 737 236 733 c 6
 236 643 l 2
 236 639 235 637 233 637 c 2
 18 637 l 2
 16 637 15 639 15 643 c 2
 15 693 l 258
EndSplineSet
EndChar

StartChar: uni2070
Encoding: 8304 8304 132
Width: 335
VWidth: 1920
Flags: HMW
LayerCount: 2
Fore
SplineSet
50 923 m 258
 50 1178 l 258
 50 1373 72 1491 167.5 1491 c 256
 263 1491 285 1373 285 1178 c 258
 285 923 l 258
 285 727 263 609 167.5 609 c 256
 72 609 50 727 50 923 c 258
127 935 m 258
 127 786 127.5 703 167.5 703 c 256
 207.5 703 208 786 208 935 c 258
 208 1166 l 258
 208 1315 207.5 1397 167.5 1397 c 256
 127.5 1397 127 1315 127 1166 c 258
 127 935 l 258
EndSplineSet
EndChar

StartChar: uni2075
Encoding: 8309 8309 133
Width: 327
VWidth: 1920
Flags: HMW
LayerCount: 2
Fore
SplineSet
53 844 m 2
 118 844 l 2
 120 844 121 842 121 838 c 0
 125 764 123.5 681 162.5 681 c 4
 202 681 210 766 210 862 c 2
 210 937 l 2
 210 1037 206.5 1126 171.5 1126 c 0
 150.5 1126 142.5 1063 135 1021 c 0
 134.01953125 1015.50878906 132 1015 130 1015 c 2
 59 1015 l 2
 57 1015 56 1016 56.5 1021 c 2
 89 1457 l 2
 89.5 1461 90.5 1463 92.5 1463 c 2
 266.5 1463 l 2
 268.5 1463 269.5 1461 269.5 1457 c 2
 269.5 1428 l 2
 269.5 1386 260.5 1382 209.5 1382 c 2
 153 1382 l 1
 124.5 1070 l 1
 113 1070 l 1
 129.5 1144 137 1216 195 1216 c 0
 260 1216 287 1117 287 919 c 2
 287 880 l 2
 287 692 253.5 602 162.5 602 c 0
 82.5 602 54.5 694 50 838 c 0
 50 842 51 844 53 844 c 2
EndSplineSet
EndChar

StartChar: uni2076
Encoding: 8310 8310 134
Width: 318
VWidth: 1920
Flags: HMW
LayerCount: 2
Fore
SplineSet
156.5 1094 m 260
 131.5 1094 115.5 1055 115.5 965 c 262
 115.5 883 l 261
 97.5 943 l 261
 97.5 1081 126.5 1184 173.5 1184 c 260
 235.5 1184 268 1108 268 964 c 262
 268 814 l 262
 268 677 233.5 609 151 609 c 260
 63 609 50 700 50 886 c 262
 50 1196 l 262
 50 1394 70.5 1491 158.5 1491 c 260
 232.5 1491 251.5 1389 251.5 1279 c 262
 251.5 1261 l 6
 251.5 1257 250.5 1255 248.5 1255 c 6
 183.5 1255 l 6
 181.5 1255 180.5 1257 180.5 1261 c 6
 180.5 1319 l 262
 180.5 1369 178.5 1401 154.5 1401 c 260
 121.5 1401 115.5 1343 115.5 1173 c 262
 115.5 843 l 262
 115.5 749 117 699 153 699 c 260
 182.5 699 191 752 191 840 c 262
 191 944 l 262
 191 1034 183.5 1094 156.5 1094 c 260
EndSplineSet
EndChar

StartChar: uni2077
Encoding: 8311 8311 135
Width: 221
VWidth: 1920
Flags: HMW
LayerCount: 2
Fore
SplineSet
205.5 1464 m 2
 119 636 l 2
 118 632 117 630 115 630 c 2
 38 630 l 2
 36 630 35 632 36 636 c 2
 113 1374 l 261
 18 1374 l 6
 16 1374 15 1376 15 1380 c 6
 15 1464 l 2
 15 1468 16 1470 18 1470 c 2
 204 1470 l 2
 206 1470 206.5 1468 205.5 1464 c 2
EndSplineSet
EndChar

StartChar: uni2078
Encoding: 8312 8312 136
Width: 281
VWidth: 1920
Flags: HMW
LayerCount: 2
Fore
SplineSet
138 673 m 256
 162 673 174 693.5 174 732.5 c 258
 174 968 l 258
 174 1007 162 1028 138 1028 c 256
 114 1028 107 1007 107 968 c 258
 107 732.5 l 258
 107 693.5 114 673 138 673 c 256
138 1093 m 256
 158 1093 169 1106.5 169 1142 c 262
 169 1376.5 l 262
 169 1409.5 157.5 1427 138 1427 c 256
 123.5 1427 112 1409.5 112 1376.5 c 258
 112 1142 l 258
 112 1106.5 123 1093 138 1093 c 256
147.5 1068 m 257
 221.5 1068 251 1027 251 957.5 c 258
 251 724 l 258
 251 650 230.5 609.5 138 609.5 c 256
 45.5 609.5 30 650 30 724 c 258
 30 957.5 l 258
 30 1027 54.5 1068 128.5 1068 c 257
 129.5 1056 l 257
 59.5 1057.5 35 1091 35 1157.5 c 258
 35 1385 l 258
 35 1451.5 67.5 1490.5 138 1490.5 c 256
 208.5 1490.5 246 1451.5 246 1385 c 262
 246 1157.5 l 262
 246 1091 216.5 1057.5 146.5 1056 c 257
 147.5 1068 l 257
EndSplineSet
EndChar

StartChar: uni2079
Encoding: 8313 8313 137
Width: 256
VWidth: 1920
Flags: HMW
LayerCount: 2
Fore
SplineSet
129.5 1006 m 256
 154.5 1006 170.5 1045 170.5 1135 c 258
 170.5 1217 l 257
 188.5 1157 l 257
 188.5 1019 159.5 916 112.5 916 c 256
 50.5 916 18 992 18 1136 c 258
 18 1286 l 258
 18 1423 52.5 1491 135 1491 c 256
 223 1491 236 1400 236 1214 c 258
 236 904 l 258
 236 706 215.5 609 117.5 609 c 260
 33.5 609 14.5 711 14.5 821 c 258
 14.5 839 l 2
 14.5 843 15.5 845 17.5 845 c 2
 82.5 845 l 2
 84.5 845 85.5 843 85.5 839 c 2
 85.5 781 l 258
 85.5 731 87.5 699 121.5 699 c 260
 164.5 699 170.5 757 170.5 927 c 258
 170.5 1257 l 258
 170.5 1351 169 1401 133 1401 c 256
 103.5 1401 95 1348 95 1260 c 258
 95 1156 l 258
 95 1066 102.5 1006 129.5 1006 c 256
EndSplineSet
EndChar

StartChar: uni00B9
Encoding: 185 185 138
Width: 258
VWidth: 1920
Flags: HMW
LayerCount: 2
Fore
SplineSet
94 1465 m 0
 110 1466 129 1478 132 1504 c 0
 132 1508 134 1510 136 1510 c 2
 164 1510 l 2
 166 1510 168 1508 168 1504 c 2
 168 646 l 2
 168 642 166 640 164 640 c 2
 94 640 l 2
 92 640 90 642 90 646 c 2
 90 1458 l 2
 90 1462 92 1465 94 1465 c 0
EndSplineSet
EndChar

StartChar: cent
Encoding: 162 162 154
Width: 358
VWidth: 1920
Flags: HMW
LayerCount: 2
Fore
SplineSet
183 1240 m 6
 213 1240 l 6
 217 1240 218 1240 218 1236 c 6
 218 -186 l 6
 218 -190 217 -190 213 -190 c 6
 183 -190 l 6
 179 -190 178 -190 178 -186 c 6
 178 1236 l 6
 178 1240 179 1240 183 1240 c 6
EndSplineSet
Refer: 40 99 N 1 0 0 1 0 0 2
EndChar

StartChar: uni203D
Encoding: 8253 8253 157
Width: 496
VWidth: 1920
Flags: HMW
LayerCount: 2
Fore
SplineSet
185 950 m 6
 185 1180 l 6
 185 1187 188 1190 195 1190 c 6
 280 1190 l 6
 287 1190 290 1187 290 1180 c 6
 290 950 l 6
 290 943 289.817382812 936.903320312 289 930 c 6
 261 440 l 6
 260.182617188 433.096679688 257 430 250 430 c 6
 235 430 l 6
 228 430 214.817382812 433.096679688 214 440 c 6
 186 930 l 6
 185.182617188 936.903320312 185 943 185 950 c 6
258 0 m 2
 173 0 l 2
 166 0 163 3 163 10 c 2
 163 200 l 2
 163 207 166 210 173 210 c 2
 258 210 l 2
 265 210 268 207 268 200 c 2
 268 10 l 2
 268 3 265 0 258 0 c 2
263 430 m 2
 228 430 l 2
 224 430 232 431 232 434 c 0
 211 595 346 595 346 982 c 258
 346 1183 l 258
 346 1243 320 1341 242 1341 c 256
 162 1341 140 1241 140 1175 c 258
 140 957 l 2
 140 953 140 952 136 952 c 2
 56 952 l 2
 52 952 50 953 50 957 c 2
 50 1175 l 258
 50 1287 94 1417 248 1417 c 256
 386 1417 446 1295 446 1185 c 258
 446 994 l 258
 446 687 298 637 269 434 c 0
 268.576171875 431.030273438 266 430 263 430 c 2
EndSplineSet
EndChar

StartChar: ordfeminine
Encoding: 170 170 159
Width: 364
VWidth: 1920
Flags: HMW
LayerCount: 2
Fore
SplineSet
105 834 m 0
 105 730 119 679 153 679 c 256
 195 679 219 806 219 952 c 257
 239 902 l 257
 239 759 219 609 133 609 c 260
 63 609 35 699 35 834 c 0
 35 985 82 1047 160 1096 c 256
 196.229599205 1118.75962001 219 1159 219 1242 c 257
 239 1162 l 257
 239 1099 232.77482375 1078.45949337 183 1044 c 256
 144 1017 105 964 105 834 c 0
219 852 m 258
 219 1262 l 258
 219 1342 217 1419 179 1419 c 256
 139 1419 134 1362.02631123 134 1226 c 0
 134 1220 133 1217 129 1217 c 2
 64 1217 l 2
 60 1217 60 1220 60 1226 c 0
 72 1379 71 1489 179 1489 c 256
 284 1489 299 1395 299 1187 c 258
 299 852 l 258
 299 758 310 693 328 651 c 0
 330 646 330 644 326 644 c 2
 254 644 l 2
 250 644 248 646 246 650 c 0
 228 693 219 757 219 852 c 258
EndSplineSet
EndChar

StartChar: exclamdown
Encoding: 161 161 160
Width: 275
VWidth: 1920
Flags: HMW
LayerCount: 2
Fore
SplineSet
95 1050 m 2
 180 1050 l 2
 187 1050 190 1047 190 1040 c 2
 190 850 l 2
 190 843 187 840 180 840 c 2
 95 840 l 2
 88 840 85 843 85 850 c 2
 85 1040 l 2
 85 1047 88 1050 95 1050 c 2
190 100 m 2
 190 -390 l 2
 190 -397 187 -400 180 -400 c 2
 95 -400 l 2
 88 -400 85 -397 85 -390 c 2
 85 100 l 2
 85 107 85.1826171875 113.096679688 86 120 c 2
 114 610 l 2
 114.817382812 616.903320312 118 620 125 620 c 2
 150 620 l 2
 157 620 160.182617188 616.903320312 161 610 c 2
 189 120 l 2
 189.817382812 113.096679688 190 107 190 100 c 2
EndSplineSet
EndChar

StartChar: AE
Encoding: 198 198 161
Width: 749
VWidth: 1920
InSpiro: 1
Flags: HMW
LayerCount: 2
Fore
SplineSet
179 495 m 0
 419 495 l 0
 419 420 l 0
 179 420 l 0
 179 495 l 0
  Spiro
    179 495 v
    419 495 v
    419 420 v
    179 420 v
    0 0 z
  EndSpiro
420 1400 m 1
 98 10 l 2
 94.3388671875 4.4189453125 92 0 85 0 c 2
 29 0 l 2
 22 0 18.638671875 4.896484375 22 10 c 2
 341 1390 l 2
 344.362304688 1395.10351562 347 1400 354 1400 c 2
 420 1400 l 1
  Spiro
    420 1400 v
    98 10 ]
    94.5615 4.93138 o
    90.6633 1.34978 o
    85 0 [
    29 0 ]
    23.3313 1.45574 o
    20.7646 5.14362 o
    22 10 [
    341 1390 ]
    344.306 1394.86 o
    348.27 1398.54 o
    354 1400 [
    0 0 z
  EndSpiro
EndSplineSet
Refer: 16 69 N 1 0 0 1 309.001 0 2
EndChar

StartChar: questiondown
Encoding: 191 191 162
Width: 396
VWidth: 1920
Flags: HMW
LayerCount: 2
Fore
SplineSet
188 1050 m 2
 273 1050 l 2
 280 1050 283 1047 283 1040 c 2
 283 850 l 2
 283 843 280 840 273 840 c 2
 188 840 l 2
 181 840 178 843 178 850 c 2
 178 1040 l 2
 178 1047 181 1050 188 1050 c 2
193 650 m 2
 238 650 l 2
 242 650 244 649 244 646 c 0
 265 485 150 455 150 68 c 258
 150 -133 l 258
 150 -193 156 -291 204 -291 c 256
 254 -291 256 -191 256 -125 c 258
 256 93 l 2
 256 97 256 98 260 98 c 2
 340 98 l 2
 344 98 346 97 346 93 c 2
 346 -125 l 258
 346 -237 322 -367 198 -367 c 256
 90 -367 50 -245 50 -135 c 258
 50 56 l 258
 50 363 158 443 187 646 c 0
 187.423828125 648.969726562 190 650 193 650 c 2
EndSplineSet
EndChar

StartChar: yen
Encoding: 165 165 163
Width: 440
VWidth: 1920
Flags: HMW
LayerCount: 2
Fore
SplineSet
35 479 m 10
 35 531 l 18
 35 535 36 536 40 536 c 10
 400 536 l 22
 404 536 405 535 405 531 c 14
 405 479 l 22
 405 475 404 474 400 474 c 14
 40 474 l 18
 36 474 35 475 35 479 c 10
35 614 m 10
 35 666 l 18
 35 670 36 671 40 671 c 10
 400 671 l 22
 404 671 405 670 405 666 c 14
 405 614 l 22
 405 610 404 609 400 609 c 14
 40 609 l 18
 36 609 35 610 35 614 c 10
EndSplineSet
Refer: 36 89 N 1 0 0 1 0 0 2
EndChar

StartChar: gravecomb
Encoding: 768 768 164
Width: 0
Flags: HMW
AnchorPoint: "top" -611.25 1000 mark 0
LayerCount: 2
Fore
SplineSet
-561.75 1104 m 2
 -611.75 1104 l 2
 -615.25 1104 -619.25 1109 -621.75 1114 c 2
 -759.25 1390 l 2
 -761.75 1395 -762.75 1400 -759.25 1400 c 2
 -654.25 1400 l 2
 -650.75 1400 -648.25 1397 -646.25 1390 c 2
 -559.75 1114 l 2
 -557.75 1107 -558.25 1104 -561.75 1104 c 2
EndSplineSet
EndChar

StartChar: acutecomb
Encoding: 769 769 165
Width: 0
Flags: HMW
AnchorPoint: "top" -548 1000 mark 0
LayerCount: 2
Fore
SplineSet
-549 1104 m 6
 -553 1104 -553 1107 -551 1114 c 6
 -465 1390 l 6
 -463 1397 -461 1400 -457 1400 c 6
 -352 1400 l 6
 -348 1400 -350 1395 -352 1390 c 6
 -489 1114 l 6
 -491 1109 -495 1104 -499 1104 c 6
 -549 1104 l 6
EndSplineSet
EndChar

StartChar: uni0302
Encoding: 770 770 166
Width: 0
VWidth: 1920
Flags: HMW
AnchorPoint: "top" -557 1000.48 mark 0
LayerCount: 2
Fore
SplineSet
-557.5 1291.48144531 m 261
 -630.5 1110 l 6
 -632.614257812 1104.74316406 -636.5 1100 -640 1100 c 6
 -692.5 1100 l 6
 -696 1100 -697.522460938 1103.77734375 -695.5 1110 c 6
 -604.5 1390 l 6
 -601.877929688 1398.06640625 -601 1400 -597.5 1400 c 6
 -517.5 1400 l 6
 -514 1400 -513.213867188 1397.91601562 -510.5 1390 c 6
 -414.5 1110 l 6
 -412.401367188 1103.87890625 -411.252929688 1100 -417.5 1100 c 6
 -470 1100 l 6
 -475.21484375 1100 -477.372070312 1105.04785156 -479.5 1110 c 6
 -557.5 1291.48144531 l 261
  Spiro
    -557.5 1291.48 v
    -630.5 1110 ]
    -633.122 1105.08 o
    -636.455 1101.42 o
    -640 1100 [
    -692.5 1100 ]
    -695.281 1101.21 o
    -696.399 1104.65 o
    -695.5 1110 [
    -604.5 1390 ]
    -602.3 1396.17 o
    -600.285 1399.2 o
    -597.5 1400 [
    -517.5 1400 ]
    -514.735 1399.17 o
    -512.741 1396.11 o
    -510.5 1390 [
    -414.5 1110 ]
    -412.958 1104.69 o
    -413.481 1101.23 o
    -417.5 1100 [
    -470 1100 ]
    -474.304 1101.49 o
    -477.253 1105.21 o
    -479.5 1110 [
    0 0 z
  EndSpiro
EndSplineSet
EndChar

StartChar: tildecomb
Encoding: 771 771 167
Width: 0
Flags: HMW
AnchorPoint: "top" -571.505 1000 mark 0
LayerCount: 2
Fore
SplineSet
-636.504882812 1239 m 260
 -667.548828125 1239 -660.943359375 1189.86816406 -662.462890625 1157 c 4
 -662.739257812 1151.0234375 -664.047851562 1148 -667.504882812 1148 c 6
 -717.504882812 1148 l 6
 -721.049804688 1148 -722.603515625 1151.00097656 -722.4609375 1157 c 4
 -720.365234375 1245.38476562 -686.782226562 1297 -631.504882812 1297 c 260
 -557.004882812 1297 -534.004882812 1182 -493.004882812 1182 c 260
 -462.069335938 1182 -468.690429688 1240.80957031 -467.057617188 1273 c 4
 -466.704101562 1279.96679688 -465.452148438 1283 -462.004882812 1283 c 6
 -412.504882812 1283 l 6
 -408.950195312 1283 -407.380859375 1279.99902344 -407.559570312 1273 c 4
 -409.807617188 1185.125 -442.864257812 1134 -498.004882812 1134 c 260
 -572.504882812 1134 -595.504882812 1239 -636.504882812 1239 c 260
EndSplineSet
EndChar

StartChar: uni0304
Encoding: 772 772 168
Width: 0
VWidth: 1920
Flags: HMW
AnchorPoint: "top" -560 1000 mark 0
LayerCount: 2
Fore
SplineSet
-695 1234 m 14
 -695 1291 l 22
 -695 1295 -694 1296 -690 1296 c 14
 -430 1296 l 22
 -426 1296 -425 1295 -425 1291 c 14
 -425 1234 l 22
 -425 1230 -426 1229 -430 1229 c 14
 -690 1229 l 22
 -694 1229 -695 1230 -695 1234 c 14
EndSplineSet
EndChar

StartChar: uni0306
Encoding: 774 774 169
Width: 0
VWidth: 1920
Flags: HMW
AnchorPoint: "top" -560 1000 mark 0
LayerCount: 2
Fore
SplineSet
-560 1306 m 4
 -505 1306 -472 1333 -472 1367 c 4
 -472 1371 -472 1372 -468 1372 c 6
 -410 1372 l 6
 -406 1372 -405 1371 -405 1365 c 4
 -409 1294 -458 1241 -560 1241 c 4
 -662 1241 -712 1295 -715 1367 c 4
 -715 1371 -714 1372 -710 1372 c 6
 -652 1372 l 6
 -648 1372 -648 1371 -648 1366 c 4
 -648 1331 -614 1306 -560 1306 c 4
EndSplineSet
EndChar

StartChar: uni0307
Encoding: 775 775 170
Width: 0
Flags: HMW
AnchorPoint: "top" -549 1148 mark 0
LayerCount: 2
Fore
SplineSet
-502 1242 m 2
 -598 1242 l 2
 -602 1242 -602 1244 -602 1248 c 2
 -602 1342 l 2
 -602 1346 -602 1348 -598 1348 c 2
 -502 1348 l 2
 -498 1348 -498 1346 -498 1342 c 2
 -498 1248 l 2
 -498 1244 -498 1242 -502 1242 c 2
EndSplineSet
EndChar

StartChar: uni0308
Encoding: 776 776 171
Width: 0
Flags: HMW
AnchorPoint: "top" -548 1000 mark 0
LayerCount: 2
Fore
SplineSet
-585 1132 m 6
 -680 1132 l 6
 -684 1132 -685 1134 -685 1138 c 6
 -685 1232 l 6
 -685 1236 -684 1238 -680 1238 c 6
 -585 1238 l 6
 -581 1238 -580 1236 -580 1232 c 6
 -580 1138 l 6
 -580 1134 -581 1132 -585 1132 c 6
-410 1132 m 6
 -505 1132 l 6
 -509 1132 -510 1134 -510 1138 c 6
 -510 1232 l 6
 -510 1236 -509 1238 -505 1238 c 6
 -410 1238 l 6
 -406 1238 -405 1236 -405 1232 c 6
 -405 1138 l 6
 -405 1134 -406 1132 -410 1132 c 6
EndSplineSet
EndChar

StartChar: uni030A
Encoding: 778 778 172
Width: 0
Flags: HMW
AnchorPoint: "top" -554 1000 mark 0
LayerCount: 2
Fore
SplineSet
-458 1212 m 4
 -458 1160 -502 1117 -554 1117 c 4
 -607 1117 -652 1159 -652 1212 c 4
 -652 1263 -607 1307 -554 1307 c 4
 -501 1307 -458 1266 -458 1212 c 4
-504 1212 m 4
 -504 1240 -527 1260 -554 1260 c 4
 -581 1260 -604 1237 -604 1212 c 4
 -604 1185 -581 1164 -554 1164 c 4
 -528 1164 -504 1187 -504 1212 c 4
EndSplineSet
EndChar

StartChar: uni030B
Encoding: 779 779 173
Width: 0
Flags: HMW
AnchorPoint: "top" -542.25 1000 mark 0
LayerCount: 2
Fore
SplineSet
-481.75 1104 m 2
 -485.25 1104 -485.75 1107 -483.75 1114 c 2
 -397.25 1390 l 2
 -395.25 1397 -392.75 1400 -389.25 1400 c 2
 -284.25 1400 l 2
 -280.75 1400 -281.75 1395 -284.25 1390 c 2
 -421.75 1114 l 2
 -424.25 1109 -428.25 1104 -431.75 1104 c 2
 -481.75 1104 l 2
-646.75 1104 m 2
 -650.25 1104 -650.75 1107 -648.75 1114 c 2
 -562.25 1390 l 2
 -560.25 1397 -557.75 1400 -554.25 1400 c 2
 -449.25 1400 l 2
 -445.75 1400 -446.75 1395 -449.25 1390 c 2
 -586.75 1114 l 2
 -589.25 1109 -593.25 1104 -596.75 1104 c 2
 -646.75 1104 l 2
EndSplineSet
EndChar

StartChar: uni030C
Encoding: 780 780 174
Width: 0
Flags: HMW
AnchorPoint: "top" -554 1000 mark 0
LayerCount: 2
Fore
SplineSet
-554 1229 m 257
 -481 1410.48144531 l 2
 -478.885742188 1415.73828125 -475 1420.48144531 -471.5 1420.48144531 c 2
 -419 1420.48144531 l 2
 -415.5 1420.48144531 -413.977539062 1416.70410156 -416 1410.48144531 c 2
 -507 1130.48144531 l 2
 -509.622070312 1122.41503906 -510.5 1120.48144531 -514 1120.48144531 c 2
 -594 1120.48144531 l 2
 -597.5 1120.48144531 -598.286132812 1122.56542969 -601 1130.48144531 c 2
 -697 1410.48144531 l 2
 -699.098632812 1416.60253906 -700.247070312 1420.48144531 -694 1420.48144531 c 2
 -641.5 1420.48144531 l 2
 -636.28515625 1420.48144531 -634.127929688 1415.43359375 -632 1410.48144531 c 2
 -554 1229 l 257
  Spiro
    -554 1229 v
    -481 1410.48 ]
    -478.378 1415.41 o
    -475.045 1419.06 o
    -471.5 1420.48 [
    -419 1420.48 ]
    -416.219 1419.27 o
    -415.101 1415.84 o
    -416 1410.48 [
    -507 1130.48 ]
    -509.2 1124.31 o
    -511.215 1121.28 o
    -514 1120.48 [
    -594 1120.48 ]
    -596.765 1121.31 o
    -598.759 1124.38 o
    -601 1130.48 [
    -697 1410.48 ]
    -698.542 1415.79 o
    -698.019 1419.25 o
    -694 1420.48 [
    -641.5 1420.48 ]
    -637.196 1418.99 o
    -634.247 1415.27 o
    -632 1410.48 [
    0 0 z
  EndSpiro
EndSplineSet
EndChar

StartChar: uni030F
Encoding: 783 783 175
Width: 0
Flags: HMW
AnchorPoint: "top" -571.25 1000 mark 0
LayerCount: 2
Fore
SplineSet
-454.25 1104 m 2
 -504.25 1104 l 2
 -507.75 1104 -511.75 1109 -514.25 1114 c 2
 -651.75 1390 l 2
 -654.25 1395 -655.25 1400 -651.75 1400 c 2
 -546.75 1400 l 2
 -543.25 1400 -540.75 1397 -538.75 1390 c 2
 -452.25 1114 l 2
 -450.25 1107 -450.75 1104 -454.25 1104 c 2
-619.25 1104 m 2
 -669.25 1104 l 2
 -672.75 1104 -676.75 1109 -679.25 1114 c 2
 -816.75 1390 l 2
 -819.25 1395 -820.25 1400 -816.75 1400 c 2
 -711.75 1400 l 2
 -708.25 1400 -705.75 1397 -703.75 1390 c 2
 -617.25 1114 l 2
 -615.25 1107 -615.75 1104 -619.25 1104 c 2
EndSplineSet
EndChar

StartChar: uni0311
Encoding: 785 785 176
Width: 0
Flags: HMW
AnchorPoint: "top" -604 1152 mark 0
LayerCount: 2
Fore
SplineSet
-604 1304 m 0
 -659 1304 -692 1277 -692 1243 c 0
 -692 1239 -693 1238 -697 1238 c 2
 -754 1238 l 2
 -758 1238 -759 1240 -759 1245 c 0
 -755 1316 -706 1369 -604 1369 c 0
 -502 1369 -452 1315 -449 1243 c 0
 -449 1239 -450 1238 -454 1238 c 2
 -512 1238 l 2
 -516 1238 -517 1239 -517 1244 c 0
 -517 1279 -550 1304 -604 1304 c 0
EndSplineSet
EndChar

StartChar: dotbelowcomb
Encoding: 803 803 177
Width: 0
Flags: HMW
AnchorPoint: "bottom" -551 0 mark 0
LayerCount: 2
Fore
SplineSet
-502 -308 m 6
 -598 -308 l 6
 -602 -308 -602 -306 -602 -302 c 6
 -602 -208 l 6
 -602 -204 -602 -202 -598 -202 c 6
 -502 -202 l 6
 -498 -202 -498 -204 -498 -208 c 6
 -498 -302 l 6
 -498 -306 -498 -308 -502 -308 c 6
EndSplineSet
EndChar

StartChar: uni0326
Encoding: 806 806 178
Width: 0
Flags: HMW
AnchorPoint: "bottom" -561 0 mark 0
LayerCount: 2
Fore
SplineSet
-614 -465 m 6
 -629 -465 l 6
 -633 -465 -633 -464 -631 -460 c 6
 -579 -360 l 261
 -614 -360 l 6
 -618 -360 -619 -359 -619 -355 c 6
 -619 -260 l 6
 -619 -256 -618 -255 -614 -255 c 6
 -519 -255 l 6
 -515 -255 -514 -256 -514 -260 c 6
 -514 -350 l 6
 -514 -354 -514 -356 -518 -360 c 6
 -604 -460 l 6
 -607 -464 -610 -465 -614 -465 c 6
EndSplineSet
EndChar

StartChar: uni0327
Encoding: 807 807 179
Width: 1200
Flags: HMW
AnchorPoint: "bottom" -511 0 mark 0
LayerCount: 2
Fore
SplineSet
-610 -480 m 0
 -650 -480 -678 -472 -704 -455 c 0
 -709 -452 -710 -452 -707 -447 c 2
 -689 -407 l 2
 -687 -402 -687 -402 -682 -404 c 0
 -656 -418 -635 -421 -610 -421 c 0
 -563 -421 -530 -412 -530 -326 c 0
 -530 -243 -570 -231 -634 -230 c 0
 -641 -230 -640 -230 -642 -225 c 2
 -650 -208 l 2
 -652 -203 -650 -201 -648 -198 c 2
 -507 30 l 1
 -436 30 l 1
 -580 -196 l 1
 -572 -194 -564 -192 -556 -192 c 0
 -513 -192 -458 -216 -458 -326 c 0
 -458 -450 -533 -480 -610 -480 c 0
EndSplineSet
EndChar

StartChar: uni0328
Encoding: 808 808 180
Width: 1200
Flags: HMW
AnchorPoint: "ogonek" -551 0 mark 0
LayerCount: 2
Fore
SplineSet
-536 -308 m 2
 -536 -368 l 2
 -536 -372 -538 -372 -542 -372 c 2
 -582 -372 l 2
 -676 -372 -732 -311 -732 -212 c 4
 -732 -103 -662 -51 -542 34 c 5
 -512 0 l 5
 -604 -71 -652 -106 -652 -198 c 4
 -652 -269 -616 -302 -576 -302 c 2
 -542 -302 l 2
 -538 -302 -536 -304 -536 -308 c 2
EndSplineSet
EndChar

StartChar: uni0312
Encoding: 786 786 181
Width: 0
Flags: HMW
AnchorPoint: "top" -604 950 mark 0
LayerCount: 2
Fore
SplineSet
-533 1430 m 6
 -528 1430 l 6
 -521 1430 -517.53515625 1427.703125 -520 1420 c 6
 -579 1220 l 261
 -550 1220 l 6
 -541.479492188 1220 -540 1218.59570312 -540 1210 c 6
 -540 1020 l 6
 -540 1013 -543 1010 -550 1010 c 6
 -635 1010 l 6
 -642 1010 -645 1013 -645 1020 c 6
 -645 1203 l 6
 -645 1210 -644.57421875 1212.23144531 -641 1220 c 6
 -549 1420 l 6
 -544.947265625 1428.81054688 -541 1430 -533 1430 c 6
EndSplineSet
EndChar

StartChar: sterling
Encoding: 163 163 182
Width: 470
VWidth: 1920
Flags: HMW
LayerCount: 2
Fore
SplineSet
65 662 m 10
 65 710 l 18
 65 714 66 715 70 715 c 10
 310 715 l 18
 314 715 315 714 315 710 c 10
 315 662 l 18
 315 658 314 658 310 658 c 10
 70 658 l 18
 66 658 65 658 65 662 c 10
42 77 m 0
 100 135 164 362 164 597 c 0
 164 796 70 907 70 1101 c 4
 70 1306 94 1417 238 1417 c 0
 385 1417 405 1285 405 967 c 0
 405 963 404 963 400 963 c 2
 325 963 l 2
 322 963 320.032920696 963.000135474 320 967 c 0
 318 1210 319 1347 242 1347 c 0
 164 1347 160 1281 160 1111 c 4
 160 945 244 810 244 597 c 0
 244 376 178 121 119 78 c 1
 415 78 l 2
 419 78 420 76 420 72 c 2
 420 5 l 2
 420 1 419 0 415 0 c 2
 45 0 l 2
 41 0 40 1 40 5 c 2
 40 72 l 2
 40 74 40 75 42 77 c 0
EndSplineSet
EndChar

StartChar: currency
Encoding: 164 164 183
Width: 1112
Flags: HMW
LayerCount: 2
Fore
SplineSet
754 956 m 14
 798 912 l 22
 800 910 800 907 798 905 c 14
 717 823 l 22
 715 821 712 821 710 823 c 14
 666 867 l 22
 664 869 664 873 666 875 c 14
 747 956 l 22
 749 958 752 958 754 956 c 14
390 592 m 14
 434 548 l 22
 436 546 436 542 434 540 c 14
 353 459 l 22
 351 457 348 457 346 459 c 14
 302 503 l 22
 300 505 300 508 302 510 c 14
 383 592 l 22
 385 594 388 594 390 592 c 14
302 912 m 14
 346 956 l 22
 348 958 351 958 353 956 c 14
 434 875 l 22
 436 873 436 869 434 867 c 14
 390 823 l 22
 388 821 385 821 383 823 c 14
 302 905 l 22
 300 907 300 910 302 912 c 14
666 548 m 14
 710 592 l 22
 712 594 715 594 717 592 c 14
 798 510 l 22
 800 508 800 505 798 503 c 14
 754 459 l 22
 752 457 749 457 747 459 c 14
 666 540 l 22
 664 542 664 546 666 548 c 14
306 709 m 0
 306 843 418 954 552 954 c 0
 686 954 796 843 796 709 c 0
 796 575 686 464 552 464 c 0
 418 464 306 575 306 709 c 0
386 709 m 0
 386 615 458 539 552 539 c 0
 646 539 716 615 716 709 c 0
 716 803 646 879 552 879 c 0
 458 879 386 803 386 709 c 0
EndSplineSet
EndChar

StartChar: brokenbar
Encoding: 166 166 184
Width: 415
VWidth: 1920
Flags: HMW
LayerCount: 2
Fore
SplineSet
173 430 m 14
 243 430 l 22
 247 430 248 427 248 420 c 14
 248 -350 l 22
 248 -357 247 -360 243 -360 c 14
 173 -360 l 22
 169 -360 168 -357 168 -350 c 14
 168 420 l 22
 168 427 169 430 173 430 c 14
173 1600 m 14
 243 1600 l 22
 247 1600 248 1597 248 1590 c 14
 248 820 l 22
 248 813 247 810 243 810 c 14
 173 810 l 22
 169 810 168 813 168 820 c 14
 168 1590 l 22
 168 1597 169 1600 173 1600 c 14
EndSplineSet
EndChar

StartChar: section
Encoding: 167 167 185
Width: 568
VWidth: 1920
Flags: HMW
LayerCount: 2
Fore
SplineSet
254 850 m 257
 181.5 850 135 736 135 618 c 256
 135 461 166.615234375 384.002929688 257.5 281 c 256
 377.5 145 450 67 450 -93 c 256
 450 -275 382.5 -400 269 -400 c 256
 152 -400 99.5 -267 92.5 -57 c 0
 92.5 -51 94 -48 97.5 -48 c 2
 167 -48 l 2
 170.5 -48 172 -51 172.5 -58 c 0
 179.5 -188 198.5 -325 270 -325 c 256
 334 -325 365 -250 365 -110 c 256
 365 28 315 81 232.5 172 c 256
 90.921875 328.1640625 50 466 50 593 c 256
 50 795 127.5 900 259.5 900 c 257
 254 850 l 257
  Spiro
    254 850 v
    190.979 816.138 o
    149.712 730.489 o
    135 618 o
    146.539 483.857 o
    185.402 379.163 o
    257.5 281 o
    360.655 159.261 o
    426.805 44.731 o
    450 -93 o
    428.339 -253.345 o
    366.29 -360.928 o
    269 -400 o
    172.872 -357.823 o
    115.331 -239.107 o
    92.5 -57 o
    93.0175 -52.004 o
    94.6504 -48.998 o
    97.5 -48 [
    167 -48 ]
    169.868 -49.0349 o
    171.631 -52.3007 o
    172.5 -58 o
    184.981 -184.881 o
    214.541 -284.742 o
    270 -325 o
    323.032 -300.419 o
    354.613 -227.867 o
    365 -110 o
    349.013 4.12721 o
    303.46 89.1904 o
    232.5 172 o
    122.343 322.187 o
    65.8191 462.246 o
    50 593 o
    74.9324 762.234 o
    146.612 865.365 o
    259.5 900 v
    0 0 z
  EndSpiro
314 185 m 257
 386.5 185 433 299 433 417 c 256
 433 524 401.384765625 650.997070312 310.5 754 c 256
 190.5 890 118 968 118 1128 c 256
 118 1310 185.5 1435 299 1435 c 256
 416 1435 468.5 1302 475.5 1092 c 0
 475.5 1086 474 1083 470.5 1083 c 2
 401 1083 l 2
 397.5 1083 395.850585938 1085.99121094 395.5 1093 c 0
 388.5 1233 369.5 1360 298 1360 c 256
 234 1360 203 1265 203 1145 c 256
 203 1007 253 954 335.5 863 c 256
 477.078125 706.8359375 518 579 518 442 c 256
 518 240 440.5 135 308.5 135 c 257
 314 185 l 257
EndSplineSet
EndChar

StartChar: copyright
Encoding: 169 169 186
Width: 844
Flags: HMW
LayerCount: 2
Fore
SplineSet
532 612 m 256
 532 346.694214876 532 239 411 239 c 256
 310 239 301 327 301 465 c 258
 301 875 l 258
 301 1025 328 1101 414 1101 c 256
 528.073193488 1101 529 976.45393961 529 770 c 256
 529 768 528 767 526 767 c 258
 481 767 l 258
 479 767 478 768 478 770 c 256
 477 988 466 1053 419 1053 c 256
 372 1053 361 995 361 878 c 258
 361 462 l 258
 361 357 365 287 413 287 c 256
 462 287 480 326 481 612 c 256
 481 614 482 615 484 615 c 258
 529 615 l 258
 531 615 532 614 532 612 c 256
769 668 m 4
 769 284 735 -28 421 -28 c 4
 107 -28 75 284 75 668 c 4
 75 1052 107 1366 421 1366 c 4
 735 1366 769 1052 769 668 c 4
723 668 m 4
 723 1006 709 1320 421 1320 c 4
 133 1320 121 1006 121 668 c 4
 121 330 133 18 421 18 c 4
 709 18 723 330 723 668 c 4
EndSplineSet
EndChar

StartChar: registered
Encoding: 174 174 188
Width: 844
Flags: HMW
LayerCount: 2
Fore
SplineSet
384 1075 m 257
 384 727 l 257
 408 727 l 258
 446 727 461 753 461 825 c 258
 461 977 l 258
 461 1049 446 1075 408 1075 c 258
 384 1075 l 257
  Spiro
    384 1075 v
    384 727 v
    408 727 ]
    438.606 736.388 o
    455.715 767.636 o
    461 825 [
    461 977 ]
    455.715 1034.36 o
    438.606 1065.61 o
    408 1075 [
    0 0 z
  EndSpiro
408 1120 m 258
 482 1120 521 1079 521 971 c 258
 521 837 l 258
 521 729 479 694 408 694 c 257
 408 712 l 257
 479 712 517 689 517 617 c 258
 517 420 l 258
 517 326 527 318 541 298 c 0
 543 294 543 294 543 292 c 2
 543 283 l 2
 543 281 542 280 540 280 c 2
 486 280 l 2
 484 280 483 280 481 282 c 0
 464 312 461 334 461 420 c 258
 461 626 l 258
 461 662 452 682 408 682 c 258
 384 682 l 257
 384 283 l 2
 384 281 383 280 381 280 c 2
 330 280 l 2
 328 280 327 281 327 283 c 2
 327 1117 l 2
 327 1119 328 1120 330 1120 c 2
 408 1120 l 258
  Spiro
    408 1120 ]
    470.135 1105.4 o
    508.174 1057.56 o
    521 971 [
    521 837 ]
    507.508 751.99 o
    468.802 707.047 o
    408 694 v
    408 712 v
    467.766 703.389 o
    504.543 673.587 o
    517 617 [
    517 420 ]
    520.105 351.085 o
    528.566 317.607 o
    541 298 o
    542.407 295.113 o
    542.926 293.554 o
    543 292 [
    543 283 ]
    542.25 280.75 o
    540 280 [
    486 280 ]
    484.261 280.074 o
    482.739 280.593 o
    481 282 o
    468.268 311.967 o
    462.404 352.718 o
    461 420 [
    461 626 ]
    457.046 656.494 o
    441.273 675.494 o
    408 682 [
    384 682 v
    384 283 ]
    383.25 280.75 o
    381 280 [
    330 280 ]
    327.75 280.75 o
    327 283 [
    327 1117 ]
    327.75 1119.25 o
    330 1120 [
    0 0 z
  EndSpiro
769 668 m 0
 769 284 735 -28 421 -28 c 0
 107 -28 75 284 75 668 c 0
 75 1052 107 1366 421 1366 c 0
 735 1366 769 1052 769 668 c 0
  Spiro
    769 668 o
    748.606 317.198 o
    650.623 66.9299 o
    421 -28 o
    191.895 66.9299 o
    94.8769 317.198 o
    75 668 o
    94.8769 1019.32 o
    191.895 1270.55 o
    421 1366 o
    650.623 1270.55 o
    748.606 1019.32 o
    0 0 z
  EndSpiro
723 668 m 0
 723 1006 709 1320 421 1320 c 0
 133 1320 121 1006 121 668 c 0
 121 330 133 18 421 18 c 0
 709 18 723 330 723 668 c 0
  Spiro
    723 668 o
    708.742 986.969 o
    627.162 1226.25 o
    421 1320 o
    215.356 1226.25 o
    134.74 986.969 o
    121 668 o
    134.74 349.548 o
    215.356 111.231 o
    421 18 o
    627.162 111.231 o
    708.742 349.548 o
    0 0 z
  EndSpiro
EndSplineSet
EndChar

StartChar: dotlessi
Encoding: 305 305 279
Width: 225
VWidth: 960
Flags: HMW
AnchorPoint: "top" 115 1050 basechar 0
LayerCount: 2
Fore
SplineSet
160 1045 m 2
 160 5 l 2
 160 1 159 0 155 0 c 2
 70 0 l 2
 66 0 65 1 65 5 c 2
 65 1045 l 2
 65 1049 66 1050 70 1050 c 2
 155 1050 l 2
 159 1050 160 1049 160 1045 c 2
  Spiro
    160 1045 [
    160 5 ]
    159.593 1.92815 o
    158.072 0.406519 o
    155 0 [
    70 0 ]
    66.9281 0.406519 o
    65.4065 1.92815 o
    65 5 [
    65 1045 ]
    65.4065 1048.07 o
    66.9281 1049.59 o
    70 1050 [
    155 1050 ]
    158.072 1049.59 o
    159.593 1048.07 o
    0 0 z
  EndSpiro
EndSplineSet
EndChar

StartChar: uni0237
Encoding: 567 567 291
Width: 225
VWidth: 960
Flags: HMW
AnchorPoint: "top" 111 1050 basechar 0
LayerCount: 2
Fore
SplineSet
160 -49 m 258
 160 -153 159 -200 5 -176 c 0
 1.0478515625 -175.383789062 0 -174 0 -170 c 2
 0 -115 l 2
 0 -112 1.052734375 -110.354492188 5 -111 c 0
 60 -120 65 -103 65 -39 c 258
 65 1045 l 2
 65 1049 66 1050 70 1050 c 2
 155 1050 l 2
 159 1050 160 1049 160 1045 c 2
 160 -49 l 258
EndSplineSet
EndChar

StartChar: kgreenlandic
Encoding: 312 312 298
Width: 391
VWidth: 960
Flags: HMW
LayerCount: 2
Fore
SplineSet
70 1050 m 6
 155 1050 l 6
 159 1050 160 1049 160 1045 c 6
 160 5 l 2
 160 1 158 0 155 0 c 2
 70 0 l 2
 66 0 65 1 65 5 c 2
 65 1045 l 6
 65 1049 66 1050 70 1050 c 6
125 416 m 257
 281 1045 l 2
 281.922851562 1049.01757812 285 1050 289 1050 c 2
 370 1050 l 2
 374 1050 377 1050 375 1045 c 2
 150 366 l 257
 125 416 l 257
204 596 m 1
 250 732 l 25
 392 5 l 26
 393.408203125 0.505859375 393.408203125 0.505859375 390 0 c 26
 300 0 l 26
 295.291015625 0.12109375 292.528320312 1.1328125 292 5 c 26
 204 596 l 1
EndSplineSet
EndChar

StartChar: grave
Encoding: 96 96 339
Width: 311
VWidth: 0
Flags: HMW
LayerCount: 2
Fore
SplineSet
227.686523438 1104 m 2
 177.686523438 1104 l 2
 173.686523438 1104 169.686523438 1109 167.686523438 1114 c 2
 29.6865234375 1390 l 2
 27.6865234375 1395 25.6865234375 1400 29.6865234375 1400 c 2
 135.686523438 1400 l 2
 139.686523438 1400 141.686523438 1397 143.686523438 1390 c 2
 229.686523438 1114 l 2
 231.686523438 1107 231.686523438 1104 227.686523438 1104 c 2
EndSplineSet
EndChar

StartChar: longs
Encoding: 383 383 352
Width: 265
VWidth: 960
Flags: HMW
LayerCount: 2
Fore
SplineSet
85 1337 m 262
 85 1441 100 1478 219 1464 c 4
 224 1463 225 1462 225 1458 c 6
 225 1403 l 6
 225 1400 223 1397 217 1399 c 4
 184 1407 178 1390 178 1327 c 262
 178 5 l 6
 178 1 176 0 172 0 c 6
 90 0 l 6
 86 0 85 1 85 5 c 6
 85 1337 l 262
EndSplineSet
EndChar

StartChar: uni0259
Encoding: 601 601 359
Width: 384
VWidth: 1920
Flags: HMW
LayerCount: 2
Fore
SplineSet
40 640 m 0
 48.4342712638 960.502308023 54.9248392055 1068 196 1068 c 256
 330 1068 344 981 344 826 c 258
 344 223 l 258
 344 73 315 -17 187 -17 c 256
 63 -17 41.7939453125 79.984375 39 188 c 256
 35.4833984375 323.958007812 35 412 35 554 c 0
 35 556 36 558 40 558 c 2
 282 558 l 257
 282 498 l 257
 127 498 l 257
 129 114 129 47 191 47 c 256
 240 47 249 104 249 209 c 258
 249 841 l 258
 249 951 240 1002 192 1002 c 256
 139 1002 131 942 125 638 c 0
 124.9609375 636 123 635 119 635 c 2
 44 635 l 2
 40 635 39.9208984375 637.000976562 40 640 c 0
EndSplineSet
EndChar

StartChar: logicalnot
Encoding: 172 172 373
Width: 600
VWidth: 2048
Flags: HMW
LayerCount: 2
Fore
SplineSet
75 635 m 2
 75 701 l 6
 75 708 76.5 711 80 711 c 6
 520 711 l 6
 523.5 711 525 708 525 701 c 6
 525 325 l 2
 525 318 523.5 315 520 315 c 2
 460 315 l 2
 456.5 315 455 318 455 325 c 2
 455 625 l 1
 80 625 l 2
 76.5 625 75 628 75 635 c 2
EndSplineSet
EndChar

StartChar: acute
Encoding: 180 180 374
Width: 310
Flags: HMW
LayerCount: 2
Fore
SplineSet
83.6904296875 1104 m 6
 79.6904296875 1104 79.6904296875 1107 81.6904296875 1114 c 6
 167.690429688 1390 l 6
 169.690429688 1397 171.690429688 1400 175.690429688 1400 c 6
 280.690429688 1400 l 6
 284.690429688 1400 282.690429688 1395 280.690429688 1390 c 6
 143.690429688 1114 l 6
 141.690429688 1109 137.690429688 1104 133.690429688 1104 c 6
 83.6904296875 1104 l 6
EndSplineSet
EndChar

StartChar: degree
Encoding: 176 176 376
Width: 440
VWidth: 2048
Flags: HMW
LayerCount: 2
Fore
SplineSet
50 1241 m 258
 50 1258 l 258
 50 1353 130 1417 218 1417 c 256
 306 1417 390 1353 390 1258 c 258
 390 1241 l 258
 390 1146 306 1081 218 1081 c 256
 130 1081 50 1146 50 1241 c 258
128 1235 m 258
 128 1175 170 1141 218 1141 c 256
 266 1141 312 1175 312 1235 c 258
 312 1263 l 258
 312 1323 266 1357 218 1357 c 256
 170 1357 128 1323 128 1263 c 258
 128 1235 l 258
EndSplineSet
EndChar

StartChar: plusminus
Encoding: 177 177 377
Width: 576
Flags: HMW
LayerCount: 2
Fore
SplineSet
50 528 m 14
 50 595 l 22
 50 599 52 600 56 600 c 14
 520 600 l 22
 524 600 526 599 526 595 c 14
 526 528 l 22
 526 524 524 522 520 522 c 14
 56 522 l 22
 52 522 50 524 50 528 c 14
50 910 m 14
 50 978 l 22
 50 982 52 982 56 982 c 14
 520 982 l 22
 524 982 526 982 526 978 c 14
 526 910 l 22
 526 906 524 905 520 905 c 14
 56 905 l 22
 52 905 50 906 50 910 c 14
256 1168 m 14
 320 1168 l 22
 324 1168 326 1166 326 1162 c 14
 326 712 l 22
 326 708 324 708 320 708 c 14
 256 708 l 22
 252 708 250 708 250 712 c 14
 250 1162 l 22
 250 1166 252 1168 256 1168 c 14
EndSplineSet
EndChar

StartChar: ae
Encoding: 230 230 379
Width: 563
VWidth: 960
Flags: HMW
LayerCount: 2
Fore
SplineSet
115 236 m 0
 115 99 135 68 165 68 c 256
 197 68 224 161 224 269 c 257
 264 224 l 257
 264 92 223 -18 143 -18 c 256
 71 -18 20 43 20 240 c 0
 20 456 74 520 155 608 c 256
 184.340820312 639.876953125 224 702 224 744 c 257
 244 674 l 257
 244 642 198.525390625 571.02734375 178 540 c 256
 135 475 115 411 115 236 c 0
224 194 m 265
 224 869 l 258
 224 949 223 1003 185 1003 c 256
 146 1003 132 926 129 718 c 0
 128.95703125 715 127 713 124 713 c 2
 49 713 l 2
 45 713 43.9765625 715 44 718 c 0
 46 974 85 1067 198 1067 c 256
 293 1067 284 990 284 841 c 258
 284 194 l 273
 224 194 l 265
523 410 m 0
 513.901429962 64.2543385564 504.130768663 -18 377 -18 c 260
 273 -18 249 69 249 224 c 258
 249 827 l 258
 249 977 268 1067 386 1067 c 256
 500 1067 521.206054688 970.015625 524 862 c 256
 527.516601562 726.041992188 528 638 528 496 c 0
 528 494 527 492 523 492 c 2
 281 492 l 257
 281 552 l 257
 436 552 l 257
 434 936 434 1003 372 1003 c 256
 323 1003 314 946 314 841 c 258
 314 209 l 258
 314 99 323 48 371 48 c 256
 424 48 432 108 438 412 c 0
 438.0390625 414 440 415 444 415 c 2
 519 415 l 2
 523 415 523.079101562 412.999023438 523 410 c 0
EndSplineSet
EndChar

StartChar: paragraph
Encoding: 182 182 380
Width: 532
VWidth: 1920
Flags: HMW
LayerCount: 2
Fore
SplineSet
467 1335 m 5
 467 -350 l 2
 467 -357 466 -360 462 -360 c 2
 397 -360 l 2
 393 -360 392 -357 392 -350 c 2
 392 1335 l 5
 327 1335 l 5
 327 -350 l 2
 327 -357 326 -360 322 -360 c 2
 257 -360 l 2
 253 -360 252 -357 252 -350 c 2
 252 600 l 1
 247 600 l 2
 143 600 50 698 50 968 c 2
 50 1032 l 2
 50 1302 143 1400 247 1400 c 2
 512 1400 l 2
 514 1400 517 1397 517 1390 c 2
 517 1345 l 6
 517 1338 516 1335 512 1335 c 6
 467 1335 l 5
EndSplineSet
EndChar

StartChar: guilsinglleft
Encoding: 8249 8249 381
Width: 630
Flags: HMW
LayerCount: 2
Fore
SplineSet
460 266 m 2
 170 509 l 2
 162.61328125 513.393554688 160 518 160 525 c 2
 160 595 l 2
 160 602 162.61328125 606.606445312 170 611 c 2
 460 824 l 2
 467.38671875 828.393554688 470 827 470 820 c 2
 470 760 l 2
 470 753 467.579101562 748.283203125 460 744 c 2
 209.01953125 555 l 261
 460 346 l 2
 467.579101562 341.716796875 470 337 470 330 c 2
 470 270 l 2
 470 263 467.38671875 261.606445312 460 266 c 2
EndSplineSet
EndChar

StartChar: guilsinglright
Encoding: 8250 8250 382
Width: 630
Flags: HW
LayerCount: 2
Fore
SplineSet
170 824 m 2
 460 591 l 2
 467.38671875 586.606445312 470 582 470 575 c 2
 470 505 l 2
 470 498 467.38671875 493.393554688 460 489 c 2
 170 266 l 2
 162.61328125 261.606445312 160 263 160 270 c 2
 160 330 l 6
 160 337 162.420898438 341.716796875 170 346 c 6
 420.98046875 545 l 257
 170 744 l 2
 162.420898438 748.283203125 160 753 160 760 c 2
 160 820 l 2
 160 827 162.61328125 828.393554688 170 824 c 2
EndSplineSet
EndChar

StartChar: mu
Encoding: 181 181 385
Width: 385
VWidth: 1920
Flags: HW
LayerCount: 2
Fore
SplineSet
60 1050 m 6
 135 1050 l 6
 142 1050 145 1047 145 1040 c 6
 145 -350 l 6
 145 -357 141.595703125 -360 135 -360 c 6
 60 -360 l 6
 53 -360 50 -357 50 -350 c 6
 50 1040 l 6
 50 1047 53 1050 60 1050 c 6
325 0 m 2
 245 0 l 2
 241 0 240 1 240 5 c 2
 240 106 l 257
 235 120 l 257
 235 1045 l 2
 235 1049 236 1050 240 1050 c 2
 325 1050 l 2
 329 1050 330 1049 330 1045 c 2
 330 5 l 2
 330 1 329 0 325 0 c 2
250 174 m 257
 250 64 231 -18 187 -18 c 256
 153 -18 90 44 90 144 c 258
 90 1045 l 2
 90 1049 51 1050 55 1050 c 2
 140 1050 l 2
 144 1050 145 1049 145 1045 c 2
 145 144 l 258
 145 84 153 48 187 48 c 256
 225 48 235 109 235 214 c 257
 250 174 l 257
EndSplineSet
EndChar

StartChar: Eth
Encoding: 208 208 387
Width: 490
VWidth: 1920
Flags: HW
LayerCount: 2
Fore
SplineSet
8 679 m 10
 8 746 l 18
 8 750 8 751 12 751 c 10
 278 751 l 22
 282 751 282 750 282 746 c 14
 282 679 l 22
 282 675 282 674 278 674 c 14
 12 674 l 18
 8 674 8 675 8 679 c 10
EndSplineSet
Refer: 15 68 N 1 0 0 1 0 0 2
EndChar

StartChar: Dcroat
Encoding: 272 272 388
Width: 490
VWidth: 1920
Flags: HW
LayerCount: 2
Fore
SplineSet
8 679 m 14
 8 746 l 22
 8 750 8 751 12 751 c 14
 278 751 l 22
 282 751 282 750 282 746 c 14
 282 679 l 22
 282 675 282 674 278 674 c 14
 12 674 l 22
 8 674 8 675 8 679 c 14
EndSplineSet
Refer: 15 68 N 1 0 0 1 0 0 2
EndChar

StartChar: thorn
Encoding: 254 254 389
Width: 420
VWidth: 960
Flags: HW
LayerCount: 2
Fore
SplineSet
61 1450 m 2
 146 1450 l 2
 150 1450 151 1449 151 1445 c 2
 151 -355 l 6
 151 -359 149 -360 145 -360 c 2
 61 -360 l 2
 57 -360 55 -359 55 -355 c 2
 55 1445 l 2
 55 1449 57 1450 61 1450 c 2
125 852 m 257
 125 997 165 1068 243 1068 c 256
 327 1068 375 996 375 826 c 258
 375 223 l 258
 375 53 327 -17 243 -17 c 256
 165 -17 125 54 125 199 c 257
 151 199 l 257
 151 94 155 53 213 53 c 256
 267 53 281 104 281 209 c 258
 281 842 l 258
 281 947 267 998 213 998 c 256
 155 998 151 957 151 852 c 257
 125 852 l 257
EndSplineSet
EndChar

StartChar: Thorn
Encoding: 222 222 390
Width: 440
VWidth: 1920
Flags: HW
LayerCount: 2
Fore
SplineSet
200 1140 m 2
 316.879882812 1140 388 1102 388 882 c 2
 388 618 l 2
 388 398 317 360 200 360 c 2
 180 360 l 1
 180 10 l 2
 180 3 177 0 170 0 c 2
 95 0 l 2
 88 0 85 3 85 10 c 2
 85 1390 l 2
 85 1397 88 1400 95 1400 c 2
 170 1400 l 2
 177 1400 180 1397 180 1390 c 2
 180 1140 l 1
 200 1140 l 2
180 435 m 1
 200 435 l 2
 267 435 288 488 288 608 c 2
 288 892 l 2
 288 1012 267 1065 200 1065 c 2
 180 1065 l 1
 180 435 l 1
EndSplineSet
EndChar

StartChar: divide
Encoding: 247 247 391
Width: 600
VWidth: 2048
Flags: HW
LayerCount: 2
Fore
SplineSet
50 659 m 10
 50 726 l 18
 50 730 51 731 55 731 c 10
 545 731 l 18
 549 731 550 730 550 726 c 10
 550 659 l 18
 550 655 549 654 545 654 c 10
 55 654 l 18
 51 654 50 655 50 659 c 10
EndSplineSet
Refer: 1 46 N 1 0 0 1 163 930 2
Refer: 1 46 S 1 0 0 1 163 240 2
EndChar

StartChar: multiply
Encoding: 215 215 392
Width: 580
VWidth: 1920
Flags: HW
LayerCount: 2
Fore
SplineSet
478.5 565 m 10
 437.5 524 l 18
 435.5 522 432.5 522 430.5 524 c 10
 101.5 853 l 18
 99.5 855 99.5 858 101.5 860 c 10
 142.5 901 l 18
 144.5 903 147.5 903 149.5 901 c 10
 478.5 572 l 18
 480.5 570 480.5 567 478.5 565 c 10
142.5 524 m 14
 101.5 565 l 22
 99.5 567 99.5 570 101.5 572 c 14
 430.5 901 l 22
 432.5 903 435.5 903 437.5 901 c 14
 478.5 860 l 22
 480.5 858 480.5 855 478.5 853 c 14
 149.5 524 l 22
 147.5 522 144.5 522 142.5 524 c 14
EndSplineSet
EndChar

StartChar: Oslash
Encoding: 216 216 393
Width: 485
VWidth: 1920
Flags: HW
LayerCount: 2
Fore
SplineSet
325 1478 m 6
 352 1471 l 6
 354.359897172 1470.38817481 354.46 1467.22 354 1464 c 6
 134 -76 l 6
 133.54 -79.22 130.296915167 -78.8547557841 127 -78 c 6
 100 -71 l 6
 96.7030848329 -70.1452442159 97.56 -67.08 98 -64 c 6
 318 1476 l 6
 318.44 1479.08 320.766066838 1479.09768638 325 1478 c 6
EndSplineSet
Refer: 26 79 N 1 0 0 1 0 0 2
EndChar

StartChar: oslash
Encoding: 248 248 394
Width: 395
VWidth: 1920
Flags: HW
LayerCount: 2
Fore
SplineSet
295 1198 m 6
 322 1191 l 6
 324.360351562 1190.38769531 324.459960938 1187.21972656 324 1184 c 6
 104 -76 l 6
 103.540039062 -79.2197265625 100.296875 -78.8544921875 97 -78 c 6
 70 -71 l 6
 66.703125 -70.1455078125 67.5595703125 -67.080078125 68 -64 c 6
 288 1196 l 6
 288.440429688 1199.08007812 290.765625 1199.09765625 295 1198 c 6
EndSplineSet
Refer: 52 111 N 1 0 0 1 0 0 2
EndChar

StartChar: germandbls
Encoding: 223 223 396
Width: 453
VWidth: 1920
Flags: HW
LayerCount: 2
Fore
SplineSet
65 1188 m 2
 65 1362 79.5 1487 184.5 1487 c 0
 306 1487 336 1372 336 1205 c 0
 336 1008 306 935 306 815 c 0
 306 596 411 563 411 302 c 0
 411 90 366.5 -35 226.5 -35 c 0
 222 -35 221.5 -34 221.5 -25 c 2
 221.5 52 l 2
 221.5 61 222 61.9140625 226.5 62 c 0
 279 63 321 119 321 297 c 0
 321 540 215 557 215 828 c 0
 215 970 247 1078 247 1208 c 0
 247 1319 230.5 1400 193.5 1400 c 0
 158.5 1400 157.5 1301 157.5 1168 c 2
 157.5 10 l 2
 157.5 3 156 0 152.5 0 c 2
 70 0 l 2
 66.5 0 65 3 65 10 c 2
 65 1188 l 2
  Spiro
    65 1188 ]
    72.6301 1342.72 o
    106.905 1448.22 o
    184.5 1487 o
    277.71 1451.07 o
    323.749 1352.21 o
    336 1205 o
    328.236 1043.13 o
    313.764 925.559 o
    306 815 o
    333.176 642.808 o
    383.824 502.178 o
    411 302 o
    394.313 120.557 o
    336.474 5.18019 o
    226.5 -35 o
    223.206 -34.4089 o
    221.796 -31.5881 o
    221.5 -25 [
    221.5 52 ]
    221.796 58.5691 o
    223.206 61.3707 o
    226.5 62 o
    274.291 83.7697 o
    308.191 157.289 o
    321 297 o
    293.566 482.299 o
    242.434 624.044 o
    215 828 o
    223.282 960.615 o
    238.718 1083.38 o
    247 1208 o
    241.363 1307.03 o
    223.791 1374.94 o
    193.5 1400 o
    168.627 1369.47 o
    159.051 1287.16 o
    157.5 1168 [
    157.5 10 ]
    156.983 4.30074 o
    155.35 1.03493 o
    152.5 0 [
    70 0 ]
    67.1504 1.03493 o
    65.5175 4.30074 o
    65 10 [
    0 0 z
  EndSpiro
EndSplineSet
EndChar

StartChar: eth
Encoding: 240 240 397
Width: 402
VWidth: 1920
Flags: HW
LayerCount: 2
Fore
SplineSet
174 1219 m 14
 149 1257 l 22
 147 1260 149 1261 152 1263 c 14
 344 1388 l 22
 347 1390 349 1389 351 1386 c 14
 376 1349 l 22
 378 1346 376 1345 373 1343 c 14
 180 1217 l 22
 177 1215 176 1216 174 1219 c 14
190 991 m 256
 135 991 130 899 130 793 c 258
 130 249 l 258
 130 144 145 59 205 59 c 256
 263 59 274 152 274 237 c 258
 274 873 l 258
 274 1236 232 1349 91 1409 c 0
 86 1411 85 1413 87 1417 c 2
 117 1471 l 2
 119 1475 120 1476 126 1474 c 0
 313 1403 367 1203 367 965 c 258
 367 269 l 258
 367 119 348 -17 200 -17 c 256
 74 -17 35 90 35 229 c 258
 35 807 l 258
 35 944 52 1067 160 1067 c 256
 248 1067 304 952 304 855 c 257
 274 767 l 257
 274 825 l 258
 274 917 235 991 190 991 c 256
EndSplineSet
EndChar

StartChar: dcroat
Encoding: 273 273 398
Width: 420
VWidth: 1920
Flags: HW
LayerCount: 2
Fore
SplineSet
178 1199 m 14
 178 1266 l 22
 178 1270 178 1271 182 1271 c 14
 448 1271 l 22
 452 1271 452 1270 452 1266 c 14
 452 1199 l 22
 452 1195 452 1194 448 1194 c 14
 182 1194 l 22
 178 1194 178 1195 178 1199 c 14
EndSplineSet
Refer: 41 100 N 1 0 0 1 0 0 2
EndChar

StartChar: Hbar
Encoding: 294 294 399
Width: 490
VWidth: 1920
Flags: HW
LayerCount: 2
Fore
SplineSet
15 1089 m 10
 15 1146 l 18
 15 1150 16 1151 20 1151 c 10
 470 1151 l 22
 474 1151 475 1150 475 1146 c 14
 475 1089 l 22
 475 1085 474 1084 470 1084 c 14
 20 1084 l 18
 16 1084 15 1085 15 1089 c 10
EndSplineSet
Refer: 19 72 N 1 0 0 1 0 0 2
EndChar

StartChar: hbar
Encoding: 295 295 400
Width: 405
VWidth: 1920
Flags: HW
LayerCount: 2
Fore
SplineSet
6 1234 m 14
 6 1291 l 22
 6 1295 6 1296 10 1296 c 14
 246 1296 l 22
 250 1296 250 1295 250 1291 c 14
 250 1234 l 22
 250 1230 250 1229 246 1229 c 14
 10 1229 l 22
 6 1229 6 1230 6 1234 c 14
EndSplineSet
Refer: 45 104 N 1 0 0 1 0 0 2
EndChar

StartChar: Lslash
Encoding: 321 321 405
Width: 333
VWidth: 1920
Flags: HW
LayerCount: 2
Fore
SplineSet
242 957 m 6
 257 931 l 6
 259 928 258 926 255 924 c 6
 25 791 l 6
 22 789 20 790 18 793 c 6
 3 819 l 6
 1 822 2 824 5 826 c 6
 235 959 l 6
 238 961 240 960 242 957 c 6
EndSplineSet
Refer: 23 76 N 1 0 0 1 0 0 2
EndChar

StartChar: lslash
Encoding: 322 322 406
Width: 225
VWidth: 1920
Flags: HW
LayerCount: 2
Fore
SplineSet
233 957 m 6
 248 931 l 6
 250 928 249 926 246 924 c 6
 16 791 l 6
 13 789 11 790 9 793 c 6
 -6 819 l 6
 -8 822 -7 824 -4 826 c 6
 226 959 l 6
 229 961 231 960 233 957 c 6
EndSplineSet
Refer: 49 108 N 1 0 0 1 0 0 2
EndChar

StartChar: eng
Encoding: 331 331 408
Width: 385
VWidth: 960
Flags: HW
LayerCount: 2
Fore
SplineSet
61 1050 m 2
 141 1050 l 2
 145 1050 145 1049 145 1045 c 2
 145 943 l 257
 151 930 l 257
 151 5 l 2
 151 1 149 0 145 0 c 2
 61 0 l 2
 57 0 55 1 55 5 c 2
 55 1045 l 2
 55 1049 57 1050 61 1050 c 2
336 -49 m 6
 336 -153 335 -200 181 -176 c 0
 177.047851562 -175.383789062 176 -174 176 -170 c 2
 176 -115 l 2
 176 -112 177.052734375 -110.354492188 181 -111 c 0
 236 -120 241 -103 241 -39 c 2
 241 907 l 2
 241 967 232 1003 198 1003 c 0
 160 1003 151 942 151 837 c 1
 135 877 l 1
 135 987 149 1067 233 1067 c 0
 307 1067 336 1007 336 907 c 2
 336 -49 l 6
EndSplineSet
EndChar

StartChar: Eng
Encoding: 330 330 409
Width: 490
VWidth: 960
Flags: HW
LayerCount: 2
Fore
SplineSet
335 1400 m 2
 410 1400 l 2
 414 1400 415 1399 415 1395 c 2
 415 -49 l 2
 415 -153 414 -200 260 -176 c 0
 256.047851562 -175.383789062 255 -174 255 -170 c 2
 255 -115 l 2
 255 -112 256.052734375 -110.354492188 260 -111 c 0
 315 -120 320 -103 320 -39 c 2
 320 208.87755102 l 1
 160 1115 l 1
 160 5 l 2
 160 1 159 0 155 0 c 2
 80 0 l 2
 76 0 75 1 75 5 c 2
 75 1395 l 2
 75 1399 76 1400 80 1400 c 2
 175 1400 l 2
 179 1400 181 1399 184 1395 c 2
 330 534 l 1
 330 1395 l 2
 330 1399 331 1400 335 1400 c 2
EndSplineSet
EndChar

StartChar: oe
Encoding: 339 339 410
Width: 604
VWidth: 960
Flags: HW
LayerCount: 2
Fore
SplineSet
40 224 m 258
 40 827 l 258
 40 972 69 1067 197 1067 c 256
 325 1067 325 972 325 827 c 258
 325 224 l 258
 325 79 325 -18 197 -18 c 256
 69 -18 40 79 40 224 c 258
137 209 m 258
 137 114 143 48 197 48 c 256
 251 48 257 114 257 209 c 258
 257 841 l 258
 257 936 251 1003 197 1003 c 256
 143 1003 137 936 137 841 c 258
 137 209 l 258
564 410 m 0
 555.565728736 89.4976919814 549.075160794 -18 408 -18 c 260
 274 -18 280 69 280 224 c 258
 280 827 l 258
 280 977 289 1067 417 1067 c 256
 541 1067 562.206054688 970.015625 565 862 c 256
 568.516601562 726.041992188 569 638 569 496 c 0
 569 494 568 492 564 492 c 2
 322 492 l 257
 322 552 l 257
 477 552 l 257
 475 936 475 1003 413 1003 c 256
 364 1003 355 946 355 841 c 258
 355 209 l 258
 355 99 364 48 412 48 c 256
 465 48 473 108 479 412 c 0
 479.0390625 414 481 415 485 415 c 2
 560 415 l 2
 564 415 564.079101562 412.999023438 564 410 c 0
EndSplineSet
EndChar

StartChar: OE
Encoding: 338 338 411
Width: 665
VWidth: 1920
Flags: HW
LayerCount: 2
Fore
SplineSet
268 1400 m 258
 400 1400 l 258
 404 1400 405 1399 405 1395 c 258
 405 5 l 258
 405 1 404 0 400 0 c 258
 268 0 l 258
 96 0 50 125 50 378 c 258
 50 1031 l 258
 50 1284 76 1400 268 1400 c 258
268 1325 m 258
 176 1325 150 1245 150 1036 c 258
 150 374 l 258
 150 165 176 75 268 75 c 258
 310 75 l 257
 310 1325 l 257
 268 1325 l 258
EndSplineSet
Refer: 16 69 N 1 0 0 1 225 0 2
EndChar

StartChar: Tbar
Encoding: 358 358 413
Width: 385
VWidth: 1920
Flags: HW
LayerCount: 2
Fore
SplineSet
-8 669 m 14
 -8 726 l 22
 -8 730 -6 731 -2 731 c 14
 372 731 l 22
 376 731 378 730 378 726 c 14
 378 669 l 22
 378 665 376 664 372 664 c 14
 -2 664 l 22
 -6 664 -8 665 -8 669 c 14
EndSplineSet
Refer: 31 84 N 1 0 0 1 0 0 2
EndChar

StartChar: tbar
Encoding: 359 359 414
Width: 277
VWidth: 1920
Flags: HW
LayerCount: 2
Fore
SplineSet
20 599 m 10
 20 656 l 18
 20 660 21 661 25 661 c 10
 245 661 l 22
 249 661 250 660 250 656 c 14
 250 599 l 22
 250 595 249 594 245 594 c 14
 25 594 l 18
 21 594 20 595 20 599 c 10
EndSplineSet
Refer: 57 116 N 1 0 0 1 0 0 2
EndChar

StartChar: uni0394
Encoding: 916 916 430
Width: 440
VWidth: 960
Flags: HW
LayerCount: 2
Fore
SplineSet
25 0 m 6
 21 0 21 2 22 5 c 2
 151 1395 l 2
 152 1398 154 1400 158 1400 c 2
 269 1400 l 2
 273 1400 274 1398 275 1395 c 2
 418 5 l 2
 419 2 419 0 415 0 c 6
 25 0 l 6
112.520504732 75 m 1
 311.872239748 75 l 1
 207 1273 l 1
 112.520504732 75 l 1
EndSplineSet
EndChar

StartChar: uni03A9
Encoding: 937 937 431
Width: 545
VWidth: 1920
Flags: HW
LayerCount: 2
Fore
SplineSet
287 86 m 0
 359 198 360 314 360 504 c 2
 360 1045 l 2
 360 1244 345 1347 243 1347 c 4
 141 1347 125 1244 125 1045 c 2
 125 504 l 2
 125 314 126 196 200 85 c 4
 204.224644104 78.6630338433 207 82 207 76 c 2
 207 5 l 2
 207 1 207 0 203 0 c 2
 33 0 l 2
 29 0 27 1 27 5 c 2
 27 72 l 2
 27 76 29 78 33 78 c 2
 130 78 l 1
 49 202 25 326 25 524 c 2
 25 1041 l 2
 25 1284 62 1417 243 1417 c 0
 424 1417 460 1284 460 1041 c 2
 460 524 l 2
 460 326 434 202 354 78 c 1
 453 78 l 2
 457 78 457 76 457 72 c 2
 457 5 l 2
 457 1 457 0 453 0 c 2
 283 0 l 2
 279 0 277 1 277 5 c 2
 277 76 l 2
 277 82 282.163174625 78.4760494159 287 86 c 0
EndSplineSet
EndChar

StartChar: pi
Encoding: 960 960 432
Width: 432
VWidth: 1920
Flags: HW
LayerCount: 2
Fore
SplineSet
164 1020 m 6
 164 5 l 2
 164 1 163 0 159 0 c 2
 74 0 l 2
 70 0 69 1 69 5 c 2
 69 1020 l 6
 69 1024 70 1025 74 1025 c 6
 159 1025 l 6
 163 1025 164 1024 164 1020 c 6
422 60 m 2
 422 5 l 2
 422 1 422 -1 418 -1 c 0
 274 -20 235 22 235 126 c 258
 235 1010 l 6
 235 1014 236 1015 240 1015 c 6
 322 1015 l 6
 326 1015 328 1014 328 1010 c 6
 328 136 l 258
 328 72 343 55 418 64 c 0
 421 64 422 63 422 60 c 2
10 977 m 14
 10 1045 l 22
 10 1049 11 1050 15 1050 c 14
 390 1050 l 22
 394 1050 395 1049 395 1045 c 14
 395 977 l 22
 395 973 394 973 390 973 c 14
 15 973 l 22
 11 973 10 973 10 977 c 14
EndSplineSet
EndChar

StartChar: minute
Encoding: 8242 8242 433
Width: 213
VWidth: 1920
Flags: HW
LayerCount: 2
Fore
SplineSet
55 930 m 2
 30 930 l 2
 26 930 25 934 26 940 c 2
 87 1410 l 2
 88 1417 89 1420 93 1420 c 2
 183 1420 l 6
 187 1420 189 1416 187 1410 c 2
 63 940 l 2
 62 934 59 930 55 930 c 2
EndSplineSet
EndChar

StartChar: Euro
Encoding: 8364 8364 435
Width: 505
VWidth: 1920
Flags: HW
LayerCount: 2
Fore
SplineSet
-32.5 578.75 m 14
 -32.5 631.25 l 22
 -32.5 634.75 -31 636.25 -27.5 636.25 c 14
 247.5 636.25 l 22
 251 636.25 252.5 634.75 252.5 631.25 c 14
 252.5 578.75 l 22
 252.5 575.25 251 573.75 247.5 573.75 c 14
 -27.5 573.75 l 22
 -31 573.75 -32.5 575.25 -32.5 578.75 c 14
-32.5 753.75 m 14
 -32.5 806.25 l 22
 -32.5 809.75 -31 811.25 -27.5 811.25 c 14
 247.5 811.25 l 22
 251 811.25 252.5 809.75 252.5 806.25 c 14
 252.5 753.75 l 22
 252.5 750.25 251 748.75 247.5 748.75 c 14
 -27.5 748.75 l 22
 -31 748.75 -32.5 750.25 -32.5 753.75 c 14
435 353 m 256
 435 225.903320312 435 -18 233 -18 c 256
 65 -18 50 129 50 359 c 258
 50 1042 l 258
 50 1292 95 1418 238 1418 c 256
 430 1418 430 1252.484375 430 1126 c 256
 430 1122 429 1122 425 1122 c 258
 350 1122 l 258
 346 1122 345.027971445 1122.00008338 345 1126 c 256
 344 1269 325 1338 247 1338 c 256
 169 1338 150 1241 150 1046 c 258
 150 354 l 258
 150 179 157 62 237 62 c 256
 318 62 349 187 350 353 c 256
 350.024096006 356.999937078 351 358 355 358 c 258
 430 358 l 258
 434 358 435 357 435 353 c 256
EndSplineSet
EndChar

StartChar: uni2116
Encoding: 8470 8470 436
Width: 775
VWidth: 1920
Flags: HW
LayerCount: 2
Fore
SplineSet
490 5 m 14
 490 72 l 22
 490 76 490 77 494 77 c 14
 721 77 l 22
 725 77 725 76 725 72 c 14
 725 5 l 22
 725 1 725 0 721 0 c 14
 494 0 l 22
 490 0 490 1 490 5 c 14
EndSplineSet
Refer: 132 8304 N 1 0 0 1 440 -295 2
Refer: 25 78 N 1 0 0 1 0 0 2
EndChar

StartChar: trademark
Encoding: 8482 8482 437
Width: 661
VWidth: 1920
Flags: HW
LayerCount: 2
Fore
SplineSet
43 1400 m 2
 264 1400 l 2
 266 1400 267 1398 267 1394 c 2
 267 1346 l 2
 267 1342 266 1340 264 1340 c 2
 187 1340 l 257
 187 566 l 2
 187 562 186 560 184 560 c 2
 123 560 l 2
 121 560 120 562 120 566 c 2
 120 1340 l 257
 43 1340 l 2
 41 1340 40 1342 40 1346 c 2
 40 1394 l 2
 40 1398 41 1400 43 1400 c 2
376 1282 m 257
 376 566 l 2
 376 562 375 560 373 560 c 2
 324 560 l 2
 322 560 321 562 321 566 c 2
 321 1394 l 2
 321 1398 322 1400 324 1400 c 2
 406 1400 l 2
 408 1400 409 1398 410 1394 c 2
 477 841 l 257
 536 1394 l 6
 537 1398 538 1400 540 1400 c 6
 618 1400 l 2
 620 1400 621 1398 621 1394 c 2
 621 566 l 2
 621 562 620 560 618 560 c 2
 563 560 l 2
 561 560 560 562 560 566 c 2
 560 1220 l 257
 484 566 l 2
 483 562 482 560 480 560 c 2
 462 560 l 2
 460 560 459 562 458 566 c 2
 376 1282 l 257
EndSplineSet
EndChar

StartChar: partialdiff
Encoding: 8706 8706 438
Width: 432
VWidth: 1920
Flags: HW
LayerCount: 2
Fore
SplineSet
204.5 811.5 m 256
 144.5 811.5 140 754 140 662.5 c 258
 140 198.5 l 258
 140 108.5 150.5 57.5 215 57.5 c 256
 278.5 57.5 284.5 151 284.5 236 c 258
 284.5 793 l 258
 284.5 1185.89257812 242.432617188 1324.84667969 101 1385.05566406 c 0
 95.8798828125 1387.23632812 94.9716796875 1388.78125 97 1392.5 c 2
 127 1441.5 l 2
 129.080078125 1445.31347656 129.515625 1446.53125 136 1444.04882812 c 0
 322.771484375 1372.57128906 377 1193.31835938 377 755.5 c 258
 377 268.5 l 258
 377 118.5 363.5 -17.5 210 -17.5 c 256
 79 -17.5 45 54.5 45 178.5 c 258
 45 677.5 l 258
 45 799.5 61 886.5 174.5 886.5 c 256
 293 886.5 314.5 822 314.5 725 c 257
 284.5 630 l 257
 284.5 695 l 258
 284.5 786.5 259.5 811.5 204.5 811.5 c 256
EndSplineSet
EndChar

StartChar: summation
Encoding: 8721 8721 439
Width: 434
VWidth: 1920
Flags: HW
LayerCount: 2
Fore
SplineSet
349.72265625 505 m 2
 155.96484375 -270 l 1
 379 -270 l 2
 382.5 -270 384 -273 384 -280 c 2
 384 -350 l 2
 384 -357 382.5 -360 379 -360 c 2
 39 -360 l 2
 35.5 -360 34.74609375 -357.767578125 37.5 -350 c 2
 265.883789062 520 l 5
 37.5 1390 l 2
 34.74609375 1397.76757812 35.5 1400 39 1400 c 2
 379 1400 l 2
 382.5 1400 384 1397 384 1390 c 2
 384 1320 l 2
 384 1313 382.5 1310 379 1310 c 2
 155.96484375 1310 l 1
 349.72265625 535 l 2
 353.821289062 523.453125 353.845703125 516.6171875 349.72265625 505 c 2
EndSplineSet
EndChar

StartChar: minus
Encoding: 8722 8722 440
Width: 585
Flags: HW
LayerCount: 2
Fore
SplineSet
65 217.5 m 10
 65 285 l 18
 65 288.5 66.5 290 70 290 c 10
 515 290 l 18
 518.5 290 520 288.5 520 285 c 10
 520 217.5 l 18
 520 214 518.5 212.5 515 212.5 c 10
 70 212.5 l 18
 66.5 212.5 65 214 65 217.5 c 10
EndSplineSet
EndChar

StartChar: integral
Encoding: 8747 8747 441
Width: 245
VWidth: 960
Flags: HW
LayerCount: 2
Fore
SplineSet
158 -49 m 6
 158 -153 158 -200 5 -176 c 0
 1.04842152836 -175.380144553 0 -174 0 -170 c 2
 0 -115 l 2
 0 -112 1.052734375 -110.354492188 5 -111 c 0
 60 -120 65 -103 65 -39 c 2
 65 1337 l 2
 65 1441 80 1478 199 1464 c 0
 204 1463 205 1462 205 1458 c 2
 205 1403 l 2
 205 1400 203 1397 197 1399 c 0
 164 1407 158 1390 158 1327 c 2
 158 -49 l 6
EndSplineSet
EndChar

StartChar: radical
Encoding: 8730 8730 443
Width: 448
VWidth: 1920
Flags: HMW
LayerCount: 2
Fore
SplineSet
221 1050 m 2
 224.5 1050 226.401367188 1046.12207031 227.5 1040 c 2
 280.291015625 327.907226562 l 1
 327.5 1590 l 2
 327.5 1597 329 1600 332.5 1600 c 2
 410 1600 l 2
 413.5 1600 415.673828125 1596.73535156 415 1590 c 2
 291.697265625 -143.0234375 l 6
 290.947265625 -150.52734375 289.8203125 -151.240234375 288.197265625 -143.0234375 c 6
 160.555664062 960 l 1
 90 960 l 2
 86.5 960 85 963 85 970 c 2
 85 1040 l 2
 85 1047 86.5 1050 90 1050 c 2
 221 1050 l 2
EndSplineSet
EndChar

StartChar: infinity
Encoding: 8734 8734 444
Width: 696
VWidth: 1331
Flags: HMW
LayerCount: 2
Fore
SplineSet
189 482 m 0
 89 482 30 567 30 664 c 0
 30 761 89 844 189 844 c 0
 266 844 317 789 349 709 c 1
 381 789 431 844 508 844 c 0
 608 844 666 761 666 664 c 0
 666 567 608 482 508 482 c 0
 431 482 371 537 349 617 c 1
 316 537 266 482 189 482 c 0
200 560 m 0
 244 560 284 602 311 664 c 1
 286 725 244 767 200 767 c 0
 150 767 114 729 114 664 c 0
 114 600 150 560 200 560 c 0
497 560 m 0
 547 560 582 600 582 664 c 0
 582 729 547 767 497 767 c 0
 453 767 411 725 386 664 c 1
 401 603 453 560 497 560 c 0
EndSplineSet
EndChar

StartChar: product
Encoding: 8719 8719 445
Width: 590
VWidth: 1920
Flags: HW
LayerCount: 2
Fore
SplineSet
510 1400 m 6
 513.5 1400 515 1397 515 1390 c 6
 515 10 l 6
 515 3 513.5 0 510 0 c 6
 425 0 l 6
 421.5 0 420 3 420 10 c 6
 420 1310 l 261
 170 1310 l 257
 170 10 l 2
 170 3 168.5 -0 165 0 c 2
 80 0 l 2
 76.5 0 75 3 75 10 c 2
 75 1390 l 18
 75 1397 76.5 1400 80 1400 c 10
 510 1400 l 6
EndSplineSet
EndChar

StartChar: uni2219
Encoding: 8729 8729 446
Width: 270
Flags: HW
LayerCount: 2
Fore
SplineSet
60 675 m 4
 60 719 91 750 135 750 c 4
 179 750 210 719 210 675 c 4
 210 631 182 600 138 600 c 4
 94 600 60 631 60 675 c 4
EndSplineSet
EndChar

StartChar: approxequal
Encoding: 8776 8776 447
Width: 498
VWidth: 1210
Flags: HW
LayerCount: 2
Fore
SplineSet
160 582 m 256
 119 582 106 555 104 539 c 0
 104 536 102 534 99 534 c 2
 34 534 l 2
 30 534 29 536 29 539 c 0
 31 608 85 665 155 665 c 256
 245 665 272 604 338 604 c 256
 379 604 392 631 394 647 c 0
 394 650 397 652 400 652 c 2
 464 652 l 2
 468 652 469 651 469 647 c 0
 467 578 414 521 344 521 c 256
 254 521 236 582 160 582 c 256
160 397 m 256
 119 397 106 370 104 354 c 0
 104 351 102 349 99 349 c 2
 34 349 l 2
 30 349 29 351 29 354 c 0
 31 423 85 480 155 480 c 256
 245 480 272 419 338 419 c 256
 379 419 392 446 394 462 c 0
 394 465 397 467 400 467 c 2
 464 467 l 2
 468 467 469 466 469 462 c 0
 467 393 414 336 344 336 c 256
 254 336 236 397 160 397 c 256
EndSplineSet
EndChar

StartChar: notequal
Encoding: 8800 8800 448
Width: 530
VWidth: 1920
Flags: HW
LayerCount: 2
Fore
SplineSet
479 730 m 6
 500 709 l 6
 502 707 502 704 500 702 c 6
 78 270 l 6
 76 268 73 268 71 270 c 6
 50 291 l 6
 48 293 48 296 50 298 c 6
 472 730 l 6
 474 732 477 732 479 730 c 6
EndSplineSet
Refer: 83 61 S 1 0 0 1 0 0 2
EndChar

StartChar: lessequal
Encoding: 8804 8804 449
Width: 520
VWidth: 1920
Flags: HW
LayerCount: 2
Fore
SplineSet
57.5 353.75 m 10
 57.5 421.25 l 18
 57.5 424.75 59 426.25 62.5 426.25 c 10
 447.5 426.25 l 18
 451 426.25 452.5 424.75 452.5 421.25 c 10
 452.5 353.75 l 18
 452.5 350.25 451 348.75 447.5 348.75 c 10
 62.5 348.75 l 18
 59 348.75 57.5 350.25 57.5 353.75 c 10
EndSplineSet
Refer: 84 60 N 1 0 0 1 0 150 2
EndChar

StartChar: greaterequal
Encoding: 8805 8805 450
Width: 520
VWidth: 1920
Flags: HW
LayerCount: 2
Fore
SplineSet
57.5 353.75 m 10
 57.5 421.25 l 18
 57.5 424.75 59 426.25 62.5 426.25 c 10
 447.5 426.25 l 18
 451 426.25 452.5 424.75 452.5 421.25 c 10
 452.5 353.75 l 18
 452.5 350.25 451 348.75 447.5 348.75 c 10
 62.5 348.75 l 18
 59 348.75 57.5 350.25 57.5 353.75 c 10
EndSplineSet
Refer: 85 62 N 1 0 0 1 0 150 2
EndChar

StartChar: lozenge
Encoding: 9674 9674 451
Width: 650
Flags: HW
LayerCount: 2
Fore
SplineSet
331 40 m 2
 81 702 l 2
 76.3843022846 709.638979719 76.3487137855 714.325377746 81 722 c 2
 331 1382 l 2
 336.672851562 1391.36035156 337.493164062 1391.66601562 343 1382 c 2
 569 722 l 2
 573.392578125 714.2890625 573.403320312 709.751953125 569 702 c 2
 343 40 l 2
 337.569335938 30.4375 336.728515625 30.5205078125 331 40 c 2
331 304 m 1
 463 712 l 5
 331 1120 l 1
 187 712 l 1
 331 304 l 1
EndSplineSet
EndChar

StartChar: uniF8EA
Encoding: 63722 63722 452
Width: 542
VWidth: 1534
Flags: HW
LayerCount: 2
Fore
SplineSet
39 1400 m 6
 231 1400 l 6
 232 1400 233 1399 233 1398 c 6
 233 1369 l 6
 233 1368 232 1367 231 1367 c 6
 155 1367 l 261
 155 1150 l 6
 155 1149 154 1148 153 1148 c 6
 117 1148 l 6
 116 1148 115 1149 115 1150 c 6
 115 1367 l 261
 39 1367 l 6
 38 1367 37 1368 37 1369 c 6
 37 1398 l 6
 37 1399 38 1400 39 1400 c 6
299 1352 m 261
 299 1150 l 6
 299 1149 298 1148 297 1148 c 6
 267 1148 l 6
 266 1148 265 1149 265 1150 c 6
 265 1398 l 6
 265 1399 266 1400 267 1400 c 6
 317 1400 l 6
 318 1400 319 1399 319 1398 c 6
 389 1224 l 261
 461 1398 l 6
 461 1399 462 1400 463 1400 c 6
 503 1400 l 6
 504 1400 505 1399 505 1398 c 6
 505 1150 l 6
 505 1149 504 1148 503 1148 c 6
 471 1148 l 6
 470 1148 469 1149 469 1150 c 6
 469 1334 l 261
 393 1150 l 6
 393 1149 392 1148 391 1148 c 6
 380 1148 l 6
 379 1148 377 1149 377 1150 c 6
 299 1352 l 261
EndSplineSet
EndChar

StartChar: uniF8E8
Encoding: 63720 63720 453
Width: 492
VWidth: 1508
Flags: HW
LayerCount: 2
Fore
SplineSet
185 1317 m 261
 185 1233 l 261
 257 1233 l 262
 287 1233 303 1245 303 1267 c 262
 303 1283 l 262
 303 1305 287 1317 257 1317 c 262
 185 1317 l 261
257 1343 m 262
 303 1343 339 1322 339 1279 c 262
 339 1275 l 262
 339 1232 303 1213 257 1213 c 261
 257 1225 l 261
 303 1225 337 1210 337 1167 c 262
 337 1151 l 262
 337 1131 343 1115 351 1103 c 4
 353 1101 352 1100 352 1099 c 6
 352 1093 l 6
 352 1091 353 1091 351 1091 c 6
 318 1091 l 6
 316 1091 316 1091 315 1093 c 4
 305 1111 303 1135 303 1151 c 262
 303 1173 l 262
 303 1195 287 1207 257 1207 c 262
 185 1207 l 261
 185 1093 l 6
 185 1091 185 1091 183 1091 c 6
 153 1091 l 6
 151 1091 151 1091 151 1093 c 6
 151 1341 l 6
 151 1343 151 1343 153 1343 c 6
 257 1343 l 262
455 1207 m 4
 455 1092 360 999 245 999 c 4
 130 999 37 1092 37 1207 c 4
 37 1322 130 1417 245 1417 c 4
 360 1417 455 1322 455 1207 c 4
429 1207 m 4
 429 1309 347 1391 245 1391 c 4
 143 1391 63 1309 63 1207 c 4
 63 1105 143 1025 245 1025 c 4
 347 1025 429 1105 429 1207 c 4
EndSplineSet
EndChar

StartChar: uniF8E9
Encoding: 63721 63721 454
Width: 492
VWidth: 1508
Flags: HW
LayerCount: 2
Fore
SplineSet
347 1172 m 260
 343 1120 309 1076 243 1076 c 260
 173 1076 137 1125 137 1193 c 262
 137 1223 l 262
 137 1291 173 1341 243 1341 c 260
 309 1341 339 1301 341 1257 c 260
 341 1255 342 1255 340 1255 c 262
 313 1255 l 262
 311 1255 311 1255 311 1257 c 260
 311 1291 284 1315 245 1315 c 260
 199 1315 173 1273 173 1225 c 262
 173 1191 l 262
 173 1143 195 1101 245 1101 c 260
 287 1101 317 1134 317 1172 c 260
 317 1174 317 1173 319 1173 c 262
 345 1173 l 262
 347 1173 347 1174 347 1172 c 260
455 1207 m 4
 455 1092 360 999 245 999 c 4
 130 999 37 1092 37 1207 c 4
 37 1322 130 1417 245 1417 c 4
 360 1417 455 1322 455 1207 c 4
429 1207 m 4
 429 1309 347 1391 245 1391 c 4
 143 1391 63 1309 63 1207 c 4
 63 1105 143 1025 245 1025 c 4
 347 1025 429 1105 429 1207 c 4
EndSplineSet
EndChar

StartChar: uni1E9E
Encoding: 7838 7838 457
Width: 548
VWidth: 1920
Flags: HW
LayerCount: 2
Fore
SplineSet
85 1102 m 2
 85 1304 123 1417 273 1417 c 0
 394 1417 424 1299 459 1175 c 0
 462.037077862 1164.240067 461.665070605 1156.64250933 460 1148 c 2
 376 712 l 1
 436 637 506 564 506 334 c 0
 506 122 450 -18 340 -18 c 0
 291 -18 247 33 234 88 c 0
 231.000966252 100.688219704 221 131 221 137 c 2
 221 240 l 2
 221 255 235.611328125 249.549804688 242 229 c 0
 258.132453214 177.108344088 287 94 328 94 c 0
 386 94 411 164 411 333 c 0
 411 531 369 591 281 666 c 0
 273.054038445 672.772126325 271 669 277 678 c 2
 376 1158 l 1
 365 1244 331 1346 272 1346 c 0
 188 1346 177 1268 177 1092 c 2
 177 5 l 2
 177 1 177 0 173 0 c 2
 90 0 l 2
 86 0 85 1 85 5 c 2
 85 1102 l 2
EndSplineSet
EndChar
